<svg width="92" height="92" viewBox="0 0 92 92" fill="none" xmlns="http://www.w3.org/2000/svg">
<g clip-path="url(#clip0)">
<path d="M39.4553 1.42857C39.4691 1.41972 39.4834 1.41212 39.4972 1.40362C39.5823 1.3449 39.5722 1.35074 39.4553 1.42857ZM64.3978 41.1442C66.8372 39.4839 68.6418 38.2255 68.6418 38.2255C69.5441 37.7477 70.1279 36.8458 70.1279 35.8375V26.6569L71.2952 27.453C72.7879 28.2819 74.232 27.7992 75.0098 26.7101C75.806 25.4898 75.4876 23.8447 74.267 22.9955L70.1279 20.236L63.6539 8.47278L54.2079 9.62273L42.4274 1.42857C41.5387 0.853503 40.3937 0.845897 39.4972 1.40362C38.0271 2.41702 8.1171 22.6608 7.61545 22.9953C6.3951 23.8445 6.0767 25.4896 6.87269 26.7099C7.67276 27.8305 9.13315 28.2604 10.5873 27.4529L11.7546 26.6567V67.6774C11.7546 69.1631 12.9219 70.3307 14.4079 70.3307H27.6746C30.6054 70.3307 32.9812 67.9549 32.9812 65.0241V49.1041H51.5544C52.0639 49.1041 54.2316 47.8259 56.8611 46.1459V83.5973H78.0876V41.1442H64.3978Z" fill="url(#paint0_linear)"/>
<path d="M70.1279 3.64258C70.1279 2.15654 68.9606 0.989258 67.4746 0.989258H56.8613C55.3753 0.989258 54.208 2.15654 54.208 3.64258V9.62139C53.2082 8.95488 69.5828 19.8712 70.1279 20.2347V3.64258ZM84.5618 36.1015L79.2552 33.4482C78.5124 33.0767 77.6632 33.0767 76.9206 33.4482L72.7813 35.5178L68.6419 33.4482C67.8991 33.0767 67.0499 33.0767 66.3073 33.4482L62.168 35.5178L58.0286 33.4482C57.2859 33.0767 56.4366 33.0767 55.694 33.4482L50.3874 36.1015C49.4851 36.5793 48.9014 37.4813 48.9014 38.4895V43.7962H30.3281C28.8615 43.7962 27.6748 44.9829 27.6748 46.4495V70.3294H48.9014V86.2493C48.9014 87.2576 49.4851 88.1597 50.3874 88.6373L55.694 91.2775C56.4368 91.6486 57.286 91.6486 58.0286 91.2775L62.168 89.221L66.3073 91.2775C67.0501 91.6486 67.8993 91.6486 68.6419 91.2775L72.7813 89.221L76.9206 91.2906C77.2917 91.4496 77.6634 91.5559 78.0879 91.5559C78.5124 91.5559 78.8841 91.4496 79.2552 91.2906L84.5618 88.6373C85.4641 88.1595 86.0479 87.2576 86.0479 86.2493V38.4895C86.0479 37.4813 85.4643 36.5791 84.5618 36.1015ZM72.7813 46.4495C74.2673 46.4495 75.4346 47.6168 75.4346 49.1028C75.4346 50.5885 74.2673 51.7561 72.7813 51.7561C71.2952 51.7561 70.1279 50.5885 70.1279 49.1028C70.1279 47.6168 71.2952 46.4495 72.7813 46.4495ZM72.7813 78.2893H62.168C60.6819 78.2893 59.5146 77.1217 59.5146 75.636C59.5146 74.15 60.6819 72.9827 62.168 72.9827H72.7813C74.2673 72.9827 75.4346 74.15 75.4346 75.636C75.4346 77.1217 74.2673 78.2893 72.7813 78.2893ZM59.5146 65.0227C59.5146 63.5367 60.6819 62.3694 62.168 62.3694C63.654 62.3694 64.8213 63.5367 64.8213 65.0227C64.8213 66.5084 63.654 67.676 62.168 67.676C60.6819 67.676 59.5146 66.5084 59.5146 65.0227ZM74.2673 67.2513C72.8131 68.0588 71.3527 67.629 70.5526 66.5084L59.9394 50.5885C59.1432 49.3681 59.4616 47.7231 60.6821 46.8738C61.9028 46.078 63.5479 46.3964 64.3968 47.6168L75.01 63.5367C75.806 64.7574 75.4878 66.4025 74.2673 67.2513ZM40.9414 33.1829C45.3307 33.1829 48.9014 29.6122 48.9014 25.2229C48.9014 20.8336 45.3307 17.263 40.9414 17.263C36.5521 17.263 32.9814 20.8336 32.9814 25.2229C32.9814 29.6122 36.5521 33.1829 40.9414 33.1829Z" fill="#F2F3F5"/>
</g>
<defs>
<linearGradient id="paint0_linear" x1="42.262" y1="83.5973" x2="42.262" y2="0.990591" gradientUnits="userSpaceOnUse">
<stop stop-color="#21A73F"/>
<stop offset="1" stop-color="#5EC962"/>
</linearGradient>
<clipPath id="clip0">
<rect width="90.5667" height="90.5667" fill="white" transform="translate(0.958183 0.990234)"/>
</clipPath>
</defs>
</svg>
