<svg width="263" height="78" viewBox="0 0 263 78" fill="none" xmlns="http://www.w3.org/2000/svg">
<g clip-path="url(#clip0)">
<path d="M252.844 0.00109863H10.1561C4.79481 0.00109863 0.448608 4.3473 0.448608 9.70861V67.9537C0.448608 73.315 4.79481 77.6612 10.1561 77.6612H252.844C258.205 77.6612 262.551 73.315 262.551 67.9537V9.70861C262.551 4.3473 258.205 0.00109863 252.844 0.00109863Z" fill="black"/>
<path d="M252.844 1.5543C255.007 1.5543 257.081 2.41341 258.61 3.94264C260.139 5.47187 260.998 7.54595 260.998 9.70861V67.9537C260.998 70.1163 260.139 72.1904 258.61 73.7196C257.081 75.2489 255.007 76.108 252.844 76.108H10.1561C7.99346 76.108 5.91938 75.2489 4.39015 73.7196C2.86092 72.1904 2.00181 70.1163 2.00181 67.9537V9.70861C2.00181 7.54595 2.86092 5.47187 4.39015 3.94264C5.91938 2.41341 7.99346 1.5543 10.1561 1.5543H252.844ZM252.844 0.00109863H10.1561C7.58153 0.00109863 5.11238 1.02385 3.29187 2.84436C1.47136 4.66487 0.448608 7.13402 0.448608 9.70861V67.9537C0.448608 70.5283 1.47136 72.9974 3.29187 74.8179C5.11238 76.6384 7.58153 77.6612 10.1561 77.6612H252.844C255.418 77.6612 257.888 76.6384 259.708 74.8179C261.529 72.9974 262.551 70.5283 262.551 67.9537V9.70861C262.551 7.13402 261.529 4.66487 259.708 2.84436C257.888 1.02385 255.418 0.00109863 252.844 0.00109863Z" fill="#A6A6A6"/>
<path d="M62.7964 37.4949C62.7428 31.5328 67.6782 28.6322 67.9039 28.4971C65.1088 24.4219 60.7764 23.8651 59.2539 23.8207C55.6152 23.4377 52.0856 25.998 50.2321 25.998C48.3415 25.998 45.4871 23.8577 42.4108 23.9205C38.4521 23.9816 34.7486 26.2736 32.7174 29.8327C28.5256 37.0898 31.6519 47.7543 35.668 53.6203C37.677 56.4931 40.0245 59.7008 43.0971 59.588C46.1031 59.4641 47.226 57.6715 50.8536 57.6715C54.4479 57.6715 55.5024 59.588 58.636 59.5158C61.8622 59.4641 63.8934 56.63 65.8321 53.7313C68.1537 50.4385 69.086 47.1957 69.123 47.0292C69.0471 47.0033 62.8575 44.641 62.7964 37.4949Z" fill="white"/>
<path d="M56.8766 19.9622C58.4934 17.9403 59.5996 15.1895 59.2925 12.3981C56.9524 12.5017 54.0259 14.0167 52.3407 15.9942C50.8497 17.7368 49.5178 20.593 49.8619 23.279C52.4905 23.4751 55.1895 21.9527 56.8766 19.9622Z" fill="white"/>
<path d="M106.3 59.1748H102.099L99.7981 51.9436H91.7993L89.6072 59.1748H85.5171L93.442 34.5566H98.3367L106.3 59.1748ZM99.1044 48.9098L97.0233 42.4815C96.8032 41.8248 96.3907 40.2783 95.782 37.8439H95.7081C95.4657 38.8909 95.0754 40.4374 94.5389 42.4815L92.4948 48.9098H99.1044Z" fill="white"/>
<path d="M126.68 50.0815C126.68 53.1005 125.864 55.4869 124.233 57.2387C122.771 58.7981 120.957 59.5769 118.791 59.5769C116.452 59.5769 114.773 58.7371 113.75 57.0574H113.676V66.4085H109.732V47.2679C109.732 45.3699 109.682 43.422 109.586 41.4241H113.054L113.274 44.2378H113.348C114.663 42.1178 116.659 41.0597 119.338 41.0597C121.432 41.0597 123.18 41.8866 124.579 43.5422C125.981 45.1997 126.68 47.3789 126.68 50.0815ZM122.662 50.2258C122.662 48.498 122.274 47.0736 121.493 45.9526C120.64 44.7835 119.495 44.1989 118.06 44.1989C117.087 44.1989 116.203 44.5245 115.413 45.1664C114.621 45.8139 114.103 46.6593 113.861 47.7063C113.739 48.1947 113.677 48.5942 113.677 48.9087V51.8685C113.677 53.1597 114.073 54.2493 114.865 55.1391C115.657 56.0289 116.685 56.4729 117.951 56.4729C119.436 56.4729 120.592 55.8994 121.419 54.7562C122.248 53.6111 122.662 52.1016 122.662 50.2258Z" fill="white"/>
<path d="M147.097 50.0815C147.097 53.1005 146.281 55.4869 144.648 57.2387C143.188 58.7981 141.374 59.5769 139.208 59.5769C136.869 59.5769 135.19 58.7371 134.168 57.0574H134.094V66.4085H130.151V47.2679C130.151 45.3699 130.101 43.422 130.004 41.4241H133.473L133.693 44.2378H133.767C135.08 42.1178 137.076 41.0597 139.757 41.0597C141.849 41.0597 143.597 41.8866 144.999 43.5422C146.396 45.1997 147.097 47.3789 147.097 50.0815ZM143.079 50.2258C143.079 48.498 142.689 47.0736 141.908 45.9526C141.056 44.7835 139.914 44.1989 138.477 44.1989C137.502 44.1989 136.62 44.5245 135.828 45.1664C135.036 45.8139 134.52 46.6593 134.278 47.7063C134.157 48.1947 134.094 48.5942 134.094 48.9087V51.8685C134.094 53.1597 134.49 54.2493 135.278 55.1391C136.07 56.027 137.099 56.4729 138.368 56.4729C139.853 56.4729 141.009 55.8994 141.836 54.7562C142.665 53.6111 143.079 52.1016 143.079 50.2258Z" fill="white"/>
<path d="M169.925 52.2725C169.925 54.3666 169.198 56.0703 167.738 57.3856C166.134 58.8229 163.901 59.5407 161.032 59.5407C158.383 59.5407 156.26 59.0301 154.652 58.0071L155.566 54.7199C157.297 55.7669 159.197 56.2923 161.267 56.2923C162.753 56.2923 163.909 55.9556 164.739 55.286C165.566 54.6163 165.979 53.7173 165.979 52.5962C165.979 51.5973 165.638 50.7556 164.956 50.073C164.277 49.3904 163.143 48.7559 161.559 48.1695C157.249 46.562 155.096 44.2071 155.096 41.1104C155.096 39.0866 155.851 37.4273 157.362 36.1361C158.868 34.843 160.877 34.1974 163.389 34.1974C165.629 34.1974 167.49 34.5877 168.976 35.3665L167.99 38.5816C166.602 37.8268 165.033 37.4495 163.278 37.4495C161.891 37.4495 160.807 37.7917 160.03 38.4725C159.373 39.0811 159.044 39.8229 159.044 40.7016C159.044 41.6746 159.419 42.4793 160.174 43.1119C160.831 43.6965 162.024 44.3292 163.755 45.0118C165.873 45.8646 167.429 46.8616 168.43 48.0049C169.427 49.1444 169.925 50.5706 169.925 52.2725Z" fill="white"/>
<path d="M182.965 44.386H178.618V53.0046C178.618 55.1967 179.383 56.2918 180.919 56.2918C181.624 56.2918 182.208 56.2308 182.671 56.1087L182.78 59.1036C182.003 59.3941 180.98 59.5402 179.713 59.5402C178.155 59.5402 176.938 59.0648 176.059 58.1158C175.184 57.165 174.744 55.5704 174.744 53.3302V44.3823H172.154V41.4225H174.744V38.1723L178.618 37.0032V41.4225H182.965V44.386Z" fill="white"/>
<path d="M202.579 50.1561C202.579 52.8847 201.798 55.1249 200.241 56.8767C198.607 58.6803 196.439 59.5794 193.736 59.5794C191.132 59.5794 189.058 58.7155 187.512 56.9877C185.965 55.2599 185.192 53.0789 185.192 50.4502C185.192 47.6995 185.987 45.4463 187.584 43.6945C189.177 41.9408 191.326 41.064 194.029 41.064C196.633 41.064 198.729 41.9279 200.311 43.6575C201.824 45.3353 202.579 47.5015 202.579 50.1561ZM198.487 50.2837C198.487 48.6466 198.137 47.2426 197.429 46.0716C196.602 44.6546 195.42 43.9479 193.888 43.9479C192.303 43.9479 191.099 44.6564 190.272 46.0716C189.563 47.2444 189.214 48.6707 189.214 50.3577C189.214 51.9949 189.563 53.3989 190.272 54.5681C191.124 55.9851 192.316 56.6917 193.853 56.6917C195.359 56.6917 196.541 55.9703 197.394 54.5311C198.121 53.3379 198.487 51.919 198.487 50.2837Z" fill="white"/>
<path d="M215.398 44.8926C215.008 44.8205 214.592 44.7835 214.155 44.7835C212.768 44.7835 211.695 45.307 210.94 46.3559C210.283 47.2808 209.954 48.4499 209.954 49.8614V59.1755H206.012L206.049 47.0144C206.049 44.9685 205.999 43.1057 205.901 41.426H209.336L209.481 44.8223H209.59C210.006 43.6551 210.663 42.7153 211.562 42.0105C212.44 41.376 213.389 41.0597 214.412 41.0597C214.777 41.0597 215.106 41.0856 215.398 41.1318V44.8926Z" fill="white"/>
<path d="M233.037 49.4595C233.037 50.1661 232.991 50.7618 232.893 51.2483H221.061C221.107 53.002 221.679 54.3431 222.778 55.2681C223.775 56.095 225.064 56.5093 226.648 56.5093C228.4 56.5093 229.998 56.23 231.435 55.6695L232.053 58.4073C230.373 59.1399 228.39 59.5043 226.102 59.5043C223.349 59.5043 221.189 58.694 219.616 57.0754C218.048 55.4568 217.261 53.2832 217.261 50.5564C217.261 47.8797 217.992 45.6506 219.455 43.8728C220.987 41.9749 223.057 41.0259 225.662 41.0259C228.22 41.0259 230.157 41.9749 231.472 43.8728C232.514 45.3805 233.037 47.2452 233.037 49.4595ZM229.276 48.4365C229.302 47.2674 229.045 46.2573 228.511 45.4045C227.828 44.3076 226.779 43.76 225.368 43.76C224.078 43.76 223.029 44.2946 222.228 45.3675C221.572 46.2203 221.181 47.2433 221.061 48.4346H229.276V48.4365Z" fill="white"/>
<path d="M99.6556 28.5419H97.6041V25.4818H89.4067V28.5419H87.3211L87.2527 23.7551H88.2528C88.7486 23.2765 89.1446 22.5812 89.4409 21.6695C89.7373 20.752 89.9282 19.7148 90.0136 18.558L90.3385 13.0361H98.1854V23.7551H99.7667L99.6556 28.5419ZM90.6975 23.7551H96.0313V14.7799H92.3985L92.1933 18.2845C92.0395 20.6266 91.5409 22.4502 90.6975 23.7551Z" fill="white"/>
<path d="M101.676 20.7719C101.676 19.8659 101.856 19.051 102.215 18.3272C102.574 17.5978 103.078 17.0394 103.728 16.6519C104.377 16.2587 105.124 16.0621 105.967 16.0621C107.215 16.0621 108.227 16.4638 109.002 17.2673C109.783 18.0708 110.204 19.1364 110.267 20.4642L110.275 20.9514C110.275 21.8632 110.099 22.6781 109.745 23.3961C109.398 24.1141 108.896 24.6698 108.241 25.063C107.591 25.4562 106.839 25.6528 105.984 25.6528C104.679 25.6528 103.634 25.2197 102.847 24.3535C102.067 23.4816 101.676 22.3219 101.676 20.8745V20.7719ZM103.753 20.9514C103.753 21.9031 103.95 22.6496 104.343 23.191C104.736 23.7266 105.284 23.9945 105.984 23.9945C106.685 23.9945 107.23 23.7209 107.617 23.1739C108.01 22.6268 108.207 21.8262 108.207 20.7719C108.207 19.8374 108.005 19.0966 107.6 18.5495C107.201 18.0024 106.657 17.7289 105.967 17.7289C105.289 17.7289 104.751 17.9996 104.352 18.5409C103.953 19.0766 103.753 19.8801 103.753 20.9514Z" fill="white"/>
<path d="M116.707 23.9945C117.225 23.9945 117.656 23.8435 117.998 23.5414C118.339 23.2394 118.522 22.8662 118.545 22.4217H120.502C120.479 22.9972 120.3 23.5357 119.964 24.0372C119.627 24.533 119.171 24.9262 118.596 25.2168C118.02 25.5074 117.399 25.6528 116.732 25.6528C115.439 25.6528 114.413 25.2339 113.655 24.3962C112.897 23.5585 112.518 22.4017 112.518 20.9258V20.7121C112.518 19.3046 112.895 18.1791 113.647 17.3357C114.399 16.4866 115.425 16.0621 116.724 16.0621C117.824 16.0621 118.718 16.384 119.408 17.028C120.103 17.6662 120.468 18.5068 120.502 19.5496H118.545C118.522 19.0196 118.339 18.5837 117.998 18.2418C117.661 17.8999 117.231 17.7289 116.707 17.7289C116.034 17.7289 115.516 17.9739 115.151 18.464C114.786 18.9484 114.601 19.6864 114.596 20.6779V21.0113C114.596 22.0142 114.775 22.7636 115.134 23.2594C115.499 23.7494 116.023 23.9945 116.707 23.9945Z" fill="white"/>
<path d="M130.224 17.8828H127.224V25.4818H125.147V17.8828H122.181V16.233H130.224V17.8828Z" fill="white"/>
<path d="M135.827 22.5071L137.707 16.233H139.921L136.246 26.8836C135.681 28.4394 134.724 29.2172 133.373 29.2172C133.071 29.2172 132.738 29.1659 132.373 29.0633V27.4563L132.767 27.482C133.291 27.482 133.684 27.3851 133.946 27.1914C134.214 27.0033 134.425 26.6842 134.579 26.234L134.878 25.4391L131.63 16.233H133.869L135.827 22.5071Z" fill="white"/>
<path d="M149.84 25.4818H147.763V17.9084H144.156V25.4818H142.079V16.233H149.84V25.4818Z" fill="white"/>
<path d="M160.759 25.4818H158.682V21.7464H155.083V25.4818H153.006V16.233H155.083V20.0881H158.682V16.233H160.759V25.4818Z" fill="white"/>
<path d="M163.464 20.7719C163.464 19.8659 163.643 19.051 164.002 18.3272C164.361 17.5978 164.865 17.0394 165.515 16.6519C166.165 16.2587 166.911 16.0621 167.755 16.0621C169.003 16.0621 170.014 16.4638 170.789 17.2673C171.57 18.0708 171.991 19.1364 172.054 20.4642L172.063 20.9514C172.063 21.8632 171.886 22.6781 171.533 23.3961C171.185 24.1141 170.684 24.6698 170.028 25.063C169.379 25.4562 168.626 25.6528 167.772 25.6528C166.467 25.6528 165.421 25.2197 164.635 24.3535C163.854 23.4816 163.464 22.3219 163.464 20.8745V20.7719ZM165.541 20.9514C165.541 21.9031 165.737 22.6496 166.13 23.191C166.524 23.7266 167.071 23.9945 167.772 23.9945C168.473 23.9945 169.017 23.7209 169.404 23.1739C169.798 22.6268 169.994 21.8262 169.994 20.7719C169.994 19.8374 169.792 19.0966 169.387 18.5495C168.988 18.0024 168.444 17.7289 167.755 17.7289C167.076 17.7289 166.538 17.9996 166.139 18.5409C165.74 19.0766 165.541 19.8801 165.541 20.9514Z" fill="white"/>
<path d="M180.087 25.4818V16.233H183.84C185.105 16.233 186.068 16.4553 186.729 16.8998C187.39 17.3385 187.721 17.9711 187.721 18.7974C187.721 19.2248 187.587 19.6094 187.319 19.9513C187.057 20.2876 186.666 20.5468 186.148 20.7292C186.752 20.8546 187.231 21.1081 187.584 21.49C187.937 21.8718 188.114 22.3219 188.114 22.8405C188.114 23.701 187.795 24.3563 187.156 24.8065C186.524 25.2567 185.612 25.4818 184.421 25.4818H180.087ZM182.165 21.5412V23.8406H184.438C185.504 23.8406 186.037 23.4588 186.037 22.6952C186.037 21.9259 185.495 21.5412 184.413 21.5412H182.165ZM182.165 20.0539H183.874C185.054 20.0539 185.644 19.7063 185.644 19.0111C185.644 18.2817 185.085 17.9056 183.968 17.8828H182.165V20.0539Z" fill="white"/>
</g>
<defs>
<clipPath id="clip0">
<rect width="262.103" height="77.6601" fill="white" transform="translate(0.448608 0.00109863)"/>
</clipPath>
</defs>
</svg>
