<svg width="25" height="23" viewBox="0 0 25 23" fill="none" xmlns="http://www.w3.org/2000/svg">
<path d="M17.9217 0.622192C15.8208 0.622192 13.8045 1.60018 12.4884 3.14564C11.1724 1.60018 9.15605 0.622192 7.05519 0.622192C3.33643 0.622192 0.414551 3.54407 0.414551 7.26283C0.414551 11.8268 4.51968 15.5455 10.7377 21.1961L12.4884 22.7778L14.2392 21.184C20.4572 15.5455 24.5623 11.8268 24.5623 7.26283C24.5623 3.54407 21.6405 0.622192 17.9217 0.622192ZM12.6092 19.3971L12.4884 19.5178L12.3677 19.3971C6.62053 14.1932 2.82933 10.7522 2.82933 7.26283C2.82933 4.84806 4.64041 3.03697 7.05519 3.03697C8.91457 3.03697 10.7257 4.23229 11.3656 5.88641H13.6234C14.2512 4.23229 16.0623 3.03697 17.9217 3.03697C20.3365 3.03697 22.1476 4.84806 22.1476 7.26283C22.1476 10.7522 18.3564 14.1932 12.6092 19.3971Z" fill="#B2B3B3"/>
</svg>
