<svg width="70" height="70" viewBox="0 0 70 70" fill="none" xmlns="http://www.w3.org/2000/svg">
<rect x="0.912476" y="0.56665" width="69" height="69" rx="6.27273" fill="white"/>
<circle cx="35.4125" cy="35.0667" r="34.5" fill="white"/>
<path d="M46.7644 21.267H25.7857C23.4172 21.267 21.6125 23.0716 21.6125 25.4401V46.4188C21.6125 48.7874 23.4172 50.592 25.7857 50.592H46.7644C49.1329 50.592 50.9375 48.7874 50.9375 46.4188V25.4401C50.9375 23.0716 49.1329 21.267 46.7644 21.267ZM36.275 44.727C41.125 44.727 45.0726 40.8922 45.0726 36.2678C45.0726 35.4783 44.9598 34.576 44.7342 33.8993H47.2155V45.8549C47.2155 46.4188 46.7644 46.9827 46.0876 46.9827H26.4625C25.8985 46.9827 25.3346 46.5316 25.3346 45.8549V33.7865H27.9287C27.7031 34.576 27.5903 35.3655 27.5903 36.155C27.4776 40.8922 31.4251 44.727 36.275 44.727ZM36.275 41.3433C33.117 41.3433 30.6356 38.862 30.6356 35.8167C30.6356 32.7714 33.117 30.29 36.275 30.29C39.4331 30.29 41.9145 32.7714 41.9145 35.8167C41.9145 38.9748 39.4331 41.3433 36.275 41.3433ZM47.1027 29.2749C47.1027 29.9517 46.5388 30.5156 45.8621 30.5156H42.704C42.0273 30.5156 41.4633 29.9517 41.4633 29.2749V26.2297C41.4633 25.5529 42.0273 24.989 42.704 24.989H45.8621C46.5388 24.989 47.1027 25.5529 47.1027 26.2297V29.2749Z" fill="#21A73F"/>
</svg>
