<svg width="70" height="70" viewBox="0 0 70 70" fill="none" xmlns="http://www.w3.org/2000/svg">
<rect x="2.13068" y="2.13483" width="65.8636" height="65.8636" rx="4.70455" fill="white"/>
<path d="M51.9783 43.8904C51.9783 43.7472 51.8351 43.7472 51.8351 43.6039C51.2622 42.4582 49.9733 41.0261 48.2547 39.4507C47.3954 38.7347 46.9658 38.1618 46.6794 37.8754C46.2497 37.3025 46.2497 36.8729 46.393 36.3C46.5362 35.8704 47.109 35.1543 48.1115 33.8653C48.6844 33.1493 48.9708 32.7196 49.4004 32.29C51.5486 29.4257 52.5511 27.5639 52.2647 26.7046L52.1215 26.5614C51.9783 26.4182 51.8351 26.275 51.5486 26.275C51.2622 26.1318 50.8326 26.1318 50.4029 26.275H44.9608C44.8176 26.275 44.8176 26.275 44.5311 26.275C44.3879 26.275 44.2447 26.275 44.2447 26.275H44.1015H43.9583L43.8151 26.4182C43.6718 26.5614 43.6718 26.5614 43.6718 26.7046C43.099 28.28 42.3829 29.5689 41.6668 31.0011C41.2372 31.7171 40.8076 32.4332 40.3779 33.0061C39.9483 33.5789 39.6618 34.0086 39.3754 34.295C39.089 34.5814 38.8025 34.7246 38.6593 35.0111C38.5161 35.1543 38.2297 35.2975 38.2297 35.1543C38.0865 35.1543 37.9433 35.1543 37.9433 35.0111C37.8 34.8679 37.6568 34.7246 37.5136 34.5814C37.3704 34.4382 37.3704 34.1518 37.2272 33.8653C37.2272 33.5789 37.2272 33.2925 37.2272 33.1493C37.2272 33.0061 37.2272 32.5764 37.2272 32.29C37.2272 31.8604 37.2272 31.5739 37.2272 31.4307C37.2272 31.0011 37.2272 30.4282 37.2272 29.8554C37.2272 29.2825 37.2272 28.8528 37.2272 28.5664C37.2272 28.28 37.2272 27.8503 37.2272 27.5639C37.2272 27.1343 37.2272 26.8478 37.2272 26.7046C37.2272 26.5614 37.084 26.275 37.084 26.1318C36.9408 25.9886 36.7975 25.8453 36.6543 25.7021C36.5111 25.5589 36.2247 25.5589 36.0815 25.4157C35.3654 25.2725 34.5061 25.1293 33.5036 25.1293C31.2122 25.1293 29.6368 25.2725 29.064 25.5589C28.7776 25.7021 28.4911 25.8453 28.3479 26.1318C28.0615 26.4182 28.0615 26.5614 28.2047 26.5614C28.9208 26.7046 29.4936 26.991 29.7801 27.4207L29.9233 27.7071C30.0665 27.8504 30.0665 28.1368 30.2097 28.5664C30.3529 28.9961 30.3529 29.4257 30.3529 29.9986C30.3529 30.8578 30.3529 31.7171 30.3529 32.29C30.3529 33.0061 30.2097 33.4357 30.2097 33.8653C30.2097 34.295 30.0665 34.5814 29.9233 34.7246C29.7801 35.0111 29.78 35.1543 29.6368 35.1543C29.6368 35.1543 29.6368 35.2975 29.4936 35.2975C29.3504 35.2975 29.2072 35.4407 28.9208 35.4407C28.7775 35.4407 28.4911 35.2975 28.3479 35.1543C28.0615 35.0111 27.775 34.7246 27.6318 34.4382C27.3454 34.1518 27.059 33.7221 26.7725 33.1493C26.4861 32.5764 26.0564 32.0036 25.77 31.1443L25.4836 30.5714C25.3404 30.285 25.054 29.7121 24.7675 28.9961C24.4811 28.28 24.1947 27.7071 23.9082 26.9911C23.765 26.7046 23.6218 26.5614 23.4786 26.4182H23.3354C23.3354 26.4182 23.1922 26.275 23.049 26.275C22.9057 26.275 22.7625 26.1318 22.6193 26.1318H17.4636C16.8907 26.1318 16.6043 26.275 16.4611 26.4182L16.3179 26.5614C16.3179 26.5614 16.3179 26.7046 16.3179 26.8478C16.3179 26.9911 16.3179 27.1343 16.4611 27.4207C17.1772 29.1393 18.0365 30.8579 18.8957 32.5764C19.755 34.1518 20.6143 35.5839 21.1872 36.5864C21.9033 37.5889 22.4761 38.5914 23.1922 39.4507C23.9082 40.31 24.3379 40.8829 24.4811 41.1693C24.7675 41.4557 24.9107 41.5989 25.0539 41.7421L25.4836 42.1718C25.77 42.4582 26.1997 42.8879 26.7725 43.3175C27.3454 43.7472 28.0615 44.1768 28.7775 44.6064C29.4936 45.0361 30.3529 45.3225 31.2122 45.609C32.2147 45.8954 33.074 46.0386 33.9333 45.8954H36.0815C36.5111 45.8954 36.7976 45.7522 37.084 45.4657L37.2272 45.3225C37.2272 45.1793 37.3704 45.1793 37.3704 45.0361C37.3704 44.8929 37.3704 44.7497 37.3704 44.4632C37.3704 43.8904 37.3704 43.4607 37.5136 43.0311C37.6568 42.6014 37.6569 42.315 37.8001 42.0286C37.9433 41.7422 38.0865 41.5989 38.2297 41.4557C38.3729 41.3125 38.5161 41.1693 38.5161 41.1693H38.6593C38.9458 41.0261 39.3754 41.1693 39.6618 41.4557C40.0915 41.7422 40.5211 42.1718 40.8075 42.6014C41.094 43.0311 41.5237 43.4607 42.0965 44.0336C42.6694 44.6064 43.099 45.0361 43.3854 45.1793L43.8151 45.4657C44.1015 45.6089 44.3879 45.7522 44.8176 45.8954C45.2472 46.0386 45.5336 46.0386 45.8201 46.0386L50.6894 45.8954C51.119 45.8954 51.5487 45.7522 51.8351 45.609C52.1215 45.4657 52.2647 45.3225 52.2647 45.0361C52.2647 44.8929 52.2647 44.6065 52.2647 44.4632C51.9783 44.1768 51.9783 44.0336 51.9783 43.8904Z" fill="#21A73F"/>
<rect x="2.13068" y="2.13483" width="65.8636" height="65.8636" rx="4.70455" stroke="white" stroke-width="3.13636"/>
</svg>
