<svg width="92" height="93" viewBox="0 0 92 93" fill="none" xmlns="http://www.w3.org/2000/svg">
<g clip-path="url(#clip0)">
<path d="M89.1279 6.23535H59.4215L56.9161 12.8567H35.6205L32.5783 6.23535H2.87182C1.38936 6.23535 0.1875 7.43721 0.1875 8.91967V84.0806C0.1875 85.563 1.38936 86.7649 2.87182 86.7649H89.1279C90.6104 86.7649 91.8122 85.563 91.8122 84.0806V8.91967C91.8122 7.43721 90.6104 6.23535 89.1279 6.23535Z" fill="url(#paint0_linear)"/>
<path d="M33.8515 32.6777C34.6429 33.1667 35.6311 33.2113 36.4632 32.7952L46.0001 28.0268L55.5369 32.7952C56.3706 33.2122 57.3588 33.1659 58.1486 32.6777C58.9399 32.1886 59.4216 31.3246 59.4216 30.3942V6.23535H32.5785V30.3942C32.5785 31.3246 33.0602 32.1886 33.8515 32.6777ZM56.7373 43.8158C55.2549 43.8158 54.053 45.0177 54.053 46.5001C54.053 47.9826 55.2549 49.1844 56.7373 49.1844C61.1777 49.1844 64.7903 52.797 64.7903 57.2374C64.7903 61.6778 61.1777 65.2903 56.7373 65.2903H35.2628C30.8224 65.2903 27.2098 61.6778 27.2098 57.2374C27.2098 52.797 30.8224 49.1844 35.2628 49.1844H39.5196L38.7332 49.9708C37.6849 51.0191 37.6849 52.7186 38.7332 53.7669C39.7814 54.8151 41.4811 54.8152 42.5294 53.7669L47.898 48.3983C48.9464 47.35 48.9464 45.6504 47.898 44.6021L42.5294 39.2335C41.4813 38.1852 39.7816 38.1852 38.7332 39.2335C37.6849 40.2818 37.6849 41.9813 38.7332 43.0296L39.5196 43.816H35.2628C27.8621 43.816 21.8412 49.8369 21.8412 57.2376C21.8412 64.6382 27.8621 70.6591 35.2628 70.6591H56.7373C64.138 70.6591 70.1589 64.6382 70.1589 57.2376C70.1589 49.8369 64.138 43.8158 56.7373 43.8158Z" fill="#F2F3F5"/>
</g>
<defs>
<linearGradient id="paint0_linear" x1="45.9999" y1="86.7649" x2="45.9999" y2="6.23535" gradientUnits="userSpaceOnUse">
<stop stop-color="#21A73F"/>
<stop offset="1" stop-color="#60CA63"/>
</linearGradient>
<clipPath id="clip0">
<rect width="91.6247" height="91.6247" fill="white" transform="translate(0.1875 0.6875)"/>
</clipPath>
</defs>
</svg>
