<svg width="91" height="91" viewBox="0 0 91 91" fill="none" xmlns="http://www.w3.org/2000/svg">
<g clip-path="url(#clip0)">
<path d="M87.9092 5.45517H58.6979L56.2343 11.9661H35.2936L32.3021 5.45517H3.09075C1.633 5.45517 0.451172 6.637 0.451172 8.09475V82.003C0.451172 83.4607 1.633 84.6426 3.09075 84.6426H87.9092C89.367 84.6426 90.5488 83.4607 90.5488 82.003V8.09475C90.5488 6.637 89.367 5.45517 87.9092 5.45517Z" fill="url(#paint0_linear)"/>
<path d="M33.5541 31.4569C34.3322 31.9378 35.3039 31.9816 36.1222 31.5725L45.5001 26.8835L54.878 31.5725C55.6979 31.9825 56.6696 31.9369 57.4461 31.4569C58.2243 30.9759 58.698 30.1264 58.698 29.2115V5.45526H32.3022V29.2115C32.3022 30.1264 32.7759 30.9759 33.5541 31.4569ZM56.0584 42.4094C54.6007 42.4094 53.4188 43.5912 53.4188 45.049C53.4188 46.5067 54.6007 47.6885 56.0584 47.6885C60.4248 47.6885 63.9772 51.2409 63.9772 55.6073C63.9772 59.9737 60.4248 63.526 56.0584 63.526H34.9418C30.5754 63.526 27.0231 59.9737 27.0231 55.6073C27.0231 51.2409 30.5754 47.6885 34.9418 47.6885H39.1276L38.3544 48.4618C37.3236 49.4926 37.3236 51.1638 38.3544 52.1946C39.3851 53.2253 41.0565 53.2255 42.0873 52.1946L47.3665 46.9155C48.3973 45.8846 48.3973 44.2134 47.3665 43.1826L42.0873 37.9034C41.0566 36.8726 39.3853 36.8726 38.3544 37.9034C37.3236 38.9343 37.3236 40.6055 38.3544 41.6363L39.1276 42.4095H34.9418C27.6645 42.4095 21.7439 48.3301 21.7439 55.6074C21.7439 62.8848 27.6645 68.8053 34.9418 68.8053H56.0584C63.3357 68.8053 69.2563 62.8848 69.2563 55.6074C69.2563 48.3301 63.3357 42.4094 56.0584 42.4094Z" fill="#F2F3F5"/>
</g>
<defs>
<linearGradient id="paint0_linear" x1="45.5" y1="84.6426" x2="45.5" y2="5.45517" gradientUnits="userSpaceOnUse">
<stop stop-color="#21A73F"/>
<stop offset="1" stop-color="#60CA63"/>
</linearGradient>
<clipPath id="clip0">
<rect width="90.0976" height="90.0976" fill="white" transform="translate(0.451172)"/>
</clipPath>
</defs>
</svg>
