<svg width="89" height="89" viewBox="0 0 89 89" fill="none" xmlns="http://www.w3.org/2000/svg">
<g clip-path="url(#clip0)" filter="url(#filter0_d)">
<path d="M84.4775 25.5114C84.0348 24.9221 83.3406 24.5753 82.6036 24.5753H65.8447C64.7255 17.933 58.9342 12.8566 51.9786 12.8566C45.023 12.8566 39.2317 17.933 38.1125 24.5753H23.5445L20.482 2.99611C20.3181 1.84049 19.3289 0.981583 18.1615 0.981583H7.29108C5.9967 0.981583 4.94733 2.03096 4.94733 3.32533C4.94733 4.61971 5.9967 5.66908 7.29108 5.66908H16.127L19.1894 27.2478V27.248V27.2485L22.7273 52.1702C23.1112 54.8572 24.418 57.323 26.4145 59.1521C24.8514 60.4427 23.8536 62.3947 23.8536 64.5753C23.8536 67.8133 26.0544 70.5455 29.0381 71.3588C28.7186 72.1614 28.5411 73.0353 28.5411 73.9503C28.5411 77.8274 31.6953 80.9816 35.5723 80.9816C39.4494 80.9816 42.6036 77.8274 42.6036 73.9503C42.6036 73.1288 42.4606 72.3402 42.2005 71.6066H61.7567C61.4965 72.3402 61.3536 73.1288 61.3536 73.9503C61.3536 77.8274 64.5078 80.9816 68.3848 80.9816C72.2619 80.9816 75.4161 77.8274 75.4161 73.9503C75.4161 70.0733 72.2619 66.9191 68.3848 66.9191H30.8848C29.5925 66.9191 28.5411 65.8677 28.5411 64.5753C28.5411 63.283 29.5925 62.2316 30.8848 62.2316H66.0008C71.2053 62.2316 75.8387 58.7366 77.2661 53.7411L84.8547 27.5719C85.0598 26.8639 84.9201 26.1006 84.4775 25.5114Z" fill="url(#paint0_linear)"/>
<path d="M51.9786 10.5134C42.9322 10.5134 35.5724 17.8733 35.5724 26.9197C35.5724 35.9661 42.9322 43.3259 51.9786 43.3259C61.025 43.3259 68.3849 35.9661 68.3849 26.9197C68.3849 17.8733 61.025 10.5134 51.9786 10.5134ZM58.3233 26.2333L51.2921 33.2645C50.8346 33.7222 50.2347 33.9509 49.6349 33.9509C49.035 33.9509 48.4352 33.7222 47.9777 33.2644L45.634 30.9206C44.7186 30.0053 44.7186 28.5214 45.634 27.6061C46.5491 26.6908 48.0332 26.6908 48.9485 27.6061L49.635 28.2925L55.0091 22.9186C55.9243 22.0033 57.4083 22.0033 58.3236 22.9186C59.2388 23.834 59.2388 25.3179 58.3233 26.2333Z" fill="#F2F3F5"/>
</g>
<defs>
<filter id="filter0_d" x="0.947327" y="0.981583" width="88" height="88" filterUnits="userSpaceOnUse" color-interpolation-filters="sRGB">
<feFlood flood-opacity="0" result="BackgroundImageFix"/>
<feColorMatrix in="SourceAlpha" type="matrix" values="0 0 0 0 0 0 0 0 0 0 0 0 0 0 0 0 0 0 127 0"/>
<feOffset dy="4"/>
<feGaussianBlur stdDeviation="2"/>
<feColorMatrix type="matrix" values="0 0 0 0 0 0 0 0 0 0 0 0 0 0 0 0 0 0 0.25 0"/>
<feBlend mode="normal" in2="BackgroundImageFix" result="effect1_dropShadow"/>
<feBlend mode="normal" in="SourceGraphic" in2="effect1_dropShadow" result="shape"/>
</filter>
<linearGradient id="paint0_linear" x1="44.9473" y1="80.9816" x2="44.9473" y2="0.981583" gradientUnits="userSpaceOnUse">
<stop stop-color="#21A73F"/>
<stop offset="0.0001" stop-color="#21A73F"/>
<stop offset="1" stop-color="#67CE67"/>
</linearGradient>
<clipPath id="clip0">
<rect width="80" height="80" fill="white" transform="translate(4.94733 0.981583)"/>
</clipPath>
</defs>
</svg>
