<svg width="16" height="16" viewBox="0 0 16 16" fill="none" xmlns="http://www.w3.org/2000/svg">
<path d="M5.99518 8.42821C5.99518 7.55724 6.70104 6.851 7.57201 6.851C8.44298 6.851 9.14922 7.55724 9.14922 8.42821C9.14922 9.29918 8.44298 10.0054 7.57201 10.0054C6.70104 10.0054 5.99518 9.29918 5.99518 8.42821ZM5.14257 8.42821C5.14257 9.76999 6.23023 10.8577 7.57201 10.8577C8.91379 10.8577 10.0014 9.76999 10.0014 8.42821C10.0014 7.08643 8.91379 5.99877 7.57201 5.99877C6.23023 5.99877 5.14257 7.08643 5.14257 8.42821ZM9.52988 5.90244C9.52983 6.01473 9.56308 6.12451 9.62543 6.21791C9.68778 6.3113 9.77642 6.3841 9.88015 6.42711C9.98387 6.47013 10.098 6.48142 10.2082 6.45955C10.3183 6.43769 10.4195 6.38366 10.4989 6.30429C10.5784 6.22492 10.6325 6.12378 10.6544 6.01365C10.6764 5.90353 10.6652 5.78937 10.6222 5.68561C10.5793 5.58185 10.5066 5.49315 10.4132 5.43073C10.3199 5.36831 10.2101 5.33496 10.0979 5.33492H10.0976C9.94711 5.33499 9.80277 5.3948 9.69632 5.50121C9.58987 5.60762 9.53001 5.75193 9.52988 5.90244ZM5.66058 12.2793C5.19931 12.2583 4.94859 12.1815 4.78197 12.1166C4.56108 12.0306 4.40347 11.9282 4.23776 11.7627C4.07206 11.5972 3.96948 11.4397 3.88387 11.2189C3.81892 11.0523 3.74208 10.8015 3.72111 10.3402C3.69818 9.84153 3.6936 9.69172 3.6936 8.42825C3.6936 7.16478 3.69855 7.01538 3.72111 6.51626C3.74212 6.05498 3.81952 5.80468 3.88387 5.63764C3.96986 5.41675 4.07228 5.25914 4.23776 5.09344C4.40324 4.92773 4.5607 4.82516 4.78197 4.73954C4.94851 4.67459 5.19931 4.59775 5.66058 4.57678C6.1593 4.55385 6.30911 4.54927 7.57201 4.54927C8.83491 4.54927 8.98487 4.55423 9.484 4.57678C9.94528 4.59779 10.1956 4.67519 10.3626 4.73954C10.5835 4.82516 10.7411 4.92796 10.9068 5.09344C11.0725 5.25892 11.1747 5.41675 11.2607 5.63764C11.3257 5.80418 11.4025 6.05498 11.4235 6.51626C11.4464 7.01538 11.451 7.16478 11.451 8.42825C11.451 9.69172 11.4464 9.84111 11.4235 10.3402C11.4025 10.8015 11.3253 11.0522 11.2607 11.2189C11.1747 11.4397 11.0723 11.5974 10.9068 11.7627C10.7413 11.928 10.5835 12.0306 10.3626 12.1166C10.1961 12.1815 9.94528 12.2584 9.484 12.2793C8.98529 12.3023 8.83548 12.3069 7.57201 12.3069C6.30854 12.3069 6.15914 12.3023 5.66058 12.2793ZM5.62141 3.72561C5.11774 3.74855 4.77357 3.82841 4.473 3.94537C4.16172 4.06615 3.89821 4.22819 3.63489 4.49109C3.37157 4.754 3.20995 5.01793 3.08917 5.3292C2.97221 5.62996 2.89235 5.97394 2.86941 6.47761C2.8461 6.98208 2.84076 7.14335 2.84076 8.42821C2.84076 9.71307 2.8461 9.87435 2.86941 10.3788C2.89235 10.8825 2.97221 11.2265 3.08917 11.5272C3.20995 11.8383 3.37161 12.1025 3.63489 12.3653C3.89817 12.6281 4.16172 12.7899 4.473 12.9111C4.77414 13.028 5.11774 13.1079 5.62141 13.1308C6.12614 13.1537 6.28715 13.1595 7.57201 13.1595C8.85686 13.1595 9.01814 13.1541 9.52261 13.1308C10.0263 13.1079 10.3703 13.028 10.671 12.9111C10.9821 12.7899 11.2458 12.6282 11.5091 12.3653C11.7724 12.1024 11.9337 11.8383 12.0548 11.5272C12.1718 11.2265 12.252 10.8825 12.2746 10.3788C12.2975 9.87397 12.3029 9.71307 12.3029 8.42821C12.3029 7.14335 12.2975 6.98208 12.2746 6.47761C12.2517 5.9739 12.1718 5.62977 12.0548 5.3292C11.9337 5.01811 11.772 4.75441 11.5091 4.49109C11.2462 4.22777 10.9821 4.06615 10.6714 3.94537C10.3703 3.82841 10.0263 3.74817 9.52299 3.72561C9.01852 3.70268 8.85724 3.69696 7.57239 3.69696C6.28753 3.69696 6.12614 3.7023 5.62141 3.72561Z" fill="#2E2E2E"/>
<path d="M2.00201 1.35803H13.142V0.358032H2.00201V1.35803ZM14.642 2.85803V13.998H15.642V2.85803H14.642ZM13.142 15.498H2.00201V16.498H13.142V15.498ZM0.502014 13.998V2.85803H-0.497986V13.998H0.502014ZM2.00201 15.498C1.17359 15.498 0.502014 14.8265 0.502014 13.998H-0.497986C-0.497986 15.3787 0.6213 16.498 2.00201 16.498V15.498ZM14.642 13.998C14.642 14.8265 13.9704 15.498 13.142 15.498V16.498C14.5227 16.498 15.642 15.3787 15.642 13.998H14.642ZM13.142 1.35803C13.9704 1.35803 14.642 2.0296 14.642 2.85803H15.642C15.642 1.47732 14.5227 0.358032 13.142 0.358032V1.35803ZM2.00201 0.358032C0.621303 0.358032 -0.497986 1.47732 -0.497986 2.85803H0.502014C0.502014 2.0296 1.17359 1.35803 2.00201 1.35803V0.358032Z" fill="#2E2E2E"/>
</svg>
