<svg width="121" height="36" viewBox="0 0 121 36" fill="none" xmlns="http://www.w3.org/2000/svg">
<g clip-path="url(#clip0)">
<path d="M96.7005 0L91.5455 20.2747V23.1518H103.012L103.749 18.4884H108.798L109.481 23.1518H121V20.2747L115.845 0H96.699H96.7005ZM14.9932 23.1518H24.6186L27.459 12.0388H28.4058V23.1518H39.6087V20.2747L35.8739 0H22.9871L20.1991 9.12902H19.4096L16.6216 0H3.78724L0 20.2747V23.1518H11.2569V12.0388H12.1512L14.9917 23.1518H14.9932ZM67.3809 23.1518V17.3635H54.2319V14.1892H65.5397V8.40086H54.2319V5.82101H65.5397L67.3809 2.87708V0H42.7653V23.1518H67.3809ZM70.5374 0H93.5754L91.8751 5.7883H82.004V23.1518H70.5374V0V0ZM104.591 12.7015L105.643 5.82243H106.906L107.957 12.7015H104.591Z" fill="#21A73F"/>
<path d="M-0.0254577 31.1772V24.8552H5.0436V31.1772H3.97093V25.7475H1.04721V31.1772H-0.0254577ZM8.50781 31.2912C7.78004 31.2912 7.21365 31.0665 6.80863 30.6172C6.40994 30.1679 6.2106 29.5793 6.2106 28.8516C6.2106 28.1554 6.41311 27.5859 6.81812 27.1429C7.22947 26.6936 7.75156 26.4689 8.38441 26.4689C8.99826 26.4689 9.46973 26.6619 9.7988 27.048C10.1342 27.4277 10.3019 27.9561 10.3019 28.6332C10.3019 28.7218 10.2956 28.8547 10.2829 29.0319H7.28326C7.30858 29.4749 7.42565 29.8325 7.63449 30.1046C7.84333 30.3704 8.15975 30.5033 8.58375 30.5033C8.95713 30.5033 9.36531 30.383 9.8083 30.1426L10.1595 30.8355C9.65958 31.1393 9.10901 31.2912 8.50781 31.2912ZM7.29275 28.3105H9.30519C9.27988 27.5954 8.96662 27.2378 8.36542 27.2378C7.77688 27.2378 7.41932 27.5954 7.29275 28.3105ZM11.4112 33.2561V26.5828H12.4079V27.0669C12.7433 26.6683 13.1768 26.4689 13.7084 26.4689C14.2843 26.4689 14.7368 26.6809 15.0659 27.1049C15.4013 27.5226 15.569 28.1111 15.569 28.8705C15.569 29.592 15.3791 30.1774 14.9994 30.6267C14.6197 31.0697 14.1293 31.2912 13.5281 31.2912C13.0787 31.2912 12.7085 31.1709 12.4174 30.9304V33.2561H11.4112ZM13.3477 30.4843C13.7148 30.4843 13.9964 30.3387 14.1925 30.0476C14.3951 29.7565 14.4963 29.3673 14.4963 28.88C14.4963 28.3927 14.4046 28.0099 14.221 27.7314C14.0438 27.4466 13.778 27.3043 13.4236 27.3043C13.025 27.3043 12.6896 27.4878 12.4174 27.8548V30.1236C12.6832 30.364 12.9933 30.4843 13.3477 30.4843ZM18.5288 31.2912C17.8011 31.2912 17.2347 31.0665 16.8296 30.6172C16.431 30.1679 16.2316 29.5793 16.2316 28.8516C16.2316 28.1554 16.4341 27.5859 16.8391 27.1429C17.2505 26.6936 17.7726 26.4689 18.4054 26.4689C19.0193 26.4689 19.4907 26.6619 19.8198 27.048C20.1552 27.4277 20.3229 27.9561 20.3229 28.6332C20.3229 28.7218 20.3166 28.8547 20.3039 29.0319H17.3043C17.3296 29.4749 17.4467 29.8325 17.6555 30.1046C17.8643 30.3704 18.1808 30.5033 18.6048 30.5033C18.9781 30.5033 19.3863 30.383 19.8293 30.1426L20.1805 30.8355C19.6806 31.1393 19.13 31.2912 18.5288 31.2912ZM17.3138 28.3105H19.3262C19.3009 27.5954 18.9876 27.2378 18.3864 27.2378C17.7979 27.2378 17.4403 27.5954 17.3138 28.3105ZM21.0715 31.1772L21.736 26.5828H22.7137L23.682 29.4211L23.9288 30.209H23.9478C24.03 29.9052 24.1123 29.6426 24.1946 29.4211L25.1913 26.5828H26.1785L26.824 31.1772H25.7893L25.4856 28.8041L25.4191 28.1301H25.4001C25.3369 28.3453 25.2704 28.5636 25.2008 28.7851L24.3844 31.1772H23.4067L22.5808 28.7851L22.391 28.1301H22.372C22.3593 28.3706 22.3404 28.5953 22.315 28.8041L21.9923 31.1772H21.0715ZM29.8198 31.2912C29.0921 31.2912 28.5257 31.0665 28.1207 30.6172C27.722 30.1679 27.5226 29.5793 27.5226 28.8516C27.5226 28.1554 27.7251 27.5859 28.1302 27.1429C28.5415 26.6936 29.0636 26.4689 29.6964 26.4689C30.3103 26.4689 30.7818 26.6619 31.1108 27.048C31.4462 27.4277 31.6139 27.9561 31.6139 28.6332C31.6139 28.7218 31.6076 28.8547 31.595 29.0319H28.5953C28.6206 29.4749 28.7377 29.8325 28.9465 30.1046C29.1554 30.3704 29.4718 30.5033 29.8958 30.5033C30.2692 30.5033 30.6773 30.383 31.1203 30.1426L31.4716 30.8355C30.9716 31.1393 30.421 31.2912 29.8198 31.2912ZM28.6048 28.3105H30.6172C30.5919 27.5954 30.2786 27.2378 29.6775 27.2378C29.0889 27.2378 28.7314 27.5954 28.6048 28.3105ZM32.7232 31.1772V26.5828H33.739V28.3864H35.7894V26.5828H36.8051V31.1772H35.7894V29.2028H33.739V31.1772H32.7232ZM42.8232 31.1772V26.5828H43.8389V31.1772H42.8232ZM38.2668 31.1772V26.5828H39.273V28.1966H40.0989C40.6558 28.1966 41.1019 28.32 41.4373 28.5668C41.7727 28.8136 41.9404 29.1775 41.9404 29.6584C41.9404 30.1584 41.7664 30.5381 41.4183 30.7975C41.0766 31.0507 40.5988 31.1772 39.9849 31.1772H38.2668ZM39.273 30.4273H39.9849C40.6178 30.4273 40.9342 30.1774 40.9342 29.6774C40.9342 29.1901 40.6273 28.9465 40.0134 28.9465H39.273V30.4273ZM47.2866 31.1772V26.5828H48.3023V28.3864H50.3527V26.5828H51.3684V31.1772H50.3527V29.2028H48.3023V31.1772H47.2866ZM53.8079 31.2912C53.4155 31.2912 53.0928 31.1772 52.8397 30.9494C52.5865 30.7216 52.4599 30.4115 52.4599 30.0191C52.4599 29.6458 52.5865 29.3325 52.8397 29.0794C53.0928 28.8262 53.3934 28.6522 53.7415 28.5573C54.0958 28.4624 54.485 28.4149 54.909 28.4149H55.0894V28.0827C55.0894 27.8042 55.023 27.6049 54.8901 27.4846C54.7635 27.3581 54.5547 27.2948 54.2635 27.2948C53.8395 27.2948 53.4472 27.4498 53.0865 27.7599L52.6118 27.1144C53.0865 26.6841 53.6718 26.4689 54.368 26.4689C54.9438 26.4689 55.3742 26.5986 55.659 26.8581C55.9501 27.1176 56.0956 27.5289 56.0956 28.0921V29.9622C56.0956 30.4305 56.1336 30.8355 56.2095 31.1772H55.2128C55.1748 31.0127 55.1495 30.8387 55.1369 30.6552C54.8078 31.0792 54.3648 31.2912 53.8079 31.2912ZM54.0737 30.5128C54.4724 30.5128 54.811 30.3419 55.0894 30.0002V29.0794H54.909C53.9471 29.0794 53.4662 29.3736 53.4662 29.9622C53.4662 30.1457 53.5263 30.2849 53.6465 30.3799C53.7668 30.4685 53.9092 30.5128 54.0737 30.5128ZM60.1704 31.1772V29.2218C59.7717 29.728 59.2749 29.9812 58.6801 29.9812C58.2054 29.9812 57.8542 29.8451 57.6264 29.573C57.4049 29.3009 57.2941 28.9433 57.2941 28.5003V26.5828H58.3003V28.301C58.3003 28.8452 58.544 29.1173 59.0313 29.1173C59.2085 29.1173 59.3857 29.0636 59.5629 28.956C59.7464 28.8484 59.8793 28.7503 59.9616 28.6617C60.0438 28.5668 60.1134 28.4813 60.1704 28.4054V26.5828H61.1861V31.1772H60.1704ZM62.638 31.1772V26.5828H63.5492V29.0889C63.5492 29.1585 63.5461 29.2313 63.5398 29.3072C63.5398 29.3768 63.5398 29.4433 63.5398 29.5065C63.5398 29.5635 63.5366 29.6173 63.5303 29.6679C63.5303 29.7185 63.5271 29.7597 63.5208 29.7913V29.8388H63.5303L63.5967 29.7344C63.641 29.6584 63.7043 29.554 63.7866 29.4211C63.8688 29.2819 63.9511 29.1522 64.0334 29.0319L65.7895 26.5828H66.7862V31.1772H65.8654V28.4624C65.8654 28.4054 65.8654 28.3453 65.8654 28.282C65.8718 28.2124 65.8749 28.1523 65.8749 28.1016C65.8749 28.051 65.8749 28.0067 65.8749 27.9687C65.8813 27.9244 65.8876 27.8896 65.8939 27.8643V27.8264H65.8749C65.8749 27.8643 65.7231 28.1048 65.4193 28.5478L63.5303 31.1772H62.638ZM68.2464 31.1772V26.5828H69.2621V28.3864H71.3125V26.5828H72.3282V31.1772H71.3125V29.2028H69.2621V31.1772H68.2464ZM74.7677 31.2912C74.3753 31.2912 74.0526 31.1772 73.7994 30.9494C73.5463 30.7216 73.4197 30.4115 73.4197 30.0191C73.4197 29.6458 73.5463 29.3325 73.7994 29.0794C74.0526 28.8262 74.3532 28.6522 74.7012 28.5573C75.0556 28.4624 75.4448 28.4149 75.8688 28.4149H76.0492V28.0827C76.0492 27.8042 75.9827 27.6049 75.8498 27.4846C75.7233 27.3581 75.5144 27.2948 75.2233 27.2948C74.7993 27.2948 74.4069 27.4498 74.0462 27.7599L73.5716 27.1144C74.0462 26.6841 74.6316 26.4689 75.3277 26.4689C75.9036 26.4689 76.3339 26.5986 76.6187 26.8581C76.9098 27.1176 77.0554 27.5289 77.0554 28.0921V29.9622C77.0554 30.4305 77.0934 30.8355 77.1693 31.1772H76.1726C76.1346 31.0127 76.1093 30.8387 76.0966 30.6552C75.7675 31.0792 75.3246 31.2912 74.7677 31.2912ZM75.0335 30.5128C75.4321 30.5128 75.7707 30.3419 76.0492 30.0002V29.0794H75.8688C74.9069 29.0794 74.4259 29.3736 74.4259 29.9622C74.4259 30.1457 74.486 30.2849 74.6063 30.3799C74.7265 30.4685 74.8689 30.5128 75.0335 30.5128ZM82.8198 31.2912C82.1554 31.2912 81.6364 31.0886 81.2631 30.6836C80.896 30.2723 80.684 29.7787 80.627 29.2028H79.45V31.1772H78.4343V26.5828H79.45V28.3864H80.6555C80.7441 27.8422 80.9656 27.3865 81.32 27.0195C81.6807 26.6524 82.1743 26.4689 82.8009 26.4689C83.535 26.4689 84.095 26.7094 84.4811 27.1903C84.8734 27.6713 85.0696 28.2282 85.0696 28.861C85.0696 29.1522 85.0253 29.4369 84.9367 29.7154C84.8481 29.9938 84.7152 30.2533 84.538 30.4938C84.3671 30.7343 84.133 30.9273 83.8356 31.0728C83.5381 31.2184 83.1995 31.2912 82.8198 31.2912ZM81.956 30.0476C82.1522 30.3451 82.4465 30.4938 82.8388 30.4938C83.2312 30.4938 83.5223 30.3482 83.7121 30.0571C83.902 29.766 83.9969 29.3768 83.9969 28.8895C83.9969 28.4086 83.8925 28.0162 83.6837 27.7124C83.4812 27.4087 83.1837 27.2568 82.7914 27.2568C82.0446 27.2568 81.6712 27.7915 81.6712 28.861C81.6712 29.3483 81.7662 29.7439 81.956 30.0476ZM86.8245 31.1772V27.3802H85.4291V26.5828H89.2452V27.3802H87.8403V31.1772H86.8245ZM91.8542 31.2912C91.1644 31.2912 90.617 31.0633 90.212 30.6077C89.8133 30.152 89.614 29.5762 89.614 28.88C89.614 28.127 89.826 27.5384 90.25 27.1144C90.6803 26.6841 91.2277 26.4689 91.8922 26.4689C92.4364 26.4689 92.9047 26.605 93.2971 26.8771L92.9269 27.589C92.6041 27.3739 92.2656 27.2663 91.9112 27.2663C91.5062 27.2663 91.1992 27.4118 90.9904 27.7029C90.7816 27.9877 90.6771 28.3706 90.6771 28.8516C90.6771 29.3325 90.7816 29.7249 90.9904 30.0286C91.2056 30.3324 91.5188 30.4843 91.9302 30.4843C92.2719 30.4843 92.6231 30.3767 92.9838 30.1615L93.3161 30.8545C92.9554 31.1456 92.4681 31.2912 91.8542 31.2912ZM93.8583 31.1772V30.4083H93.9248C94.0387 30.4083 94.1526 30.3577 94.2665 30.2565C94.3804 30.1489 94.526 29.9622 94.7032 29.6964C94.9247 29.3547 95.1177 29.1553 95.2822 29.0984V29.0889C94.9848 29.0572 94.7253 28.9402 94.5038 28.7376C94.2887 28.5351 94.1811 28.263 94.1811 27.9213C94.1811 27.4846 94.3361 27.1524 94.6462 26.9246C94.9563 26.6967 95.3993 26.5828 95.9752 26.5828H97.7313V31.1772H96.7251V29.2977H96.4498C96.3169 29.2977 96.184 29.3642 96.0511 29.4971C95.9246 29.6236 95.7632 29.8451 95.567 30.1615C95.3076 30.5666 95.0924 30.8387 94.9215 30.9779C94.7507 31.1108 94.5292 31.1772 94.257 31.1772H93.8583ZM95.9942 28.5953H96.7251V27.3422H96.0416C95.7505 27.3422 95.5385 27.3929 95.4056 27.4941C95.2727 27.5954 95.2063 27.7536 95.2063 27.9687C95.2063 28.3864 95.4689 28.5953 95.9942 28.5953ZM103.006 31.2912C102.316 31.2912 101.769 31.0633 101.364 30.6077C100.965 30.152 100.766 29.5762 100.766 28.88C100.766 28.127 100.978 27.5384 101.402 27.1144C101.832 26.6841 102.38 26.4689 103.044 26.4689C103.588 26.4689 104.057 26.605 104.449 26.8771L104.079 27.589C103.756 27.3739 103.418 27.2663 103.063 27.2663C102.658 27.2663 102.351 27.4118 102.142 27.7029C101.934 27.9877 101.829 28.3706 101.829 28.8516C101.829 29.3325 101.934 29.7249 102.142 30.0286C102.358 30.3324 102.671 30.4843 103.082 30.4843C103.424 30.4843 103.775 30.3767 104.136 30.1615L104.468 30.8545C104.107 31.1456 103.62 31.2912 103.006 31.2912ZM107.413 31.1772V26.5828H108.428V28.3864H110.479V26.5828H111.495V31.1772H110.479V29.2028H108.428V31.1772H107.413ZM113.934 31.2912C113.542 31.2912 113.219 31.1772 112.966 30.9494C112.713 30.7216 112.586 30.4115 112.586 30.0191C112.586 29.6458 112.713 29.3325 112.966 29.0794C113.219 28.8262 113.519 28.6522 113.868 28.5573C114.222 28.4624 114.611 28.4149 115.035 28.4149H115.215V28.0827C115.215 27.8042 115.149 27.6049 115.016 27.4846C114.89 27.3581 114.681 27.2948 114.39 27.2948C113.966 27.2948 113.573 27.4498 113.213 27.7599L112.738 27.1144C113.213 26.6841 113.798 26.4689 114.494 26.4689C115.07 26.4689 115.5 26.5986 115.785 26.8581C116.076 27.1176 116.222 27.5289 116.222 28.0921V29.9622C116.222 30.4305 116.26 30.8355 116.336 31.1772H115.339C115.301 31.0127 115.276 30.8387 115.263 30.6552C114.934 31.0792 114.491 31.2912 113.934 31.2912ZM114.2 30.5128C114.598 30.5128 114.937 30.3419 115.215 30.0002V29.0794H115.035C114.073 29.0794 113.592 29.3736 113.592 29.9622C113.592 30.1457 113.652 30.2849 113.773 30.3799C113.893 30.4685 114.035 30.5128 114.2 30.5128ZM119.442 31.2912C118.752 31.2912 118.205 31.0633 117.8 30.6077C117.401 30.152 117.202 29.5762 117.202 28.88C117.202 28.127 117.414 27.5384 117.838 27.1144C118.268 26.6841 118.816 26.4689 119.48 26.4689C120.024 26.4689 120.493 26.605 120.885 26.8771L120.515 27.589C120.192 27.3739 119.853 27.2663 119.499 27.2663C119.094 27.2663 118.787 27.4118 118.578 27.7029C118.369 27.9877 118.265 28.3706 118.265 28.8516C118.265 29.3325 118.369 29.7249 118.578 30.0286C118.793 30.3324 119.107 30.4843 119.518 30.4843C119.86 30.4843 120.211 30.3767 120.572 30.1615L120.904 30.8545C120.543 31.1456 120.056 31.2912 119.442 31.2912Z" fill="#21A73F"/>
</g>
<defs>
<clipPath id="clip0">
<rect width="120.452" height="35.0407" fill="white"/>
</clipPath>
</defs>
</svg>
