<svg width="44" height="44" viewBox="0 0 44 44" fill="none" xmlns="http://www.w3.org/2000/svg">
<path d="M39.4992 4.90983V30.9308H13.4783V4.90983H39.4992ZM39.4992 0.572998H13.4783C11.093 0.572998 9.14143 2.52457 9.14143 4.90983V30.9308C9.14143 33.316 11.093 35.2676 13.4783 35.2676H39.4992C41.8845 35.2676 43.836 33.316 43.836 30.9308V4.90983C43.836 2.52457 41.8845 0.572998 39.4992 0.572998ZM21.0677 21.5416L24.7323 26.4422L30.11 19.7201L37.3308 28.7624H15.6467L21.0677 21.5416ZM0.467773 9.24665V39.6044C0.467773 41.9897 2.41935 43.9413 4.8046 43.9413H35.1624V39.6044H4.8046V9.24665H0.467773Z" fill="white"/>
</svg>
