<svg width="265" height="202" viewBox="0 0 265 202" fill="none" xmlns="http://www.w3.org/2000/svg">
<path d="M256.362 0.302368H8.31349C3.99014 0.302368 0.594143 3.69837 0.594143 8.02172V185.567L101.46 116.093L163.215 193.286L194.093 162.409L261.92 198.844C263.155 197.3 264.081 195.448 264.081 193.286V8.02172C264.081 3.69837 260.685 0.302368 256.362 0.302368Z" fill="white"/>
<path d="M178.654 92.9346C191.424 92.9346 201.812 82.5464 201.812 69.7765C201.812 57.0067 191.424 46.6185 178.654 46.6185C165.884 46.6185 155.496 57.0067 155.496 69.7765C155.496 82.5464 165.884 92.9346 178.654 92.9346ZM199.551 136.989C196.537 133.975 191.649 133.975 188.635 136.989L163.215 162.409L106.848 91.9496C103.974 88.357 98.6151 88.0601 95.3616 91.3135L0.594221 185.567V193.286C0.594221 197.608 3.99022 201.005 8.31357 201.005H256.362C258.523 201.005 260.376 200.079 261.92 198.844L199.551 136.989Z" fill="url(#paint0_linear)"/>
<defs>
<linearGradient id="paint0_linear" x1="131.257" y1="201.005" x2="131.257" y2="46.6185" gradientUnits="userSpaceOnUse">
<stop stop-color="#21A73F"/>
<stop offset="1" stop-color="#67CE67"/>
</linearGradient>
</defs>
</svg>
