<svg width="51" height="36" viewBox="0 0 51 36" fill="none" xmlns="http://www.w3.org/2000/svg">
<path d="M35.225 4.8707V19.1887H20.907V4.8707H35.225ZM35.225 2.48438H20.907C19.5945 2.48438 18.5207 3.55822 18.5207 4.8707V19.1887C18.5207 20.5011 19.5945 21.575 20.907 21.575H35.225C36.5375 21.575 37.6113 20.5011 37.6113 19.1887V4.8707C37.6113 3.55822 36.5375 2.48438 35.225 2.48438ZM25.0831 14.0223L27.0995 16.7188L30.0586 13.02L34.0318 17.9955H22.1002L25.0831 14.0223ZM13.748 7.25703V23.9613C13.748 25.2738 14.8219 26.3476 16.1344 26.3476H32.8387V23.9613H16.1344V7.25703H13.748Z" fill="#323232"/>
<path d="M0.241546 33.8817H0.7033L1.61607 32.5465C1.74493 32.3639 1.8201 32.2351 1.84516 32.1886H1.85232C1.85232 32.2208 1.84158 32.3532 1.84158 32.5035V33.8817H2.31049V31.4977H1.8022L0.953865 32.7434C0.814265 32.951 0.724777 33.1049 0.7033 33.1443H0.696141C0.699721 33.1156 0.710459 32.9546 0.710459 32.772V31.4977H0.241546V33.8817ZM2.69042 33.7528C2.83002 33.8566 3.04121 33.9174 3.29177 33.9174C3.71415 33.9174 4.03631 33.7564 4.03631 33.3984C4.03631 33.1443 3.85375 33.0118 3.64256 32.9832V32.9796C3.8287 32.9331 3.96472 32.8221 3.96472 32.5823C3.96472 32.2387 3.63183 32.0991 3.27388 32.0991C3.03763 32.0991 2.84434 32.1742 2.71548 32.2566L2.86939 32.5572C2.96604 32.4964 3.10206 32.4534 3.26314 32.4534C3.42422 32.4534 3.5137 32.5322 3.5137 32.6503C3.5137 32.7792 3.38484 32.8472 3.21303 32.8472H3.08774V33.1407H3.22376C3.40274 33.1407 3.57455 33.2087 3.57455 33.3483C3.57455 33.4879 3.48149 33.5595 3.2882 33.5595C3.1128 33.5595 2.95888 33.5165 2.85508 33.4485L2.69042 33.7528ZM5.13043 33.9246C5.74252 33.9246 6.01098 33.4414 6.01098 33.0011C6.01098 32.5537 5.73536 32.0955 5.12685 32.0955C4.51834 32.0955 4.25703 32.568 4.25703 33.0154C4.25703 33.4629 4.52192 33.9246 5.13043 33.9246ZM5.13759 33.5631C4.86913 33.5631 4.76174 33.3268 4.76174 33.0011C4.76174 32.6754 4.85123 32.4499 5.11969 32.4499C5.39173 32.4499 5.50628 32.6897 5.50628 33.0154C5.50628 33.3411 5.40963 33.5631 5.13759 33.5631ZM7.13067 33.9246C7.60316 33.9246 7.98258 33.5846 7.98258 33.019C7.98258 32.4534 7.64253 32.1349 7.21299 32.1349C7.0018 32.1349 6.85147 32.2208 6.75124 32.321C6.76914 31.9881 6.98033 31.8163 7.29174 31.759L7.86446 31.6624L7.80003 31.265L7.22373 31.3724C6.50068 31.5085 6.26801 31.9953 6.26801 32.7326C6.26801 33.3984 6.4971 33.9246 7.13067 33.9246ZM7.13782 33.5631C6.90516 33.5631 6.76556 33.3447 6.76556 32.8114C6.76556 32.7792 6.76556 32.7183 6.76914 32.6789C6.84789 32.5716 6.94453 32.4785 7.13782 32.4785C7.37407 32.4785 7.48146 32.7076 7.48146 33.0262C7.48146 33.3626 7.35617 33.5631 7.13782 33.5631ZM8.34682 34.6656H8.8229V33.7993C8.88375 33.853 9.01261 33.9246 9.22738 33.9246C9.68197 33.9246 10.0077 33.5595 10.0077 33.0083C10.0077 32.4248 9.73567 32.0955 9.29897 32.0955C9.05914 32.0955 8.9088 32.2029 8.81574 32.321V32.1384H8.34682V34.6656ZM9.12357 33.5559C8.97324 33.5559 8.88375 33.4915 8.8229 33.4378V32.6539C8.86227 32.6038 8.97324 32.4749 9.15221 32.4749C9.38488 32.4749 9.503 32.6789 9.503 33.0083C9.503 33.3519 9.37056 33.5559 9.12357 33.5559ZM10.7644 33.9246C10.9899 33.9246 11.1618 33.8101 11.2548 33.6955C11.2584 33.7492 11.2691 33.8387 11.2835 33.8817H11.7524C11.7273 33.7707 11.7023 33.6025 11.7023 33.3662V32.7398C11.7023 32.278 11.4768 32.0955 11.0007 32.0955C10.6714 32.0955 10.4351 32.2172 10.2955 32.3461L10.5031 32.636C10.6069 32.5537 10.7573 32.4713 10.947 32.4713C11.1546 32.4713 11.2298 32.5465 11.2298 32.7147V32.815H11.1689C10.7072 32.815 10.2382 32.9796 10.2382 33.4342C10.2382 33.7456 10.4673 33.9246 10.7644 33.9246ZM10.9076 33.5774C10.8002 33.5774 10.6964 33.5237 10.6964 33.3948C10.6964 33.1908 10.8897 33.1085 11.1689 33.1085H11.2298V33.4235C11.1546 33.5094 11.0544 33.5774 10.9076 33.5774ZM12.0242 33.8817H12.2247C12.4502 33.8817 12.5361 33.7886 12.7079 33.5058C12.8583 33.2517 12.9263 33.1658 13.0301 33.1622H13.1017V33.8817H13.5777V33.1622H13.6458C13.7531 33.1658 13.8212 33.2517 13.9715 33.5058C14.1397 33.7886 14.2256 33.8817 14.4511 33.8817H14.6516L14.6552 33.5344H14.6265C14.5442 33.5344 14.4834 33.4629 14.333 33.2051C14.2507 33.0691 14.1791 32.9796 14.1111 32.9223L14.7089 32.1384H14.1934L13.6851 32.8436H13.5777V32.1384H13.1017V32.8436H12.9907L12.4824 32.1384H11.9706L12.5683 32.9223C12.4967 32.9796 12.4287 33.0691 12.3464 33.2051C12.1961 33.4629 12.1352 33.5344 12.0493 33.5344H12.0242V33.8817ZM15.7545 33.9246C16.1124 33.9246 16.2914 33.8208 16.4059 33.7564L16.252 33.4485C16.1661 33.4915 16.0337 33.5702 15.7974 33.5702C15.5075 33.5702 15.375 33.3769 15.3536 33.1192H16.456C16.5133 32.4749 16.2484 32.0955 15.7044 32.0955C15.2211 32.0955 14.8417 32.4499 14.8417 33.0011C14.8417 33.5559 15.171 33.9246 15.7545 33.9246ZM15.3464 32.7971C15.3822 32.5716 15.4932 32.4391 15.6972 32.4391C15.9155 32.4391 15.9943 32.6002 15.9979 32.7971H15.3464ZM16.8446 33.8817H17.3207V33.1765H17.9901V33.8817H18.4661V32.1384H17.9901V32.7935H17.3207V32.1384H16.8446V33.8817ZM18.9734 33.8817H19.3994L20.0007 33.0226C20.1225 32.8436 20.1905 32.7398 20.194 32.7362H20.2012C20.2012 32.7362 20.1905 32.8615 20.1905 32.9939V33.8817H20.6164V32.1384H20.1439L19.5927 32.9295C19.4746 33.1049 19.3958 33.2409 19.3922 33.2445H19.3851C19.3851 33.2373 19.3994 33.0834 19.3994 32.9474V32.1384H18.9734V33.8817ZM21.8892 33.9246C22.2472 33.9246 22.4262 33.8208 22.5407 33.7564L22.3868 33.4485C22.3009 33.4915 22.1684 33.5702 21.9322 33.5702C21.6423 33.5702 21.5098 33.3769 21.4883 33.1192H22.5908C22.6481 32.4749 22.3832 32.0955 21.8391 32.0955C21.3559 32.0955 20.9765 32.4499 20.9765 33.0011C20.9765 33.5559 21.3058 33.9246 21.8892 33.9246ZM21.4812 32.7971C21.517 32.5716 21.6279 32.4391 21.832 32.4391C22.0503 32.4391 22.1291 32.6002 22.1326 32.7971H21.4812ZM24.4303 33.9246C24.7489 33.9246 24.9099 33.8208 24.9923 33.7671L24.8455 33.4485C24.7918 33.4807 24.6701 33.5559 24.4697 33.5559C24.1726 33.5559 24.033 33.3197 24.033 32.9975C24.033 32.6754 24.1797 32.457 24.4589 32.457C24.6343 32.457 24.7453 32.5107 24.824 32.5608L24.9779 32.2351C24.8956 32.1814 24.7274 32.0955 24.4446 32.0955C23.9184 32.0955 23.5283 32.4248 23.5283 33.0118C23.5283 33.5523 23.8719 33.9246 24.4303 33.9246ZM25.3144 33.8817H25.7905L25.7941 33.1622H25.8621C25.9695 33.1658 26.0339 33.2517 26.1843 33.5058C26.3561 33.7886 26.442 33.8817 26.6675 33.8817H26.8679L26.8715 33.5344H26.8429C26.757 33.5344 26.6961 33.4629 26.5458 33.2051C26.4635 33.0691 26.3955 32.9796 26.3274 32.9223L26.9216 32.1384H26.4098L25.9015 32.8436H25.7905V32.1384H25.3144V33.8817ZM27.9112 33.9246C28.5233 33.9246 28.7918 33.4414 28.7918 33.0011C28.7918 32.5537 28.5162 32.0955 27.9076 32.0955C27.2991 32.0955 27.0378 32.568 27.0378 33.0154C27.0378 33.4629 27.3027 33.9246 27.9112 33.9246ZM27.9184 33.5631C27.6499 33.5631 27.5425 33.3268 27.5425 33.0011C27.5425 32.6754 27.632 32.4499 27.9005 32.4499C28.1725 32.4499 28.2871 32.6897 28.2871 33.0154C28.2871 33.3411 28.1904 33.5631 27.9184 33.5631ZM29.1526 34.6656H29.6287V33.7993C29.6895 33.853 29.8184 33.9246 30.0332 33.9246C30.4878 33.9246 30.8135 33.5595 30.8135 33.0083C30.8135 32.4248 30.5415 32.0955 30.1048 32.0955C29.8649 32.0955 29.7146 32.2029 29.6215 32.321V32.1384H29.1526V34.6656ZM29.9294 33.5559C29.779 33.5559 29.6895 33.4915 29.6287 33.4378V32.6539C29.6681 32.6038 29.779 32.4749 29.958 32.4749C30.1907 32.4749 30.3088 32.6789 30.3088 33.0083C30.3088 33.3519 30.1763 33.5559 29.9294 33.5559ZM31.9067 33.9246C32.5188 33.9246 32.7872 33.4414 32.7872 33.0011C32.7872 32.5537 32.5116 32.0955 31.9031 32.0955C31.2946 32.0955 31.0333 32.568 31.0333 33.0154C31.0333 33.4629 31.2982 33.9246 31.9067 33.9246ZM31.9139 33.5631C31.6454 33.5631 31.538 33.3268 31.538 33.0011C31.538 32.6754 31.6275 32.4499 31.896 32.4499C32.168 32.4499 32.2825 32.6897 32.2825 33.0154C32.2825 33.3411 32.1859 33.5631 31.9139 33.5631ZM33.8437 33.8817H34.3198V32.5179H34.9533V33.8817H35.4294V32.1384H33.8437V33.8817ZM36.6642 33.9246C37.2763 33.9246 37.5448 33.4414 37.5448 33.0011C37.5448 32.5537 37.2691 32.0955 36.6606 32.0955C36.0521 32.0955 35.7908 32.568 35.7908 33.0154C35.7908 33.4629 36.0557 33.9246 36.6642 33.9246ZM36.6714 33.5631C36.4029 33.5631 36.2955 33.3268 36.2955 33.0011C36.2955 32.6754 36.385 32.4499 36.6535 32.4499C36.9255 32.4499 37.04 32.6897 37.04 33.0154C37.04 33.3411 36.9434 33.5631 36.6714 33.5631ZM37.7133 33.8817H37.9173C38.1428 33.8817 38.2287 33.7993 38.397 33.5201C38.5366 33.2875 38.5974 33.2159 38.7048 33.2159H38.7907V33.8817H39.2668V32.1384H38.5437C38.0856 32.1384 37.8207 32.3174 37.8207 32.6646C37.8207 32.9188 38.0176 33.0655 38.1858 33.0977V33.1013C38.1142 33.13 38.0498 33.2015 37.9925 33.2946C37.8744 33.4807 37.8135 33.5344 37.7384 33.5344H37.7133V33.8817ZM38.5509 32.8973C38.3791 32.8973 38.2968 32.8293 38.2968 32.6933C38.2968 32.5537 38.3791 32.4857 38.5724 32.4857H38.7907V32.8973H38.5509ZM39.7757 33.8817H40.531C40.9534 33.8817 41.2648 33.7564 41.2648 33.3984C41.2648 33.1443 41.0822 33.0118 40.871 32.9832V32.9796C41.0572 32.9331 41.1932 32.8221 41.1932 32.5823C41.1932 32.2387 40.8854 32.1384 40.5382 32.1384H39.7757V33.8817ZM40.2446 33.5416V33.1443H40.5346C40.71 33.1443 40.803 33.2087 40.803 33.3483C40.803 33.4879 40.7135 33.5416 40.5167 33.5416H40.2446ZM40.2446 32.8436V32.4713H40.4916C40.6599 32.4713 40.7386 32.5322 40.7386 32.6503C40.7386 32.7792 40.667 32.8436 40.4845 32.8436H40.2446ZM41.6354 33.8817H42.0613L42.6627 33.0226C42.7844 32.8436 42.8524 32.7398 42.856 32.7362H42.8631C42.8631 32.7362 42.8524 32.8615 42.8524 32.9939V33.8817H43.2784V32.1384H42.8059L42.2546 32.9295C42.1365 33.1049 42.0578 33.2409 42.0542 33.2445H42.047C42.047 33.2373 42.0613 33.0834 42.0613 32.9474V32.1384H41.6354V33.8817ZM44.0966 33.8817H44.5762V32.5143H45.0953V32.1384H43.5811V32.5143H44.0966V33.8817ZM46.1205 33.9246C46.439 33.9246 46.6001 33.8208 46.6824 33.7671L46.5357 33.4485C46.482 33.4807 46.3603 33.5559 46.1598 33.5559C45.8627 33.5559 45.7231 33.3197 45.7231 32.9975C45.7231 32.6754 45.8699 32.457 46.1491 32.457C46.3245 32.457 46.4354 32.5107 46.5142 32.5608L46.6681 32.2351C46.5858 32.1814 46.4176 32.0955 46.1348 32.0955C45.6086 32.0955 45.2184 32.4248 45.2184 33.0118C45.2184 33.5523 45.5621 33.9246 46.1205 33.9246ZM46.8753 33.8817H47.0793C47.3048 33.8817 47.3907 33.7993 47.5589 33.5201C47.6985 33.2875 47.7594 33.2159 47.8668 33.2159H47.9527V33.8817H48.4288V32.1384H47.7057C47.2475 32.1384 46.9826 32.3174 46.9826 32.6646C46.9826 32.9188 47.1795 33.0655 47.3477 33.0977V33.1013C47.2762 33.13 47.2117 33.2015 47.1545 33.2946C47.0363 33.4807 46.9755 33.5344 46.9003 33.5344H46.8753V33.8817ZM47.7129 32.8973C47.541 32.8973 47.4587 32.8293 47.4587 32.6933C47.4587 32.5537 47.541 32.4857 47.7343 32.4857H47.9527V32.8973H47.7129Z" fill="black"/>
</svg>
