<svg width="20" height="19" viewBox="0 0 20 19" fill="none" xmlns="http://www.w3.org/2000/svg">
<path d="M14.4998 0.5C12.7598 0.5 11.0898 1.31 9.99976 2.59C8.90976 1.31 7.23976 0.5 5.49976 0.5C2.41976 0.5 -0.000244141 2.92 -0.000244141 6C-0.000244141 9.78 3.39976 12.86 8.54976 17.54L9.99976 18.85L11.4498 17.53C16.5998 12.86 19.9998 9.78 19.9998 6C19.9998 2.92 17.5798 0.5 14.4998 0.5ZM10.0998 16.05L9.99976 16.15L9.89976 16.05C5.13976 11.74 1.99976 8.89 1.99976 6C1.99976 4 3.49976 2.5 5.49976 2.5C7.03976 2.5 8.53976 3.49 9.06976 4.86H10.9398C11.4598 3.49 12.9598 2.5 14.4998 2.5C16.4998 2.5 17.9998 4 17.9998 6C17.9998 8.89 14.8598 11.74 10.0998 16.05Z" fill="#2E2E2E"/>
</svg>
