<svg width="90" height="90" viewBox="0 0 90 90" fill="none" xmlns="http://www.w3.org/2000/svg">
<g clip-path="url(#clip0)">
<path d="M38.3268 0.67796C38.3404 0.669263 38.3545 0.661784 38.368 0.653434C38.4517 0.595686 38.4418 0.601426 38.3268 0.67796ZM62.8536 39.7316C65.2524 38.099 67.0269 36.8616 67.0269 36.8616C67.9142 36.3918 68.4882 35.5049 68.4882 34.5135V25.4858L69.636 26.2687C71.1039 27.0838 72.5239 26.6091 73.2887 25.5381C74.0717 24.3381 73.7586 22.7205 72.5584 21.8854L68.4882 19.1719L62.1222 7.60477L52.8336 8.73555L41.2494 0.67796C40.3755 0.112481 39.2496 0.105002 38.368 0.653434C36.9224 1.64994 7.51094 21.5563 7.01764 21.8852C5.81763 22.7203 5.50454 24.338 6.28727 25.538C7.074 26.6399 8.51005 27.0626 9.94001 26.2685L11.0878 25.4856V65.8226C11.0878 67.2836 12.2357 68.4317 13.6969 68.4317H26.7424C29.6244 68.4317 31.9606 66.0956 31.9606 63.2135V47.5589H50.2243C50.7253 47.5589 52.8569 46.3021 55.4425 44.65V81.4772H76.3153V39.7316H62.8536Z" fill="url(#paint0_linear)"/>
<path d="M68.4883 2.85557C68.4883 1.3943 67.3404 0.246475 65.8792 0.246475H55.4428C53.9815 0.246475 52.8337 1.3943 52.8337 2.85557V8.73474C51.8506 8.07934 67.9522 18.8137 68.4883 19.1711V2.85557ZM82.6816 34.7736L77.4634 32.1645C76.733 31.7992 75.8979 31.7992 75.1677 32.1645L71.0974 34.1996L67.027 32.1645C66.2966 31.7992 65.4615 31.7992 64.7313 32.1645L60.661 34.1996L56.5906 32.1645C55.8602 31.7992 55.0251 31.7992 54.2949 32.1645L49.0767 34.7736C48.1895 35.2434 47.6155 36.1303 47.6155 37.1217V42.3399H29.3518C27.9096 42.3399 26.7427 43.5069 26.7427 44.949V68.4309H47.6155V84.0855C47.6155 85.077 48.1895 85.9641 49.0767 86.4337L54.2949 89.0299C55.0253 89.3949 55.8604 89.3949 56.5906 89.0299L60.661 87.0077L64.7313 89.0299C65.4617 89.3949 66.2968 89.3949 67.027 89.0299L71.0974 87.0077L75.1677 89.0428C75.5327 89.1992 75.8981 89.3037 76.3156 89.3037C76.733 89.3037 77.0985 89.1992 77.4634 89.0428L82.6816 86.4337C83.5689 85.9639 84.1429 85.077 84.1429 84.0855V37.1217C84.1429 36.1303 83.569 35.2432 82.6816 34.7736ZM71.0974 44.949C72.5586 44.949 73.7065 46.0969 73.7065 47.5581C73.7065 49.0191 72.5586 50.1672 71.0974 50.1672C69.6361 50.1672 68.4883 49.0191 68.4883 47.5581C68.4883 46.0969 69.6361 44.949 71.0974 44.949ZM71.0974 76.2582H60.661C59.1997 76.2582 58.0519 75.1101 58.0519 73.6491C58.0519 72.1879 59.1997 71.04 60.661 71.04H71.0974C72.5586 71.04 73.7065 72.1879 73.7065 73.6491C73.7065 75.1101 72.5586 76.2582 71.0974 76.2582ZM58.0519 63.2127C58.0519 61.7515 59.1997 60.6036 60.661 60.6036C62.1222 60.6036 63.2701 61.7515 63.2701 63.2127C63.2701 64.6737 62.1222 65.8218 60.661 65.8218C59.1997 65.8218 58.0519 64.6737 58.0519 63.2127ZM72.5586 65.4042C71.1287 66.1982 69.6926 65.7756 68.9059 64.6737L58.4695 49.0191C57.6866 47.819 57.9997 46.2014 59.1999 45.3663C60.4002 44.5838 62.0179 44.8969 62.8526 46.0969L73.289 61.7515C74.0717 62.9518 73.7588 64.5695 72.5586 65.4042ZM39.7882 31.9035C44.1043 31.9035 47.6155 28.3924 47.6155 24.0762C47.6155 19.7601 44.1043 16.249 39.7882 16.249C35.472 16.249 31.9609 19.7601 31.9609 24.0762C31.9609 28.3924 35.472 31.9035 39.7882 31.9035Z" fill="#F2F3F5"/>
</g>
<defs>
<linearGradient id="paint0_linear" x1="41.0867" y1="81.4772" x2="41.0867" y2="0.247284" gradientUnits="userSpaceOnUse">
<stop stop-color="#21A73F"/>
<stop offset="1" stop-color="#5EC962"/>
</linearGradient>
<clipPath id="clip0">
<rect width="89.0573" height="89.0573" fill="white" transform="translate(0.471436 0.247437)"/>
</clipPath>
</defs>
</svg>
