<?xml version="1.0" standalone="no"?>
<!DOCTYPE svg PUBLIC "-//W3C//DTD SVG 1.1//EN" "http://www.w3.org/Graphics/SVG/1.1/DTD/svg11.dtd" >
<svg xmlns="http://www.w3.org/2000/svg">
<metadata>Generated by IcoMoon</metadata>
<defs>
<font id="icomoon" horiz-adv-x="1024">
<font-face units-per-em="1024" ascent="960" descent="-64" />
<missing-glyph horiz-adv-x="1024" />
<glyph unicode="&#x20;" horiz-adv-x="512" d="" />
<glyph unicode="&#xe900;" glyph-name="phone" d="M994.798 215.073l-224.003 96.001c-9.569 4.081-20.206 4.936-30.304 2.448-10.102-2.488-19.12-8.192-25.697-16.246l-99.201-121.203c-155.689 73.403-280.983 198.696-354.388 354.384l121.202 99.203c8.074 6.566 13.788 15.584 16.279 25.689s1.619 20.745-2.478 30.311l-96.002 224.004c-4.497 10.312-12.453 18.731-22.493 23.806s-21.537 6.488-32.508 3.994l-208.004-48.001c-10.577-2.442-20.014-8.398-26.77-16.893s-10.433-19.032-10.431-29.886c0-513.012 415.808-928.017 928.015-928.017 10.858-0.008 21.399 3.668 29.9 10.424s14.458 16.194 16.902 26.774l48 208.004c2.479 11.028 1.033 22.567-4.081 32.644-5.11 10.073-13.576 18.052-23.939 22.559z" />
<glyph unicode="&#xe901;" glyph-name="arrow-up" d="M120.328 110.508l391.677 390.832 391.677-390.832 120.318 120.318-512 512-512-512 120.318-120.318z" />
<glyph unicode="&#xe902;" glyph-name="vk" d="M817.5 576.051c0 0.002 0 0.004 0 0.006 4.453 14.84 0 25.748-21.185 25.748h-70.057c-16.79 0-25.042-8.367-29.666-18.029-0.565-1.18-1.041-2.344-1.548-3.549-5.341-12.581-39.123-89.803-85.365-141.482-16.329-16.329-23.749-21.517-32.657-21.517-4.453 0-10.899 5.189-10.899 20.032v138.794c0 17.815-5.168 25.751-20.016 25.751h-110.091c-11.129 0-17.824-8.267-17.824-16.103 0-16.889 25.231-20.783 27.833-68.281v-103.17c0-22.618-4.083-26.722-12.991-26.722-23.75 0-81.518 87.232-115.785 187.040-6.716 19.401-13.451 27.238-31.356 27.238h-70.058c-20.017 0-24.020-9.423-24.020-19.817 0-18.556 23.755-110.591 110.591-232.312 57.898-83.121 139.455-128.187 213.677-128.187 44.537 0 50.041 10.009 50.041 27.249v62.826c0 20.016 4.219 24.010 18.316 24.010 10.398 0 28.206-5.194 69.777-45.271 47.502-47.495 55.329-68.814 82.045-68.814h70.063c20.012 0 30.021 10.009 24.249 29.761-6.317 19.689-28.993 48.238-59.090 82.097-16.327 19.301-40.822 40.083-48.238 50.472-8.373 10.758-8.074 16.702-3.768 24.805 2.309 4.35 5.157 8.315 7.973 12.356 17.29 24.798 82.337 119.71 90.050 155.066 0 0.002 0 0.003 0 0.004zM158.574 875.238h706.853v63.429h-706.853v-63.429zM960.57 780.095v-706.856h63.429v706.856h-63.429zM865.426-21.904h-706.853v-63.429h706.853v63.429zM63.43 73.239v706.856h-63.429v-706.856h63.429zM158.574-21.904c-52.547 0-95.143 42.598-95.143 95.143h-63.429c0-87.576 70.995-158.572 158.572-158.572v63.429zM960.57 73.239c0-52.545-42.598-95.143-95.143-95.143v-63.429c87.576 0 158.572 70.996 158.572 158.572h-63.429zM865.426 875.238c52.545 0 95.143-42.596 95.143-95.143h63.429c0 87.576-70.996 158.572-158.572 158.572v-63.429zM158.574 938.667c-87.576 0-158.572-70.996-158.572-158.572h63.429c0 52.547 42.596 95.143 95.143 95.143v63.429z" />
<glyph unicode="&#xe903;" glyph-name="instagram" d="M411.959 426.656c0 55.259 44.783 100.066 100.042 100.066s100.066-44.807 100.066-100.066c0-55.259-44.807-100.065-100.066-100.065s-100.042 44.806-100.042 100.065zM357.864 426.656c0-85.129 69.006-154.138 154.135-154.138s154.132 69.009 154.132 154.138c0 85.129-69.003 154.135-154.132 154.135s-154.135-69.006-154.135-154.135zM636.217 586.903c-0.003-7.125 2.107-14.089 6.062-20.015s9.579-10.544 16.161-13.273c6.58-2.729 13.821-3.446 20.813-2.058 6.985 1.387 13.406 4.815 18.444 9.851 5.044 5.036 8.476 11.453 9.866 18.44 1.396 6.987 0.685 14.23-2.043 20.813-2.722 6.583-7.334 12.21-13.26 16.171-5.919 3.96-12.885 6.076-20.004 6.079h-0.019c-9.547-0.004-18.705-3.799-25.459-10.551s-10.552-15.907-10.56-25.456zM390.73 182.323c-29.265 1.332-45.172 6.205-55.743 10.323-14.014 5.456-24.014 11.953-34.527 22.454s-17.021 20.493-22.453 34.501c-4.121 10.57-8.996 26.482-10.327 55.749-1.455 31.638-1.746 41.143-1.746 121.304s0.314 89.64 1.746 121.306c1.333 29.266 6.243 45.146 10.327 55.744 5.455 14.014 11.953 24.014 22.453 34.527s20.489 17.021 34.527 22.454c10.567 4.121 26.478 8.996 55.743 10.327 31.641 1.455 41.146 1.746 121.271 1.746s89.639-0.314 121.306-1.746c29.266-1.333 45.147-6.243 55.742-10.327 14.015-5.432 24.014-11.954 34.527-22.454s16.997-20.513 22.454-34.527c4.124-10.567 8.996-26.478 10.329-55.744 1.453-31.667 1.745-41.145 1.745-121.306s-0.291-89.639-1.745-121.304c-1.332-29.267-6.23-45.173-10.329-55.749-5.456-14.008-11.953-24.014-22.454-34.501s-20.512-16.997-34.527-22.454c-10.564-4.118-26.476-8.996-55.742-10.323-31.64-1.459-41.145-1.751-121.306-1.751s-89.64 0.291-121.271 1.751zM388.244 725.011c-31.955-1.455-53.791-6.522-72.861-13.943-19.749-7.663-36.468-17.943-53.174-34.623s-26.96-33.426-34.623-53.174c-7.42-19.082-12.487-40.905-13.943-72.861-1.479-32.006-1.818-42.237-1.818-123.755s0.339-91.75 1.818-123.755c1.455-31.957 6.522-53.782 13.943-72.861 7.663-19.737 17.919-36.5 34.623-53.173s33.425-26.938 53.174-34.628c19.106-7.417 40.905-12.486 72.861-13.939 32.023-1.453 42.237-1.821 123.755-1.821s91.749 0.343 123.755 1.821c31.956 1.453 53.781 6.522 72.86 13.939 19.737 7.69 36.468 17.949 53.173 34.628s26.938 33.435 34.622 53.173c7.423 19.078 12.512 40.903 13.945 72.861 1.453 32.029 1.795 42.237 1.795 123.755s-0.343 91.749-1.795 123.755c-1.453 31.957-6.522 53.791-13.945 72.861-7.683 19.737-17.942 36.468-34.622 53.174s-33.435 26.96-53.148 34.623c-19.103 7.42-40.928 12.512-72.861 13.943-32.006 1.455-42.238 1.818-123.755 1.818s-91.757-0.339-123.78-1.818zM158.612 875.222h706.775v63.445h-706.775v-63.445zM960.555 780.055v-706.774h63.445v706.774h-63.445zM865.388-21.887h-706.775v-63.445h706.775v63.445zM63.445 73.28v706.774h-63.445v-706.774h63.445zM158.612-21.887c-52.559 0-95.167 42.603-95.167 95.167h-63.445c0-87.599 71.013-158.612 158.612-158.612v63.445zM960.555 73.28c0-52.564-42.609-95.167-95.167-95.167v-63.445c87.599 0 158.612 71.014 158.612 158.612h-63.445zM865.388 875.222c52.558 0 95.167-42.607 95.167-95.167h63.445c0 87.599-71.014 158.612-158.612 158.612v-63.445zM158.612 938.667c-87.599 0-158.612-71.013-158.612-158.612h63.445c0 52.56 42.608 95.167 95.167 95.167v63.445z" />
<glyph unicode="&#xe904;" glyph-name="heart" horiz-adv-x="1078" d="M781.549 921.198c-93.786 0-183.799-43.659-242.551-112.651-58.751 68.992-148.763 112.651-242.549 112.651-166.012 0-296.449-130.437-296.449-296.449 0-203.741 183.26-369.753 460.844-622.004l78.154-70.609 78.157 71.148c277.585 251.712 460.844 417.724 460.844 621.465 0 166.012-130.437 296.449-296.449 296.449zM544.39 83.054l-5.393-5.39-5.39 5.39c-256.564 232.308-425.809 385.923-425.809 541.694 0 107.799 80.85 188.65 188.65 188.65 83.006 0 163.856-53.361 192.422-127.204h100.795c28.028 73.843 108.877 127.204 191.883 127.204 107.799 0 188.65-80.85 188.65-188.65 0-155.771-169.245-309.386-425.809-541.694z" />
<glyph unicode="&#xe905;" glyph-name="person" d="M512 938.664c-282.623 0-511.999-229.375-511.999-511.999s229.375-511.995 511.999-511.995c282.623 0 512.001 229.372 512.001 511.995s-229.377 511.999-512.001 511.999zM259.585 105.133c22.016 46.080 156.16 91.133 252.415 91.133s230.911-45.053 252.415-91.133c-69.634-55.296-157.183-88.065-252.415-88.065s-182.784 32.77-252.415 88.065zM837.632 179.372c-73.217 89.088-250.881 119.296-325.632 119.296s-252.415-30.209-325.632-119.296c-52.224 68.606-83.968 154.111-83.968 247.293 0 225.792 183.808 409.6 409.599 409.6 225.789 0 409.597-183.807 409.597-409.6 0-93.182-31.742-178.686-83.967-247.293zM512 733.865c-99.328 0-179.2-79.871-179.2-179.2 0-99.326 79.871-179.198 179.2-179.198 99.326 0 179.198 79.871 179.198 179.198s-79.871 179.2-179.198 179.2zM512 477.866c-42.497 0-76.8 34.304-76.8 76.8s34.304 76.8 76.8 76.8c42.497 0 76.8-34.304 76.8-76.8s-34.303-76.8-76.8-76.8z" />
<glyph unicode="&#xe906;" glyph-name="shopping-cart" d="M709.476 377.905c36.571 0 68.754 19.992 85.333 50.225l174.568 316.465c18.042 32.183-5.364 72.168-42.423 72.168h-721.678l-45.836 97.524h-159.452v-97.524h97.524l175.543-370.103-65.829-118.979c-35.596-65.341 11.215-144.823 85.333-144.823h585.145v97.524h-585.145l53.638 97.524h363.278zM251.6 719.238h592.459l-134.583-243.81h-342.311l-115.566 243.81zM292.56 134.096c-53.638 0-97.036-43.886-97.036-97.524s43.398-97.524 97.036-97.524c53.638 0 97.524 43.886 97.524 97.524s-43.886 97.524-97.524 97.524zM780.181 134.096c-53.638 0-97.036-43.886-97.036-97.524s43.398-97.524 97.036-97.524c53.638 0 97.524 43.886 97.524 97.524s-43.886 97.524-97.524 97.524z" />
<glyph unicode="&#xe907;" glyph-name="location" d="M512 426.667c-56.32 0-102.4 46.080-102.4 102.4s46.080 102.4 102.4 102.4c56.32 0 102.4-46.080 102.4-102.4s-46.080-102.4-102.4-102.4zM819.2 518.827c0 185.856-135.68 317.44-307.2 317.44s-307.2-131.584-307.2-317.44c0-119.807 99.84-278.527 307.2-467.967 207.36 189.44 307.2 348.16 307.2 467.967zM512 938.667c215.040 0 409.6-164.864 409.6-419.84 0-169.984-136.704-371.2-409.6-604.16-272.896 232.96-409.6 434.176-409.6 604.16 0 254.976 194.56 419.84 409.6 419.84z" />
<glyph unicode="&#xe908;" glyph-name="menu" d="M0 682.669h255.998v255.998h-255.998v-255.998zM383.998-85.333h255.998v256.003h-255.998v-256.003zM0-85.333h255.998v256.003h-255.998v-256.003zM0 298.671h255.998v255.998h-255.998v-255.998zM383.998 298.671h255.998v255.998h-255.998v-255.998zM767.997 938.667v-255.998h256.003v255.998h-256.003zM383.998 682.669h255.998v255.998h-255.998v-255.998zM767.997 298.671h256.003v255.998h-256.003v-255.998zM767.997-85.333h256.003v256.003h-256.003v-256.003z" />
<glyph unicode="&#xe909;" glyph-name="search" d="M731.847 294.642h-46.252l-16.393 15.808c57.377 66.744 91.92 153.395 91.92 247.657 0 210.186-170.374 380.56-380.56 380.56s-380.56-170.374-380.56-380.56c0-210.186 170.374-380.56 380.56-380.56 94.262 0 180.913 34.543 247.657 91.92l15.808-16.393v-46.252l292.738-292.154 87.236 87.236-292.154 292.738zM380.561 294.642c-145.783 0-263.465 117.681-263.465 263.465s117.681 263.465 263.465 263.465c145.783 0 263.465-117.681 263.465-263.465s-117.681-263.465-263.465-263.465z" />
<glyph unicode="&#xe90a;" glyph-name="arrow-right" d="M828.16 426.667l-512 512-120.32-120.32 390.827-391.68-390.827-391.686 120.32-120.314 512 512z" />
<glyph unicode="&#xe90b;" glyph-name="list" d="M83.027 509.694c-45.942 0-83.027-37.085-83.027-83.027s37.085-83.027 83.027-83.027c45.942 0 83.027 37.085 83.027 83.027s-37.085 83.027-83.027 83.027zM83.027 841.802c-45.942 0-83.027-37.085-83.027-83.027s37.085-83.027 83.027-83.027c45.942 0 83.027 37.085 83.027 83.027s-37.085 83.027-83.027 83.027zM83.027 177.586c-45.942 0-83.027-37.639-83.027-83.027s37.639-83.027 83.027-83.027c45.388 0 83.027 37.639 83.027 83.027s-37.085 83.027-83.027 83.027zM249.081 39.208h774.919v110.703h-774.919v-110.703zM249.081 371.316h774.919v110.703h-774.919v-110.703zM249.081 814.126v-110.703h774.919v110.703h-774.919z" />
<glyph unicode="&#xe90c;" glyph-name="checked" d="M156.009 385.548c-17.544 14.395-40.406 22.205-63.998 21.864s-46.17-8.809-63.206-23.701c-17.036-14.895-27.268-35.114-28.645-56.603s6.203-42.66 21.221-59.264l207.551-198.735c8.689-8.316 19.132-14.945 30.699-19.489s24.022-6.908 36.615-6.952c12.527-0.068 24.941 2.164 36.505 6.56s22.041 10.868 30.81 19.029l633.872 597.056c8.593 8.066 15.371 17.596 19.918 28.046 4.558 10.451 6.821 21.619 6.64 32.865-0.171 11.247-2.764 22.352-7.643 32.683s-11.944 19.682-20.783 27.523c-8.838 7.84-19.286 14.016-30.741 18.173s-23.697 6.216-36.025 6.058c-12.328-0.158-24.5-2.53-35.823-6.981s-21.573-10.892-30.168-18.957l-565.625-533.938-141.172 134.764z" />
<glyph unicode="&#xe90d;" glyph-name="first-page" d="M1023.999 47.927l-378.74 378.74 378.74 378.74-116.345 116.345-495.084-495.084 495.084-495.084 116.345 116.345zM0 921.751h165.028v-990.169h-165.028v990.169z" />
<glyph unicode="&#xe90e;" glyph-name="last-page" d="M0 805.407l378.74-378.74-378.74-378.74 116.345-116.345 495.085 495.085-495.085 495.085-116.345-116.345zM1024-68.418h-165.029v990.17h165.029v-990.17z" />
<glyph unicode="&#xe90f;" glyph-name="arrow-left" d="M195.84 426.667l512-512 120.32 120.32-390.827 391.68 390.827 391.68-120.32 120.32-512-512z" />
<glyph unicode="&#xe910;" glyph-name="telegram" d="M777.328-7.957c61.347-26.841 84.352 29.392 84.352 29.392l162.319 815.43c-1.278 54.959-75.41 21.728-75.41 21.728l-908.729-356.59c0 0-43.456-15.338-39.622-42.178s38.343-39.621 38.343-39.621l228.78-76.686c0 0 69.017-226.223 83.076-269.679 12.781-42.177 24.283-43.455 24.283-43.455 12.781-5.114 24.284 3.835 24.284 3.835l148.259 134.2 230.059-176.377zM816.923 692.439c0 0 31.955 19.171 30.676 0 0 0 5.108-2.556-11.506-20.449-15.335-15.337-377.039-339.975-425.607-383.431-3.834-2.556-6.39-6.39-6.39-11.501l-14.059-120.144c-2.556-12.778-19.172-14.056-23.006-2.557l-60.071 196.83c-2.556 7.669 0 16.615 7.668 21.727l502.295 319.526z" />
<glyph unicode="&#xe911;" glyph-name="twitter" d="M920.796 635.085c0-9.383 0-18.764 0-26.807 0-277.444-211.772-597.777-597.781-597.777-119.288 0-229.193 34.845-323.015 93.818 16.084-1.341 33.508-2.676 49.592-2.676 97.842 0 188.984 33.504 261.36 89.795-92.481 1.341-170.219 62.997-195.685 146.096 13.403-2.681 25.466-4.021 40.21-4.021 18.764 0 37.529 2.681 54.952 8.041-96.502 18.765-168.88 103.204-168.88 205.067 0 1.34 0 1.34 0 2.681 28.147-16.084 60.314-25.466 95.162-26.806-56.292 37.529-93.822 101.864-93.822 175.581 0 38.868 10.723 75.058 28.147 105.884 103.204-127.33 258.681-210.429 432.921-219.811-4.021 14.743-5.361 32.167-5.361 48.251 0 116.607 93.822 210.429 210.429 210.429 60.315 0 115.266-25.466 152.798-65.675 48.247 9.383 92.478 26.806 134.026 50.932-16.078-49.592-49.588-89.801-92.478-116.607 42.89 5.361 83.097 16.084 120.629 33.508-26.812-42.89-61.655-80.418-103.204-109.906z" />
<glyph unicode="&#xe912;" glyph-name="vk-share" d="M1000.508 689.561c7.121 23.733 0 41.177-33.881 41.177h-112.028c-28.485 0-41.608-15.067-48.73-31.687 0 0-56.975-138.857-137.681-229.054-26.111-26.11-37.974-34.408-52.216-34.408-7.127 0-17.429 8.298-17.429 32.032v221.94c0 28.487-8.267 41.177-32.010 41.177h-176.041c-17.796 0-28.503-13.219-28.503-25.75 0-27.006 40.346-33.231 44.507-109.185v-164.975c0-36.169-6.529-42.73-20.773-42.73-37.978 0-130.351 139.489-185.148 299.087-10.739 31.023-21.509 43.554-50.14 43.554h-112.026c-32.007 0-38.409-15.067-38.409-31.687 0-29.671 37.985-176.842 176.841-371.479 92.581-132.91 222.996-204.978 341.682-204.978 71.217 0 80.019 16.005 80.019 43.573v100.463c0 32.007 6.745 38.393 29.287 38.393 16.627 0 45.106-8.306 111.576-72.393 75.953-75.946 88.472-110.035 131.198-110.035h112.028c32.004 0 48.009 16.005 38.776 47.589-10.1 31.481-46.361 77.138-94.485 131.278-26.111 30.863-65.28 64.096-77.138 80.707-16.622 21.365-11.874 30.855 0 49.835 0 0 136.48 192.269 150.723 257.548v0.008z" />
<glyph unicode="&#xe913;" glyph-name="whatsapp" d="M873.171 789.218c-94.094 96.866-224.173 149.449-357.017 149.449-282.292 0-509.233-229.709-506.466-509.234 0-88.56 24.908-174.36 66.421-251.846l-71.957-262.919 268.454 69.187c74.724-41.516 157.752-60.886 240.779-60.886 279.522 0 506.463 229.711 506.463 509.233 0 135.611-52.579 262.919-146.68 357.017zM516.154 8.761c-74.724 0-149.449 19.376-213.103 58.117l-16.605 8.307-160.519-41.516 41.513 157.755-11.070 16.601c-121.773 196.498-63.654 456.651 135.611 578.423s456.65 63.654 578.421-135.61c121.778-199.265 63.654-456.652-135.61-578.423-63.654-41.516-141.145-63.654-218.638-63.654zM759.7 315.966l-30.439 13.832c0 0-44.285 19.376-71.961 33.215-2.763 0-5.532 2.769-8.301 2.769-8.301 0-13.839-2.769-19.376-5.538 0 0-2.763-2.769-41.51-47.047-2.768-5.538-8.303-8.307-13.838-8.307h-2.768c-2.768 0-8.303 2.769-11.070 5.538l-13.838 5.538c-30.444 13.832-58.118 30.439-80.26 52.579-5.535 5.537-13.838 11.073-19.373 16.608-19.374 19.373-38.745 41.513-52.584 66.422l-2.768 5.535c-2.768 2.768-2.768 5.535-5.535 11.070 0 5.535 0 11.070 2.768 13.838 0 0 11.070 13.838 19.374 22.141 5.535 5.535 8.303 13.838 13.838 19.373 5.535 8.303 8.303 19.374 5.535 27.676-2.768 13.838-35.979 88.562-44.281 105.168-5.535 8.303-11.070 11.070-19.373 13.838h-8.303c-5.535 0-13.838 0-22.141 0-5.535 0-11.070-2.768-16.606-2.768l-2.767-2.767c-5.535-2.768-11.071-8.303-16.606-11.071-5.535-5.535-8.303-11.070-13.838-16.605-19.374-24.908-30.444-55.351-30.444-85.795 0-22.141 5.535-44.281 13.838-63.654l2.768-8.303c24.908-52.584 58.119-99.633 102.4-141.145l11.070-11.070c8.303-8.307 16.606-13.839 22.141-22.145 58.118-49.816 124.54-85.794 199.262-105.164 8.307-2.769 19.376-2.769 27.677-5.538 8.307 0 19.376 0 27.677 0 13.839 0 30.446 5.538 41.516 11.070 8.301 5.538 13.839 5.538 19.371 11.075l5.538 5.532c5.532 5.538 11.070 8.301 16.601 13.839 5.538 5.538 11.075 11.070 13.839 16.608 5.538 11.070 8.307 24.908 11.070 38.747 0 5.532 0 13.832 0 19.371 0 0-2.763 2.769-8.301 5.538z" />
<glyph unicode="&#xe914;" glyph-name="stats" d="M408.001 10.667h208.001v831.999h-208.001v-831.999zM96 10.667h208v415.998h-208v-415.998zM720.003 582.666v-571.998h207.997v571.998h-207.997z" />
<glyph unicode="&#xe915;" glyph-name="arrow-forward" d="M665.6 785.067l-72.192-72.192 234.496-235.008h-827.904v-102.399h827.904l-235.008-235.008 72.704-72.195 358.4 358.402-358.4 358.401z" />
<glyph unicode="&#xe916;" glyph-name="close" d="M1024.001 835.536l-103.134 103.13-408.865-408.87-408.87 408.87-103.13-103.13 408.867-408.869-408.867-408.87 103.13-103.129 408.87 408.865 408.865-408.865 103.134 103.129-408.87 408.87 408.87 408.869z" />
<glyph unicode="&#xe917;" glyph-name="download" d="M854.593 587.151h-195.758v293.649h-293.649v-293.649h-195.758l342.593-342.593 342.593 342.593zM463.055 489.266v293.649h97.894v-293.649h57.265l-106.214-106.206-106.206 106.206h57.265zM169.407 146.691h685.177v-97.894h-685.174v97.894z" />
<glyph unicode="&#xe918;" glyph-name="email" d="M883.587 857.905h-726.294c-49.934 0-90.787-40.853-90.787-90.787v-544.723c0-49.934 40.853-90.787 90.787-90.787h408.541v90.787h-408.541v453.934l363.147-226.967 363.147 226.967v-226.967h90.787v317.753c0 49.934-40.853 90.787-90.787 90.787zM520.438 540.152l-363.147 226.967h726.294l-363.147-226.967zM838.193 358.576l181.576-181.576-181.576-181.576v136.181h-181.576v90.787h181.576v136.181z" />
<glyph unicode="&#xe919;" glyph-name="print" d="M845.516 647.022h-47.644v238.226h-571.734v-238.226h-47.644c-79.087 0-142.931-63.845-142.931-142.931v-285.871h190.576v-190.576h571.734v190.576h190.576v285.871c0 79.087-63.845 142.931-142.931 142.931zM321.424 789.958h381.159v-142.931h-381.159v142.931zM702.576 218.22v-95.288h-381.159v190.576h381.159v-95.288zM797.873 313.512v95.288h-571.734v-95.288h-95.288v190.576c0 26.204 21.44 47.644 47.644 47.644h667.028c26.204 0 47.644-21.44 47.644-47.644v-190.576h-95.288z" />
<glyph unicode="&#xe91a;" glyph-name="calendar" d="M292.572 938.667c-40.395 0-73.143-32.747-73.143-73.143v-73.143h-146.286c-40.396 0-73.143-32.748-73.143-73.143v-731.428c0-40.397 32.747-73.143 73.143-73.143h877.713c40.397 0 73.143 32.746 73.143 73.143v731.428c0 40.395-32.746 73.143-73.143 73.143h-146.286v73.143c0 40.396-32.746 73.143-73.143 73.143s-73.143-32.747-73.143-73.143v-73.143h-292.571v73.143c0 40.396-32.748 73.143-73.143 73.143zM146.287 499.811h731.428v-438.857h-731.428v438.857z" />
<glyph unicode="&#xe91b;" glyph-name="arrow-left-short" d="M315.613 509.105l271.81 271.81-116.586 116.587-470.837-470.836 470.837-470.833 116.586 116.585-271.811 271.809h708.388v164.879h-708.387z" />
<glyph unicode="&#xe91c;" glyph-name="arrow-right-short" d="M708.424 509.096l-271.782 271.782 116.574 116.575 470.784-470.786-470.784-470.784-116.574 116.573 271.783 271.78h-708.425v164.861h708.424z" />
<glyph unicode="&#xe91d;" glyph-name="plus-circle" d="M1024 426.667c0 141.359-57.344 269.451-149.97 362.030s-220.673 149.97-362.030 149.97-269.451-57.344-362.030-149.97-149.97-220.673-149.97-362.030 57.344-269.451 149.97-362.030 220.673-149.97 362.030-149.97 269.451 57.344 362.030 149.97 149.97 220.673 149.97 362.030zM930.909 426.667c0-115.712-46.825-220.346-122.694-296.216s-180.503-122.694-296.216-122.694-220.346 46.825-296.216 122.694-122.694 180.503-122.694 296.216 46.825 220.346 122.694 296.216 180.503 122.694 296.216 122.694 220.346-46.825 296.216-122.694 122.694-180.503 122.694-296.216zM325.818 380.121h139.636v-139.636c0-25.693 20.853-46.546 46.546-46.546s46.546 20.853 46.546 46.546v139.636h139.636c25.693 0 46.546 20.853 46.546 46.546s-20.853 46.546-46.546 46.546h-139.636v139.636c0 25.693-20.853 46.546-46.546 46.546s-46.546-20.853-46.546-46.546v-139.636h-139.636c-25.693 0-46.546-20.853-46.546-46.546s20.853-46.546 46.546-46.546z" />
<glyph unicode="&#xe91e;" glyph-name="arrow-down" d="M120.328 742.826l391.677-390.832 391.677 390.832 120.318-120.318-512-512-512 512 120.318 120.318z" />
<glyph unicode="&#xe91f;" glyph-name="home" d="M511.999 724.139l256.002-230.401v-399.872h-102.401v307.199h-307.199v-307.199h-102.401v399.872l255.999 230.401zM511.999 861.868l-511.999-460.801h153.6v-409.599h307.202v307.203h102.398v-307.203h307.203v409.599h153.598l-512 460.801z" />
<glyph unicode="&#xe920;" glyph-name="help-circle" d="M1024 426.667c0 141.359-57.344 269.451-149.97 362.030s-220.673 149.97-362.030 149.97-269.451-57.344-362.030-149.97-149.97-220.673-149.97-362.030 57.344-269.451 149.97-362.030 220.673-149.97 362.030-149.97 269.451 57.344 362.030 149.97 149.97 220.673 149.97 362.030zM930.909 426.667c0-115.712-46.825-220.346-122.694-296.216s-180.503-122.694-296.216-122.694-220.346 46.825-296.216 122.694-122.694 180.503-122.694 296.216 46.825 220.346 122.694 296.216 180.503 122.694 296.216 122.694 220.346-46.825 296.216-122.694 122.694-180.503 122.694-296.216zM420.445 550.851c8.518 24.25 26.019 42.729 47.569 53.062s46.871 12.428 71.122 3.863c21.317-7.493 38.121-21.876 48.873-39.983 8.518-14.29 13.219-30.952 13.312-48.267 0-7.214-1.815-14.383-5.446-21.597-3.723-7.448-9.448-15.128-17.128-22.808-33.001-33.001-85.225-50.828-85.225-50.828-24.389-8.146-37.562-34.49-29.416-58.88s34.49-37.562 58.88-29.416c0 0 71.866 23.552 121.623 73.309 12.986 12.986 25.367 28.579 34.583 47.011 9.309 18.619 15.267 39.936 15.267 63.721-0.187 34.024-9.495 66.886-26.391 95.372-21.551 36.213-55.389 65.257-97.978 80.244-48.501 17.036-99.374 12.8-142.29-7.773s-78.104-57.623-95.139-106.124c-8.565-24.25 4.189-50.828 28.439-59.345s50.828 4.236 59.345 28.439zM512 147.394c25.693 0 46.546 20.853 46.546 46.546s-20.853 46.546-46.546 46.546-46.546-20.853-46.546-46.546 20.853-46.546 46.546-46.546z" />
</font>
</defs>
</svg>
