<svg width="47" height="33" viewBox="0 0 47 33" fill="none" xmlns="http://www.w3.org/2000/svg">
<rect x="0.690592" y="1.03031" width="45.9101" height="31.2721" rx="3.6595" fill="white" stroke="#D9D9D9" stroke-width="0.665363"/>
<path fill-rule="evenodd" clip-rule="evenodd" d="M13.1069 11.7999C12.716 12.2682 12.0905 12.6376 11.465 12.5848C11.3868 11.9516 11.693 11.2789 12.0514 10.8634C12.4423 10.3819 13.1265 10.039 13.6803 10.0126C13.7454 10.6721 13.4913 11.3185 13.1069 11.7999ZM13.6736 12.7089C13.1225 12.6768 12.6197 12.8767 12.2136 13.0381C11.9522 13.142 11.7309 13.23 11.5625 13.23C11.3736 13.23 11.1431 13.1373 10.8844 13.0333C10.5453 12.8969 10.1577 12.741 9.7512 12.7485C8.81947 12.7617 7.9529 13.2959 7.47726 14.1468C6.49993 15.8484 7.22316 18.3679 8.16792 19.7529C8.63052 20.4388 9.18435 21.1907 9.91409 21.1644C10.2351 21.1521 10.4661 21.0529 10.7051 20.9502C10.9802 20.832 11.2661 20.7093 11.7124 20.7093C12.1432 20.7093 12.4166 20.8288 12.679 20.9436C12.9285 21.0528 13.168 21.1576 13.5237 21.1512C14.2795 21.138 14.7552 20.4652 15.2178 19.7793C15.717 19.0431 15.9364 18.3246 15.9697 18.2156L15.9736 18.203C15.9728 18.2022 15.9666 18.1993 15.9558 18.1943L15.9557 18.1943C15.7888 18.1169 14.5133 17.5258 14.5011 15.9407C14.4888 14.6103 15.5128 13.9362 15.674 13.8301L15.674 13.8301C15.6838 13.8236 15.6904 13.8193 15.6934 13.817C15.0419 12.8409 14.0254 12.7353 13.6736 12.7089ZM18.9058 21.0785V10.7962H22.7174C24.6851 10.7962 26.0599 12.168 26.0599 14.1731C26.0599 16.1781 24.6591 17.5632 22.6653 17.5632H20.4826V21.0785H18.9058ZM20.4825 12.1441H22.3004C23.6687 12.1441 24.4505 12.8828 24.4505 14.1821C24.4505 15.4814 23.6687 16.2267 22.2939 16.2267H20.4825V12.1441ZM31.266 19.8464C30.8491 20.651 29.9304 21.1589 28.94 21.1589C27.474 21.1589 26.451 20.2751 26.451 18.9428C26.451 17.6237 27.4414 16.8652 29.2723 16.7531L31.24 16.6344V16.0672C31.24 15.2295 30.6992 14.7744 29.7349 14.7744C28.94 14.7744 28.3601 15.19 28.2428 15.8231H26.8224C26.868 14.4908 28.106 13.5213 29.7805 13.5213C31.5853 13.5213 32.7581 14.4776 32.7581 15.9616V21.0797H31.2986V19.8464H31.266ZM29.3631 19.9376C28.5226 19.9376 27.9883 19.5287 27.9883 18.9022C27.9883 18.2558 28.503 17.8799 29.4869 17.8205L31.2396 17.7084V18.2888C31.2396 19.2517 30.4316 19.9376 29.3631 19.9376ZM37.5991 21.4825C36.9671 23.2831 36.2439 23.8767 34.7062 23.8767C34.5889 23.8767 34.198 23.8635 34.1068 23.8371V22.6038C34.2045 22.6169 34.4456 22.6301 34.5694 22.6301C35.2666 22.6301 35.6575 22.3333 35.8986 21.5617L36.0419 21.1066L33.3705 13.6207H35.019L36.8759 19.6951H36.9085L38.7654 13.6207H40.3683L37.5991 21.4825Z" fill="black"/>
</svg>
