<svg width="47" height="33" viewBox="0 0 47 33" fill="none" xmlns="http://www.w3.org/2000/svg">
<rect x="1.12101" y="1.03031" width="45.9101" height="31.2721" rx="3.6595" fill="white" stroke="#D9D9D9" stroke-width="0.665363"/>
<path fill-rule="evenodd" clip-rule="evenodd" d="M22.7852 21.6688V17.6487H24.8601C25.7103 17.6487 26.4279 17.3638 27.0129 16.8019L27.1533 16.6595C28.2219 15.4962 28.1517 13.684 27.0129 12.6078C26.4435 12.038 25.6635 11.7294 24.8601 11.7452H21.5294V21.6688H22.7852ZM22.7855 16.4298V12.9637H24.8919C25.3443 12.9637 25.7734 13.1378 26.0933 13.4543C26.772 14.119 26.7876 15.2269 26.1323 15.9154C25.8124 16.2557 25.3599 16.4456 24.8919 16.4298H22.7855ZM33.0119 15.4084C32.4736 14.9099 31.7404 14.6566 30.8122 14.6566C29.6188 14.6566 28.7218 15.0998 28.129 15.9782L29.2366 16.6825C29.6422 16.0811 30.196 15.7804 30.898 15.7804C31.3426 15.7804 31.7716 15.9465 32.107 16.2472C32.4346 16.5321 32.6218 16.9436 32.6218 17.3789V17.6717C32.1382 17.4026 31.5298 17.2602 30.781 17.2602C29.9074 17.2602 29.2054 17.4659 28.6828 17.8853C28.1602 18.3048 27.895 18.8587 27.895 19.563C27.8794 20.204 28.1524 20.8133 28.636 21.2248C29.1274 21.668 29.7514 21.8896 30.4846 21.8896C31.3504 21.8896 32.0368 21.5018 32.5594 20.7263H32.614V21.668H33.8153V17.4818C33.8153 16.6034 33.5501 15.907 33.0119 15.4084ZM29.604 20.4171C29.3466 20.2272 29.1905 19.9185 29.1905 19.5862C29.1905 19.2142 29.3622 18.9056 29.6976 18.6603C30.0409 18.415 30.47 18.2883 30.977 18.2883C31.6792 18.2804 32.2253 18.4387 32.6153 18.7552C32.6153 19.2934 32.4047 19.7603 31.9912 20.1559C31.6168 20.5358 31.1097 20.7494 30.5792 20.7494C30.2281 20.7574 29.8849 20.6387 29.604 20.4171ZM36.5141 24.652L40.7105 14.8789H39.3455L37.4033 19.7536H37.3799L35.3909 14.8789H34.0258L36.7793 21.2334L35.2192 24.652H36.5141Z" fill="#3C4043"/>
<path d="M18.4501 16.7772C18.4501 16.3894 18.4189 16.0017 18.3565 15.6218H13.0602V17.8139H16.0944C15.9696 18.5182 15.564 19.1513 14.9712 19.5469V20.9714H16.7808C17.8417 19.9822 18.4501 18.5182 18.4501 16.7772Z" fill="#4285F4"/>
<path d="M13.0604 22.3474C14.5736 22.3474 15.8529 21.8409 16.7811 20.9704L14.9714 19.546C14.4644 19.8942 13.817 20.092 13.0604 20.092C11.594 20.092 10.3538 19.087 9.90915 17.7417H8.04492V19.2136C8.99654 21.1366 10.9388 22.3474 13.0604 22.3474Z" fill="#34A853"/>
<path d="M9.90908 17.7436C9.67504 17.0393 9.67504 16.2717 9.90908 15.5595V14.0955H8.04455C7.24101 15.7019 7.24101 17.6011 8.04455 19.2076L9.90908 17.7436Z" fill="#FBBC04"/>
<path d="M13.0604 13.208C13.8638 13.1921 14.636 13.5008 15.2132 14.0626L16.8201 12.4324C15.7983 11.467 14.4566 10.9368 13.0604 10.9526C10.9388 10.9526 8.99654 12.1713 8.04492 14.0943L9.90915 15.5662C10.3538 14.213 11.594 13.208 13.0604 13.208Z" fill="#EA4335"/>
</svg>
