<svg width="47" height="33" viewBox="0 0 47 33" fill="none" xmlns="http://www.w3.org/2000/svg">
<rect x="1.26017" y="1.03031" width="45.9101" height="31.2721" rx="3.6595" fill="white" stroke="#D9D9D9" stroke-width="0.665363"/>
<path d="M39.0234 12.5089H32.1702C32.5694 14.7711 34.7651 16.9003 37.1604 16.9003H42.6164C42.6829 16.7007 42.6829 16.368 42.6829 16.1684C42.6829 14.1723 41.0195 12.5089 39.0234 12.5089Z" fill="url(#paint0_linear)"/>
<path d="M32.7692 17.3V22.8226H36.096V19.895H39.0236C40.6204 19.895 42.0177 18.7638 42.4835 17.3H32.7692Z" fill="#4FAD50"/>
<path d="M21.0586 12.5089V22.7555H23.9862C23.9862 22.7555 24.7181 22.7555 25.1173 22.0236C27.1134 18.098 27.7122 16.9003 27.7122 16.9003H28.1114V22.7555H31.4383V12.5089H28.5107C28.5107 12.5089 27.7788 12.5755 27.3795 13.2408C25.7161 16.6342 24.7846 18.3641 24.7846 18.3641H24.3854V12.5089H21.0586Z" fill="#4FAD50"/>
<path d="M7.08582 22.8214V12.5748H10.4126C10.4126 12.5748 11.3441 12.5748 11.8764 14.0386C13.2072 17.8977 13.3402 18.43 13.3402 18.43C13.3402 18.43 13.6064 17.4985 14.804 14.0386C15.3363 12.5748 16.2678 12.5748 16.2678 12.5748H19.5947V22.8214H16.2678V17.2989H15.8686L14.0056 22.8214H12.5418L10.6788 17.2989H10.2796V22.8214H7.08582Z" fill="#4FAD50"/>
<defs>
<linearGradient id="paint0_linear" x1="32.1583" y1="14.7361" x2="42.6593" y2="14.7361" gradientUnits="userSpaceOnUse">
<stop stop-color="#27B1E6"/>
<stop offset="1" stop-color="#148ACA"/>
</linearGradient>
</defs>
</svg>
