<svg width="18" height="15" viewBox="0 0 18 15" fill="none" xmlns="http://www.w3.org/2000/svg">
<path fill-rule="evenodd" clip-rule="evenodd" d="M13.3453 14.637C14.329 15.0674 14.6979 14.1657 14.6979 14.1657L17.3007 1.09027C17.2802 0.20901 16.0915 0.741864 16.0915 0.741864L1.52003 6.45979C1.52003 6.45979 0.823218 6.70573 0.884701 7.13611C0.946184 7.56649 1.49953 7.77143 1.49953 7.77143L5.16803 9.0011C5.16803 9.0011 6.27472 12.6286 6.50016 13.3254C6.7051 14.0017 6.88955 14.0222 6.88955 14.0222C7.0945 14.1042 7.27895 13.9607 7.27895 13.9607L9.65629 11.8088L13.3453 14.637ZM13.9802 3.40614C13.9802 3.40614 14.4926 3.09873 14.4721 3.40614C14.4721 3.40614 14.554 3.44713 14.2876 3.73405C14.0417 3.97998 8.24178 9.18556 7.46299 9.88237C7.40151 9.92335 7.36052 9.98484 7.36052 10.0668L7.13508 11.9933C7.09409 12.1982 6.82766 12.2187 6.76618 12.0343L5.80295 8.87814C5.76196 8.75517 5.80295 8.61171 5.92591 8.52974L13.9802 3.40614Z" fill="white"/>
</svg>
