<svg width="17" height="14" viewBox="0 0 17 14" fill="none" xmlns="http://www.w3.org/2000/svg">
<path d="M15.1849 3.62579C15.1849 3.77973 15.1849 3.93366 15.1849 4.06561C15.1849 8.61771 11.7103 13.8735 5.37694 13.8735C3.41976 13.8735 1.61651 13.3018 0.0771484 12.3342C0.341039 12.3562 0.62692 12.3781 0.89081 12.3781C2.49614 12.3781 3.99152 11.8284 5.17902 10.9048C3.66166 10.8828 2.38619 9.87119 1.96836 8.50776C2.18827 8.55174 2.38619 8.57373 2.62809 8.57373C2.93596 8.57373 3.24383 8.52975 3.52971 8.44179C1.94637 8.13391 0.758865 6.74849 0.758865 5.07719C0.758865 5.0552 0.758865 5.0552 0.758865 5.03321C1.22067 5.2971 1.74845 5.45103 2.32021 5.47302C1.3966 4.85728 0.780856 3.80172 0.780856 2.59222C0.780856 1.95449 0.956782 1.36073 1.24266 0.854944C2.93596 2.94407 5.4869 4.30751 8.34571 4.46144C8.27973 4.21954 8.25774 3.93366 8.25774 3.66977C8.25774 1.75657 9.7971 0.217209 11.7103 0.217209C12.6999 0.217209 13.6015 0.635035 14.2173 1.29476C15.0089 1.14082 15.7346 0.854944 16.4163 0.459108C16.1525 1.27277 15.6027 1.9325 14.899 2.37231C15.6027 2.28435 16.2624 2.10842 16.8782 1.82254C16.4383 2.52625 15.8666 3.14199 15.1849 3.62579Z" fill="white"/>
</svg>
