<svg width="20" height="12" viewBox="0 0 20 12" fill="none" xmlns="http://www.w3.org/2000/svg">
<path fill-rule="evenodd" clip-rule="evenodd" d="M19.0264 1.28995C19.1569 0.855015 19.0264 0.535339 18.4055 0.535339H16.3525C15.8305 0.535339 15.59 0.811462 15.4595 1.11603C15.4595 1.11603 14.4154 3.66068 12.9364 5.3136C12.4579 5.79209 12.2405 5.94415 11.9795 5.94415C11.8489 5.94415 11.6601 5.79209 11.6601 5.35715V1.28995C11.6601 0.767911 11.5086 0.535339 11.0735 0.535339H7.84743C7.52131 0.535339 7.3251 0.777589 7.3251 1.00723C7.3251 1.50214 8.06446 1.61622 8.14071 3.00813V6.0314C8.14071 6.69421 8.02106 6.81446 7.76004 6.81446C7.06408 6.81446 5.37127 4.25823 4.36708 1.3335C4.17029 0.764978 3.97291 0.535339 3.44824 0.535339H1.39528C0.808718 0.535339 0.691406 0.811462 0.691406 1.11603C0.691406 1.65977 1.38751 4.35678 3.93215 7.92364C5.62877 10.3593 8.01871 11.68 10.1937 11.68C11.4988 11.68 11.6601 11.3867 11.6601 10.8815V9.04045C11.6601 8.45389 11.7837 8.33687 12.1968 8.33687C12.5015 8.33687 13.0234 8.48909 14.2415 9.66353C15.6334 11.0553 15.8628 11.68 16.6458 11.68H18.6988C19.2853 11.68 19.5786 11.3867 19.4094 10.8079C19.2243 10.231 18.5598 9.39429 17.6779 8.40213C17.1994 7.83654 16.4816 7.22754 16.2643 6.92312C15.9597 6.53159 16.0467 6.35768 16.2643 6.00985C16.2643 6.00985 18.7654 2.48638 19.0264 1.2901V1.28995Z" fill="white"/>
</svg>
