<svg width="101" height="65" viewBox="0 0 101 65" fill="none" xmlns="http://www.w3.org/2000/svg">
<path d="M1.67354 62.7975V57.8425H2.44729V60.8557C2.44729 61.1433 2.43737 61.3864 2.41753 61.5848H2.43241C2.61593 61.2773 2.78208 61.0169 2.93088 60.8036L4.9471 57.8425H5.7878V62.7975H5.00661V59.5686C5.00661 59.3801 5.01653 59.1767 5.03637 58.9585H5.02149C4.91734 59.1569 4.7735 59.39 4.58998 59.6578L2.43985 62.7975H1.67354ZM6.64671 62.5445L6.95174 62.0237C7.18982 62.1874 7.49238 62.2693 7.85941 62.2693C8.33556 62.2693 8.57364 62.0907 8.57364 61.7336C8.57364 61.5699 8.48684 61.4409 8.31324 61.3467C8.14461 61.2525 7.94125 61.2053 7.70317 61.2053H7.47254V60.6994H7.69573C7.90901 60.6994 8.08509 60.6573 8.22397 60.573C8.3678 60.4837 8.43972 60.3622 8.43972 60.2084C8.43972 60.0546 8.38516 59.9356 8.27605 59.8513C8.17189 59.762 8.02061 59.7174 7.82221 59.7174C7.50974 59.7174 7.23446 59.7967 6.99638 59.9554L6.71367 59.4421C7.03606 59.2239 7.41302 59.1147 7.84453 59.1147C8.23637 59.1147 8.56124 59.1991 8.81916 59.3677C9.08203 59.5363 9.21347 59.7818 9.21347 60.1042C9.21347 60.5358 8.99028 60.8061 8.54388 60.9152V60.9301C8.777 60.9598 8.97044 61.0516 9.12419 61.2053C9.28291 61.3541 9.36227 61.5525 9.36227 61.8005C9.36227 62.1527 9.22339 62.4205 8.94564 62.604C8.66788 62.7876 8.30332 62.8793 7.85197 62.8793C7.3659 62.8793 6.96414 62.7677 6.64671 62.5445ZM11.6442 62.8868C11.2523 62.8868 10.92 62.79 10.6472 62.5966C10.3744 62.3982 10.181 62.1626 10.0669 61.8898C9.95779 61.617 9.90323 61.3219 9.90323 61.0045C9.90323 60.687 9.95779 60.3919 10.0669 60.1191C10.176 59.8414 10.3645 59.6033 10.6323 59.4049C10.9051 59.2065 11.2375 59.1073 11.6293 59.1073C12.0211 59.1073 12.3559 59.204 12.6337 59.3974C12.9114 59.5909 13.1098 59.8265 13.2289 60.1042C13.3479 60.377 13.4074 60.6697 13.4074 60.9821C13.4074 61.4781 13.2561 61.9196 12.9536 62.3065C12.651 62.6933 12.2146 62.8868 11.6442 62.8868ZM11.6516 62.2618C11.9591 62.2618 12.1873 62.1477 12.3361 61.9196C12.4898 61.6914 12.5667 61.3864 12.5667 61.0045C12.5667 60.6275 12.4849 60.32 12.3212 60.0819C12.1625 59.8438 11.9269 59.7248 11.6144 59.7248C11.3119 59.7248 11.0887 59.8389 10.9448 60.067C10.8059 60.2952 10.7365 60.6002 10.7365 60.9821C10.7365 61.3641 10.8134 61.6741 10.9671 61.9121C11.1209 62.1453 11.3491 62.2618 11.6516 62.2618ZM15.729 62.8868C15.4115 62.8868 15.1363 62.8198 14.9031 62.6859C14.67 62.547 14.489 62.3561 14.36 62.113C14.236 61.87 14.1443 61.6021 14.0847 61.3095C14.0302 61.0169 14.0029 60.6895 14.0029 60.3274C14.0029 59.5686 14.1443 58.9635 14.427 58.5121C14.7147 58.0607 15.2007 57.7632 15.8852 57.6193L17.0682 57.3664L17.1872 58.0583L16.0117 58.2815C15.233 58.4402 14.8287 58.9064 14.799 59.6802C15.0619 59.3429 15.4115 59.1743 15.848 59.1743C16.3043 59.1743 16.6813 59.3379 16.9789 59.6653C17.2765 59.9926 17.4253 60.439 17.4253 61.0045C17.4253 61.5649 17.2591 62.0188 16.9268 62.366C16.5994 62.7132 16.2002 62.8868 15.729 62.8868ZM15.7438 62.2618C16.0018 62.2618 16.2051 62.1527 16.3539 61.9345C16.5077 61.7113 16.5846 61.4062 16.5846 61.0193C16.5846 60.6424 16.5126 60.3423 16.3688 60.1191C16.225 59.891 16.0216 59.7769 15.7587 59.7769C15.5355 59.7769 15.3545 59.8265 15.2156 59.9257C15.0767 60.0249 14.9503 60.1613 14.8362 60.3349C14.8312 60.3646 14.8287 60.4366 14.8287 60.5506C14.8287 61.126 14.9081 61.555 15.0668 61.8377C15.2305 62.1205 15.4562 62.2618 15.7438 62.2618ZM18.2514 64.4268V59.1966H19.0326V59.576C19.2955 59.2635 19.6352 59.1073 20.0518 59.1073C20.5032 59.1073 20.8578 59.2735 21.1157 59.6058C21.3786 59.9331 21.5101 60.3944 21.5101 60.9896C21.5101 61.555 21.3613 62.0138 21.0637 62.366C20.7661 62.7132 20.3817 62.8868 19.9105 62.8868C19.5583 62.8868 19.2682 62.7925 19.04 62.604V64.4268H18.2514ZM19.7691 62.2544C20.0568 62.2544 20.2775 62.1403 20.4313 61.9121C20.59 61.684 20.6694 61.3789 20.6694 60.997C20.6694 60.6151 20.5974 60.315 20.4536 60.0968C20.3147 59.8736 20.1064 59.762 19.8286 59.762C19.5162 59.762 19.2533 59.9058 19.04 60.1935V61.9717C19.2483 62.1601 19.4914 62.2544 19.7691 62.2544ZM23.1082 62.8868C22.8007 62.8868 22.5477 62.7975 22.3493 62.6189C22.1509 62.4404 22.0517 62.1973 22.0517 61.8898C22.0517 61.5972 22.1509 61.3517 22.3493 61.1533C22.5477 60.9549 22.7833 60.8185 23.0561 60.7441C23.3339 60.6697 23.6389 60.6325 23.9712 60.6325H24.1126V60.3721C24.1126 60.1538 24.0605 59.9976 23.9563 59.9034C23.8571 59.8042 23.6935 59.7546 23.4653 59.7546C23.133 59.7546 22.8255 59.8761 22.5428 60.1191L22.1708 59.6132C22.5428 59.2759 23.0016 59.1073 23.5471 59.1073C23.9985 59.1073 24.3358 59.209 24.559 59.4123C24.7871 59.6157 24.9012 59.9381 24.9012 60.3795V61.8452C24.9012 62.2122 24.931 62.5296 24.9905 62.7975H24.2093C24.1795 62.6685 24.1597 62.5321 24.1498 62.3883C23.8919 62.7206 23.5447 62.8868 23.1082 62.8868ZM23.3165 62.2767C23.629 62.2767 23.8943 62.1428 24.1126 61.8749V61.1533H23.9712C23.2173 61.1533 22.8404 61.3839 22.8404 61.8452C22.8404 61.989 22.8875 62.0981 22.9817 62.1725C23.0759 62.242 23.1875 62.2767 23.3165 62.2767ZM25.6099 62.7975L25.6174 62.1949H25.662C25.7562 62.1949 25.848 62.1453 25.9373 62.0461C26.0315 61.9469 26.1605 61.7658 26.3241 61.5029C26.5424 61.1657 26.7234 60.9449 26.8673 60.8408L25.543 59.1966H26.4209L27.574 60.6846H27.8344V59.1966H28.6305V60.6846H28.8835L30.0441 59.1966H30.922L29.5977 60.8408C29.7465 60.9549 29.9275 61.1756 30.1408 61.5029C30.3045 61.7658 30.431 61.9469 30.5203 62.0461C30.6145 62.1453 30.7062 62.1949 30.7955 62.1949H30.855L30.8402 62.7975H30.5426C30.3343 62.7975 30.1631 62.7404 30.0292 62.6264C29.9003 62.5123 29.7291 62.2916 29.5159 61.9642C29.3522 61.7013 29.2183 61.5153 29.1141 61.4062C29.0149 61.2971 28.9132 61.2401 28.8091 61.2351H28.6305V62.7975H27.8344V61.2351H27.6559C27.5517 61.2401 27.4476 61.2971 27.3434 61.4062C27.2442 61.5153 27.1128 61.7013 26.9491 61.9642C26.7309 62.2916 26.5548 62.5123 26.4209 62.6264C26.2919 62.7404 26.1233 62.7975 25.915 62.7975H25.6099ZM33.0498 62.8868C32.4794 62.8868 32.0355 62.7107 31.7181 62.3585C31.4056 62.0064 31.2494 61.5451 31.2494 60.9747C31.2494 60.4291 31.4081 59.9827 31.7255 59.6355C32.0479 59.2834 32.4571 59.1073 32.9531 59.1073C33.4342 59.1073 33.8037 59.2586 34.0616 59.5611C34.3245 59.8587 34.456 60.2729 34.456 60.8036C34.456 60.873 34.451 60.9772 34.4411 61.1161H32.0901C32.1099 61.4633 32.2017 61.7435 32.3653 61.9568C32.529 62.1651 32.777 62.2693 33.1093 62.2693C33.402 62.2693 33.7219 62.175 34.0691 61.9865L34.3444 62.5296C33.9525 62.7677 33.521 62.8868 33.0498 62.8868ZM32.0975 60.5506H33.6748C33.6549 59.9902 33.4094 59.7099 32.9382 59.7099C32.4769 59.7099 32.1967 59.9902 32.0975 60.5506ZM35.3254 62.7975V59.1966H36.1214V60.6102H37.7285V59.1966H38.5245V62.7975H37.7285V61.25H36.1214V62.7975H35.3254ZM39.6702 62.7975V59.1966H40.3844V61.1607C40.3844 61.2153 40.3819 61.2723 40.377 61.3318C40.377 61.3864 40.377 61.4385 40.377 61.4881C40.377 61.5327 40.3745 61.5749 40.3695 61.6145C40.3695 61.6542 40.367 61.6865 40.3621 61.7113V61.7485H40.3695L40.4216 61.6666C40.4563 61.6071 40.5059 61.5253 40.5704 61.4211C40.6349 61.312 40.6994 61.2103 40.7638 61.1161L42.1402 59.1966H42.9214V62.7975H42.1997V60.6697C42.1997 60.625 42.1997 60.5779 42.1997 60.5283C42.2047 60.4738 42.2072 60.4266 42.2072 60.387C42.2072 60.3473 42.2072 60.3126 42.2072 60.2828C42.2121 60.2481 42.2171 60.2208 42.2221 60.201V60.1712H42.2072C42.2072 60.201 42.0881 60.3894 41.8501 60.7366L40.3695 62.7975H39.6702ZM45.5538 62.8868C44.9834 62.8868 44.5395 62.7107 44.222 62.3585C43.9096 62.0064 43.7533 61.5451 43.7533 60.9747C43.7533 60.4291 43.9121 59.9827 44.2295 59.6355C44.5519 59.2834 44.9611 59.1073 45.4571 59.1073C45.9382 59.1073 46.3077 59.2586 46.5656 59.5611C46.8285 59.8587 46.9599 60.2729 46.9599 60.8036C46.9599 60.873 46.955 60.9772 46.9451 61.1161H44.594C44.6139 61.4633 44.7056 61.7435 44.8693 61.9568C45.033 62.1651 45.281 62.2693 45.6133 62.2693C45.9059 62.2693 46.2259 62.175 46.5731 61.9865L46.8483 62.5296C46.4565 62.7677 46.025 62.8868 45.5538 62.8868ZM44.6015 60.5506H46.1787C46.1589 59.9902 45.9134 59.7099 45.4422 59.7099C44.9809 59.7099 44.7007 59.9902 44.6015 60.5506ZM50.8203 62.8868C50.2796 62.8868 49.8506 62.7082 49.5332 62.3511C49.2207 61.994 49.0644 61.5426 49.0644 60.997C49.0644 60.4068 49.2306 59.9455 49.5629 59.6132C49.9002 59.2759 50.3292 59.1073 50.85 59.1073C51.2766 59.1073 51.6436 59.2139 51.9511 59.4272L51.661 59.9852C51.408 59.8166 51.1427 59.7322 50.8649 59.7322C50.5475 59.7322 50.3069 59.8463 50.1432 60.0745C49.9795 60.2977 49.8977 60.5978 49.8977 60.9747C49.8977 61.3517 49.9795 61.6592 50.1432 61.8973C50.3119 62.1353 50.5574 62.2544 50.8798 62.2544C51.1476 62.2544 51.4229 62.1701 51.7056 62.0014L51.966 62.5445C51.6833 62.7727 51.3014 62.8868 50.8203 62.8868ZM52.7263 62.7975V59.1966H53.5224V60.6846H53.7754L54.936 59.1966H55.8139L54.4896 60.8408C54.6384 60.9549 54.8194 61.1756 55.0327 61.5029C55.1964 61.7658 55.3229 61.9469 55.4121 62.0461C55.5064 62.1453 55.5981 62.1949 55.6874 62.1949H55.7469L55.732 62.7975H55.4345C55.2261 62.7975 55.055 62.7404 54.9211 62.6264C54.7921 62.5123 54.621 62.2916 54.4077 61.9642C54.2441 61.7013 54.1101 61.5153 54.006 61.4062C53.9068 61.2971 53.8051 61.2401 53.701 61.2351H53.5224V62.7975H52.7263ZM57.8529 62.8868C57.4611 62.8868 57.1288 62.79 56.856 62.5966C56.5832 62.3982 56.3898 62.1626 56.2757 61.8898C56.1666 61.617 56.112 61.3219 56.112 61.0045C56.112 60.687 56.1666 60.3919 56.2757 60.1191C56.3848 59.8414 56.5733 59.6033 56.8411 59.4049C57.1139 59.2065 57.4462 59.1073 57.8381 59.1073C58.2299 59.1073 58.5647 59.204 58.8424 59.3974C59.1202 59.5909 59.3186 59.8265 59.4376 60.1042C59.5567 60.377 59.6162 60.6697 59.6162 60.9821C59.6162 61.4781 59.4649 61.9196 59.1624 62.3065C58.8598 62.6933 58.4233 62.8868 57.8529 62.8868ZM57.8604 62.2618C58.1679 62.2618 58.3961 62.1477 58.5449 61.9196C58.6986 61.6914 58.7755 61.3864 58.7755 61.0045C58.7755 60.6275 58.6937 60.32 58.53 60.0819C58.3713 59.8438 58.1357 59.7248 57.8232 59.7248C57.5206 59.7248 57.2974 59.8389 57.1536 60.067C57.0147 60.2952 56.9453 60.6002 56.9453 60.9821C56.9453 61.3641 57.0222 61.6741 57.1759 61.9121C57.3297 62.1453 57.5578 62.2618 57.8604 62.2618ZM60.4423 64.4268V59.1966H61.2235V59.576C61.4864 59.2635 61.8261 59.1073 62.2428 59.1073C62.6941 59.1073 63.0488 59.2735 63.3067 59.6058C63.5696 59.9331 63.701 60.3944 63.701 60.9896C63.701 61.555 63.5522 62.0138 63.2546 62.366C62.957 62.7132 62.5726 62.8868 62.1014 62.8868C61.7493 62.8868 61.4591 62.7925 61.2309 62.604V64.4268H60.4423ZM61.9601 62.2544C62.2477 62.2544 62.4685 62.1403 62.6222 61.9121C62.7809 61.684 62.8603 61.3789 62.8603 60.997C62.8603 60.6151 62.7884 60.315 62.6445 60.0968C62.5057 59.8736 62.2973 59.762 62.0196 59.762C61.7071 59.762 61.4442 59.9058 61.2309 60.1935V61.9717C61.4393 62.1601 61.6823 62.2544 61.9601 62.2544ZM65.9613 62.8868C65.5694 62.8868 65.2371 62.79 64.9643 62.5966C64.6915 62.3982 64.4981 62.1626 64.384 61.8898C64.2749 61.617 64.2203 61.3219 64.2203 61.0045C64.2203 60.687 64.2749 60.3919 64.384 60.1191C64.4931 59.8414 64.6816 59.6033 64.9494 59.4049C65.2222 59.2065 65.5546 59.1073 65.9464 59.1073C66.3382 59.1073 66.673 59.204 66.9508 59.3974C67.2285 59.5909 67.4269 59.8265 67.546 60.1042C67.665 60.377 67.7245 60.6697 67.7245 60.9821C67.7245 61.4781 67.5733 61.9196 67.2707 62.3065C66.9681 62.6933 66.5317 62.8868 65.9613 62.8868ZM65.9687 62.2618C66.2762 62.2618 66.5044 62.1477 66.6532 61.9196C66.8069 61.6914 66.8838 61.3864 66.8838 61.0045C66.8838 60.6275 66.802 60.32 66.6383 60.0819C66.4796 59.8438 66.244 59.7248 65.9315 59.7248C65.629 59.7248 65.4058 59.8389 65.2619 60.067C65.123 60.2952 65.0536 60.6002 65.0536 60.9821C65.0536 61.3641 65.1305 61.6741 65.2842 61.9121C65.438 62.1453 65.6662 62.2618 65.9687 62.2618ZM70.0982 62.7975V59.1966H73.1932V62.7975H72.3971V59.829H70.8943V62.7975H70.0982ZM75.7697 62.8868C75.3779 62.8868 75.0456 62.79 74.7728 62.5966C74.5 62.3982 74.3066 62.1626 74.1925 61.8898C74.0834 61.617 74.0288 61.3219 74.0288 61.0045C74.0288 60.687 74.0834 60.3919 74.1925 60.1191C74.3016 59.8414 74.4901 59.6033 74.7579 59.4049C75.0307 59.2065 75.363 59.1073 75.7549 59.1073C76.1467 59.1073 76.4815 59.204 76.7592 59.3974C77.037 59.5909 77.2354 59.8265 77.3544 60.1042C77.4735 60.377 77.533 60.6697 77.533 60.9821C77.533 61.4781 77.3817 61.9196 77.0792 62.3065C76.7766 62.6933 76.3401 62.8868 75.7697 62.8868ZM75.7772 62.2618C76.0847 62.2618 76.3128 62.1477 76.4616 61.9196C76.6154 61.6914 76.6923 61.3864 76.6923 61.0045C76.6923 60.6275 76.6104 60.32 76.4468 60.0819C76.288 59.8438 76.0525 59.7248 75.74 59.7248C75.4374 59.7248 75.2142 59.8389 75.0704 60.067C74.9315 60.2952 74.8621 60.6002 74.8621 60.9821C74.8621 61.3641 74.9389 61.6741 75.0927 61.9121C75.2465 62.1453 75.4746 62.2618 75.7772 62.2618ZM77.9148 62.7975V62.1949H77.9669C78.0562 62.1949 78.1454 62.1552 78.2347 62.0758C78.324 61.9915 78.4381 61.8452 78.577 61.6369C78.7506 61.369 78.9018 61.2128 79.0308 61.1681V61.1607C78.7977 61.1359 78.5943 61.0441 78.4207 60.8854C78.2521 60.7267 78.1678 60.5134 78.1678 60.2456C78.1678 59.9034 78.2893 59.643 78.5323 59.4644C78.7754 59.2859 79.1226 59.1966 79.5739 59.1966H80.9503V62.7975H80.1617V61.3244H79.9459C79.8417 61.3244 79.7376 61.3765 79.6334 61.4806C79.5342 61.5798 79.4077 61.7534 79.254 62.0014C79.0506 62.3189 78.882 62.5321 78.7481 62.6412C78.6142 62.7454 78.4406 62.7975 78.2273 62.7975H77.9148ZM79.5888 60.7738H80.1617V59.7918H79.626C79.3978 59.7918 79.2317 59.8314 79.1275 59.9108C79.0234 59.9902 78.9713 60.1142 78.9713 60.2828C78.9713 60.6102 79.1771 60.7738 79.5888 60.7738ZM82.0936 62.7975V59.1966H83.5295C84.4024 59.1966 84.8389 59.4991 84.8389 60.1042C84.8389 60.5358 84.6182 60.8061 84.1768 60.9152V60.9301C84.4099 60.9598 84.6033 61.0516 84.7571 61.2053C84.9158 61.3541 84.9952 61.5525 84.9952 61.8005C84.9952 62.4652 84.5016 62.7975 83.5146 62.7975H82.0936ZM82.8748 62.2023H83.4923C83.7453 62.2023 83.9263 62.1676 84.0354 62.0981C84.1495 62.0287 84.2065 61.9072 84.2065 61.7336C84.2065 61.3864 83.9808 61.2128 83.5295 61.2128H82.8748V62.2023ZM82.8748 60.6846H83.4402C83.8618 60.6846 84.0726 60.5258 84.0726 60.2084C84.0726 59.9207 83.8668 59.7769 83.4551 59.7769H82.8748V60.6846ZM85.8571 62.7975V59.1966H86.5714V61.1607C86.5714 61.2153 86.5689 61.2723 86.5639 61.3318C86.5639 61.3864 86.5639 61.4385 86.5639 61.4881C86.5639 61.5327 86.5615 61.5749 86.5565 61.6145C86.5565 61.6542 86.554 61.6865 86.5491 61.7113V61.7485H86.5565L86.6086 61.6666C86.6433 61.6071 86.6929 61.5253 86.7574 61.4211C86.8219 61.312 86.8863 61.2103 86.9508 61.1161L88.3272 59.1966H89.1084V62.7975H88.3867V60.6697C88.3867 60.625 88.3867 60.5779 88.3867 60.5283C88.3917 60.4738 88.3942 60.4266 88.3942 60.387C88.3942 60.3473 88.3942 60.3126 88.3942 60.2828C88.3991 60.2481 88.4041 60.2208 88.409 60.201V60.1712H88.3942C88.3942 60.201 88.2751 60.3894 88.037 60.7366L86.5565 62.7975H85.8571ZM90.9001 62.7975V59.8215H89.8064V59.1966H92.7972V59.8215H91.6961V62.7975H90.9001ZM94.8421 62.8868C94.3015 62.8868 93.8724 62.7082 93.555 62.3511C93.2425 61.994 93.0863 61.5426 93.0863 60.997C93.0863 60.4068 93.2524 59.9455 93.5848 59.6132C93.922 59.2759 94.3511 59.1073 94.8719 59.1073C95.2984 59.1073 95.6654 59.2139 95.973 59.4272L95.6828 59.9852C95.4298 59.8166 95.1645 59.7322 94.8867 59.7322C94.5693 59.7322 94.3287 59.8463 94.1651 60.0745C94.0014 60.2977 93.9195 60.5978 93.9195 60.9747C93.9195 61.3517 94.0014 61.6592 94.1651 61.8973C94.3337 62.1353 94.5792 62.2544 94.9016 62.2544C95.1695 62.2544 95.4447 62.1701 95.7274 62.0014L95.9878 62.5445C95.7051 62.7727 95.3232 62.8868 94.8421 62.8868ZM96.4129 62.7975V62.1949H96.4649C96.5542 62.1949 96.6435 62.1552 96.7328 62.0758C96.822 61.9915 96.9361 61.8452 97.075 61.6369C97.2486 61.369 97.3999 61.2128 97.5288 61.1681V61.1607C97.2957 61.1359 97.0924 61.0441 96.9188 60.8854C96.7501 60.7267 96.6658 60.5134 96.6658 60.2456C96.6658 59.9034 96.7873 59.643 97.0304 59.4644C97.2734 59.2859 97.6206 59.1966 98.072 59.1966H99.4483V62.7975H98.6597V61.3244H98.4439C98.3398 61.3244 98.2356 61.3765 98.1315 61.4806C98.0323 61.5798 97.9058 61.7534 97.752 62.0014C97.5487 62.3189 97.38 62.5321 97.2461 62.6412C97.1122 62.7454 96.9386 62.7975 96.7253 62.7975H96.4129ZM98.0868 60.7738H98.6597V59.7918H98.124C97.8959 59.7918 97.7297 59.8314 97.6256 59.9108C97.5214 59.9902 97.4693 60.1142 97.4693 60.2828C97.4693 60.6102 97.6752 60.7738 98.0868 60.7738Z" fill="black"/>
<path d="M82.2831 0.067749H18.747C17.6396 0.067749 16.7698 0.937613 16.7698 2.04501V47.522L42.606 29.7267L58.4241 49.4993L66.3332 41.5903L83.7067 50.9229C84.0232 50.5275 84.2603 50.0529 84.2603 49.4993V2.04501C84.2603 0.937613 83.3905 0.067749 82.2831 0.067749Z" fill="white"/>
<path d="M62.3786 23.7949C65.6495 23.7949 68.3104 21.134 68.3104 17.8631C68.3104 14.5922 65.6495 11.9313 62.3786 11.9313C59.1077 11.9313 56.4468 14.5922 56.4468 17.8631C56.4468 21.134 59.1077 23.7949 62.3786 23.7949ZM67.7313 35.0793C66.9592 34.3071 65.7073 34.3071 64.9351 35.0793L58.4241 41.5903L43.986 23.5426C43.2498 22.6224 41.8772 22.5463 41.0438 23.3797L16.7698 47.522V49.4993C16.7698 50.6064 17.6396 51.4766 18.747 51.4766H82.2831C82.8367 51.4766 83.3112 51.2393 83.7067 50.9229L67.7313 35.0793Z" fill="url(#paint0_linear)"/>
<defs>
<linearGradient id="paint0_linear" x1="50.2382" y1="51.4766" x2="50.2382" y2="11.9313" gradientUnits="userSpaceOnUse">
<stop stop-color="#21A73F"/>
<stop offset="1" stop-color="#67CE67"/>
</linearGradient>
</defs>
</svg>
