<svg width="41" height="41" viewBox="0 0 41 41" fill="none" xmlns="http://www.w3.org/2000/svg">
<g clip-path="url(#clip0)">
<path d="M13.6364 23.1717H27.5908C28.8944 23.1717 29.9165 22.1496 29.9165 20.846C29.9165 19.5423 28.8944 18.5203 27.5908 18.5203H13.6364C12.3328 18.5203 11.3107 19.5423 11.3107 20.846C11.3107 22.1496 12.3328 23.1717 13.6364 23.1717ZM15.8986 13.0853L15.5829 14.9317C15.4398 15.7812 15.8032 16.6647 16.5073 17.178C17.264 17.7347 18.2639 17.7492 18.9375 17.3676L20.6136 16.5023L22.2421 17.3415C23.0237 17.7935 24.0293 17.7163 24.7177 17.1803C25.4241 16.6647 25.7875 15.7812 25.6444 14.9283L25.3287 13.0841L26.6392 11.7895C27.2956 11.1763 27.5363 10.2315 27.2524 9.38777C26.9844 8.57237 26.2598 7.95575 25.3923 7.81155L23.5276 7.52991L22.7009 5.85942C22.3193 5.09743 21.5199 4.62384 20.6136 4.62384C19.7074 4.62384 18.9079 5.09736 18.5241 5.86391L17.6996 7.52983L15.8167 7.81488C14.9674 7.95567 14.2428 8.57237 13.9771 9.38203C13.6909 10.2315 13.9317 11.1763 14.5631 11.7668L15.8986 13.0853ZM40.4598 16.1945C40.4598 15.7526 40.2039 15.3573 39.8085 15.148L35.0795 12.8222C34.7307 12.6594 34.2888 12.6594 33.9632 12.8688C33.6145 13.1014 33.4051 13.4734 33.4051 13.8689V22.4508L20.6136 28.8465L7.82214 22.4507V13.8688C7.82214 13.4733 7.61275 13.1013 7.26397 12.8688C6.93837 12.6594 6.49641 12.6594 6.1477 12.8222L1.41874 15.1479C1.02329 15.3573 0.767456 15.7526 0.767456 16.1945V38.9866L5.14749 36.312L2.39546 40.6146H38.8318L36.0797 36.3119L40.4598 38.9866V16.1945Z" fill="url(#paint0_linear)"/>
<path d="M35.7309 23.1715V2.08498C35.7309 1.4337 35.2193 0.922119 34.5681 0.922119H6.6594C6.00813 0.922119 5.49654 1.4337 5.49654 2.08498V23.1715C5.49654 23.6134 5.75237 24.0088 6.14782 24.2181L20.1021 31.1953C20.2648 31.2649 20.4277 31.3115 20.6137 31.3115C20.7998 31.3115 20.9627 31.2649 21.1253 31.1953L35.0796 24.2181C35.4751 24.0088 35.7309 23.6134 35.7309 23.1715ZM15.0785 9.75203C15.2181 9.3334 15.5903 9.03106 16.0089 8.96136L18.4741 8.58917L19.5672 6.37973C19.9625 5.58907 21.265 5.58907 21.6604 6.37973L22.7534 8.58917L25.2187 8.96136C25.6373 9.03106 26.0095 9.3334 26.149 9.75203C26.2886 10.1707 26.1723 10.6358 25.8467 10.9381L24.0791 12.6824L24.4978 15.1244C24.5676 15.5431 24.3815 15.985 24.0326 16.2407C23.6597 16.5309 23.1758 16.5351 22.8233 16.3338L20.6137 15.1943L18.4043 16.3339C18.0323 16.5431 17.5438 16.4968 17.195 16.2408C16.8461 15.985 16.66 15.5431 16.7299 15.1245L17.1485 12.6825L15.3809 10.9382C15.0553 10.6359 14.939 10.1707 15.0785 9.75203ZM27.5909 22.0087H13.6366C12.9853 22.0087 12.4737 21.4969 12.4737 20.8458C12.4737 20.1945 12.9853 19.6829 13.6366 19.6829H27.5909C28.2422 19.6829 28.7538 20.1945 28.7538 20.8458C28.7538 21.4969 28.2422 22.0087 27.5909 22.0087ZM10.4969 29.3346L0.767578 38.9864V39.4516C0.767578 40.1027 1.27916 40.6144 1.93044 40.6144H2.39558L12.1248 30.9626C12.5899 30.5207 12.5899 29.7765 12.1248 29.3346C11.6829 28.8695 10.9388 28.8695 10.4969 29.3346ZM30.7305 29.3346C30.2887 28.8695 29.5446 28.8695 29.1026 29.3346C28.6375 29.7765 28.6375 30.5207 29.1026 30.9626L38.8319 40.6144H39.297C39.9483 40.6144 40.4599 40.1027 40.4599 39.4516V38.9864L30.7305 29.3346Z" fill="#F2F3F5"/>
</g>
<defs>
<linearGradient id="paint0_linear" x1="20.6136" y1="40.6146" x2="20.6136" y2="4.62384" gradientUnits="userSpaceOnUse">
<stop stop-color="#22A740"/>
<stop offset="1" stop-color="#61CA63"/>
</linearGradient>
<clipPath id="clip0">
<rect width="39.6923" height="39.6923" fill="white" transform="translate(0.767578 0.922119)"/>
</clipPath>
</defs>
</svg>
