<svg width="104" height="107" viewBox="0 0 104 107" fill="none" xmlns="http://www.w3.org/2000/svg">
<g clip-path="url(#clip0)">
<path d="M103.78 65.8935L79.5078 34.9083H59.8882V17.5566H5.47907V68.7454L0.2202 72.0905V87.5831C0.2202 89.2943 1.57861 90.6816 3.25416 90.6816H100.746C102.421 90.6816 103.78 89.2943 103.78 87.5831V78.2876L98.9252 75.1891L103.78 72.0905V65.8935Z" fill="url(#paint0_linear)"/>
<path d="M27.7286 78.2885C22.7098 78.2885 18.6267 82.4584 18.6267 87.584C18.6267 92.7096 22.7098 96.8796 27.7286 96.8796C32.7474 96.8796 36.8305 92.7096 36.8305 87.584C36.8305 82.4584 32.7474 78.2885 27.7286 78.2885ZM82.5422 78.2885C77.5235 78.2885 73.4403 82.4584 73.4403 87.584C73.4403 92.7096 77.5235 96.8796 82.5422 96.8796C87.561 96.8796 91.6441 92.7096 91.6441 87.584C91.6441 82.4584 87.561 78.2885 82.5422 78.2885ZM91.6441 75.1899C91.6441 76.9011 93.0025 78.2885 94.6781 78.2885H103.78V72.0914H94.6781C93.0025 72.0914 91.6441 73.4787 91.6441 75.1899ZM82.5422 34.9092H79.5083V62.7959C79.5083 64.5071 80.8667 65.8944 82.5422 65.8944H103.78V56.5988C103.78 44.6392 94.2527 34.9092 82.5422 34.9092ZM64.3384 10.1211H3.25464C1.57908 10.1211 0.220673 11.5084 0.220673 13.2196V72.0914H64.3384C66.014 72.0914 67.3724 70.7041 67.3724 68.9929V13.2196C67.3724 11.5084 66.014 10.1211 64.3384 10.1211ZM52.0003 41.1063H49.9366L47.3905 54.108C47.1069 55.5563 45.8616 56.5988 44.4154 56.5988H23.1777C21.7315 56.5988 20.4861 55.5563 20.2028 54.108L17.6565 41.1063H15.5928C13.9172 41.1063 12.5588 39.719 12.5588 38.0077C12.5588 36.2965 13.9172 34.9092 15.5928 34.9092H22.3257L24.7851 24.8622C25.1914 23.202 26.8386 22.1927 28.4642 22.6077C30.0898 23.0227 31.0781 24.705 30.6718 26.3652L28.5806 34.9092H39.0127L36.9211 26.3652C36.5148 24.705 37.503 23.0227 39.1286 22.6077C40.7542 22.1927 42.4015 23.202 42.8078 24.8622L45.2674 34.9092H52.0003C53.6759 34.9092 55.0343 36.2965 55.0343 38.0077C55.0343 39.719 53.6759 41.1063 52.0003 41.1063Z" fill="#F2F3F5"/>
</g>
<defs>
<linearGradient id="paint0_linear" x1="51.9999" y1="90.6816" x2="51.9999" y2="17.5566" gradientUnits="userSpaceOnUse">
<stop stop-color="#21A73F"/>
<stop offset="1" stop-color="#60CA63"/>
</linearGradient>
<clipPath id="clip0">
<rect width="103.559" height="105.763" fill="white" transform="translate(0.220108 0.619141)"/>
</clipPath>
</defs>
</svg>
