<svg width="82" height="83" viewBox="0 0 82 83" fill="none" xmlns="http://www.w3.org/2000/svg">
<g clip-path="url(#clip0)">
<path d="M69.8517 13.7419C56.6589 13.7419 42.9866 1.51289 42.8512 1.39038C41.9425 0.566489 40.5574 0.566489 39.6488 1.39038C39.5126 1.51384 25.8763 13.7419 12.6483 13.7419C11.332 13.7419 10.2649 14.809 10.2649 16.1253V44.6695C10.2649 67.793 27.4634 77.033 40.3999 81.9717C40.6737 82.0762 40.9618 82.1283 41.25 82.1283C41.5383 82.1283 41.8264 82.0761 42.1001 81.9717C60.239 75.0469 72.2352 64.2451 72.2352 44.6695V16.1253C72.2352 14.809 71.168 13.7419 69.8517 13.7419Z" fill="url(#paint0_linear)"/>
<path d="M41.2498 24.7656C32.05 24.7656 24.5655 32.2502 24.5655 41.4499C24.5655 50.6497 32.05 58.1343 41.2498 58.1343C50.4495 58.1343 57.9341 50.6497 57.9341 41.4499C57.9341 32.2502 50.4495 24.7656 41.2498 24.7656ZM47.702 40.7517L40.5516 47.9022C40.0863 48.3676 39.4763 48.6004 38.8663 48.6004C38.2563 48.6004 37.6463 48.3677 37.181 47.9022L34.7976 45.5187C33.8667 44.5879 33.8667 43.0788 34.7976 42.148C35.7282 41.2172 37.2374 41.2172 38.1683 42.148L38.8665 42.846L44.3316 37.381C45.2623 36.4502 46.7715 36.4502 47.7023 37.381C48.633 38.3119 48.633 39.8209 47.702 40.7517Z" fill="#F2F3F5"/>
</g>
<defs>
<linearGradient id="paint0_linear" x1="41.25" y1="82.1283" x2="41.25" y2="0.772422" gradientUnits="userSpaceOnUse">
<stop stop-color="#21A73F"/>
<stop offset="1" stop-color="#65CD66"/>
</linearGradient>
<clipPath id="clip0">
<rect width="81.3559" height="81.3559" fill="white" transform="translate(0.572021 0.772461)"/>
</clipPath>
</defs>
</svg>
