<svg width="81" height="80" viewBox="0 0 81 80" fill="none" xmlns="http://www.w3.org/2000/svg">
<g clip-path="url(#clip0)">
<path d="M68.6251 12.7532C55.6521 12.7532 42.2078 0.728086 42.0746 0.607617C41.1811 -0.202539 39.819 -0.202539 38.9256 0.607617C38.7917 0.729024 25.3826 12.7532 12.3751 12.7532C11.0807 12.7532 10.0314 13.8026 10.0314 15.097V43.1654C10.0314 65.9036 26.9432 74.9895 39.6642 79.8459C39.9334 79.9487 40.2167 80 40.5001 80C40.7836 80 41.0668 79.9486 41.3361 79.8459C59.1726 73.0365 70.9689 62.4148 70.9689 43.1654V15.097C70.9689 13.8026 69.9195 12.7532 68.6251 12.7532Z" fill="url(#paint0_linear)"/>
<path d="M40.4999 23.5938C31.4535 23.5938 24.0936 30.9536 24.0936 40C24.0936 49.0464 31.4535 56.4063 40.4999 56.4063C49.5463 56.4063 56.9061 49.0464 56.9061 40C56.9061 30.9536 49.5463 23.5938 40.4999 23.5938ZM46.8446 39.3135L39.8133 46.3447C39.3558 46.8024 38.756 47.0313 38.1561 47.0313C37.5563 47.0313 36.9564 46.8025 36.4989 46.3447L34.1552 44.001C33.2399 43.0857 33.2399 41.6017 34.1552 40.6864C35.0703 39.7711 36.5544 39.7711 37.4697 40.6864L38.1563 41.3728L43.5303 35.9989C44.4455 35.0836 45.9296 35.0836 46.8449 35.9989C47.76 36.9143 47.76 38.3982 46.8446 39.3135Z" fill="#F2F3F5"/>
</g>
<defs>
<linearGradient id="paint0_linear" x1="40.5001" y1="80" x2="40.5001" y2="-3.8147e-05" gradientUnits="userSpaceOnUse">
<stop stop-color="#21A73F"/>
<stop offset="1" stop-color="#65CD66"/>
</linearGradient>
<clipPath id="clip0">
<rect width="80" height="80" fill="white" transform="translate(0.5)"/>
</clipPath>
</defs>
</svg>
