<svg width="83" height="83" viewBox="0 0 83 83" fill="none" xmlns="http://www.w3.org/2000/svg">
<g clip-path="url(#clip0)">
<path d="M81.6551 25.6829C81.2049 25.0835 80.4989 24.7309 79.7494 24.7309H62.7065C61.5683 17.976 55.6789 12.8136 48.6054 12.8136C41.5318 12.8136 35.6424 17.976 34.5042 24.7309H19.6894L16.575 2.78598C16.4083 1.61077 15.4023 0.737305 14.2152 0.737305H3.16045C1.84414 0.737305 0.776978 1.80447 0.776978 3.12078C0.776978 4.43709 1.84414 5.50425 3.16045 5.50425H12.1461L15.2604 27.4487V27.4489V27.4494L18.8583 52.7935C19.2487 55.5261 20.5776 58.0336 22.608 59.8937C21.0184 61.2062 20.0037 63.1913 20.0037 65.4089C20.0037 68.7018 22.2418 71.4803 25.2761 72.3073C24.9511 73.1236 24.7706 74.0123 24.7706 74.9428C24.7706 78.8856 27.9783 82.0932 31.921 82.0932C35.8638 82.0932 39.0715 78.8856 39.0715 74.9428C39.0715 74.1073 38.9261 73.3054 38.6615 72.5593H58.5492C58.2846 73.3054 58.1393 74.1073 58.1393 74.9428C58.1393 78.8856 61.3469 82.0932 65.2897 82.0932C69.2324 82.0932 72.4401 78.8856 72.4401 74.9428C72.4401 71.0001 69.2324 67.7924 65.2897 67.7924H27.1541C25.8398 67.7924 24.7706 66.7232 24.7706 65.4089C24.7706 64.0947 25.8398 63.0254 27.1541 63.0254H62.8652C68.158 63.0254 72.8699 59.4712 74.3215 54.3911L82.0387 27.7783C82.2473 27.0583 82.1052 26.2821 81.6551 25.6829Z" fill="url(#paint0_linear)"/>
<path d="M48.6054 10.4307C39.4057 10.4307 31.9211 17.9153 31.9211 27.115C31.9211 36.3147 39.4057 43.7993 48.6054 43.7993C57.8051 43.7993 65.2897 36.3147 65.2897 27.115C65.2897 17.9153 57.8051 10.4307 48.6054 10.4307ZM55.0576 26.4169L47.9072 33.5674C47.4419 34.0328 46.8319 34.2654 46.2219 34.2654C45.6119 34.2654 45.0019 34.0328 44.5367 33.5672L42.1532 31.1837C41.2224 30.2529 41.2224 28.7439 42.1532 27.813C43.0838 26.8822 44.5931 26.8822 45.5239 27.813L46.2221 28.5111L51.6872 23.0461C52.6179 22.1153 54.1271 22.1153 55.0579 23.0461C55.9886 23.9771 55.9886 25.4861 55.0576 26.4169Z" fill="#F2F3F5"/>
</g>
<defs>
<linearGradient id="paint0_linear" x1="41.4549" y1="82.0932" x2="41.4549" y2="0.737305" gradientUnits="userSpaceOnUse">
<stop stop-color="#21A73F"/>
<stop offset="0.0001" stop-color="#21A73F"/>
<stop offset="1" stop-color="#67CE67"/>
</linearGradient>
<clipPath id="clip0">
<rect width="81.3559" height="81.3559" fill="white" transform="translate(0.776978 0.737305)"/>
</clipPath>
</defs>
</svg>
