<svg width="88" height="88" viewBox="0 0 88 88" fill="none" xmlns="http://www.w3.org/2000/svg">
<g clip-path="url(#clip0)" filter="url(#filter0_d)">
<path d="M83.5302 24.5298C83.0875 23.9405 82.3933 23.5938 81.6562 23.5938H64.8973C63.7781 16.9514 57.9869 11.875 51.0312 11.875C44.0756 11.875 38.2844 16.9514 37.1652 23.5938H22.5972L19.5347 2.01453C19.3708 0.858906 18.3816 0 17.2142 0H6.34375C5.04937 0 4 1.04937 4 2.34375C4 3.63812 5.04937 4.6875 6.34375 4.6875H15.1797L18.242 26.2663V26.2664V26.2669L21.78 51.1886C22.1639 53.8756 23.4706 56.3414 25.4672 58.1705C23.9041 59.4611 22.9062 61.4131 22.9062 63.5938C22.9062 66.8317 25.107 69.5639 28.0908 70.3772C27.7712 71.1798 27.5938 72.0537 27.5938 72.9688C27.5938 76.8458 30.748 80 34.625 80C38.502 80 41.6562 76.8458 41.6562 72.9688C41.6562 72.1472 41.5133 71.3586 41.2531 70.625H60.8094C60.5492 71.3586 60.4062 72.1472 60.4062 72.9688C60.4062 76.8458 63.5605 80 67.4375 80C71.3145 80 74.4688 76.8458 74.4688 72.9688C74.4688 69.0917 71.3145 65.9375 67.4375 65.9375H29.9375C28.6452 65.9375 27.5938 64.8861 27.5938 63.5938C27.5938 62.3014 28.6452 61.25 29.9375 61.25H65.0534C70.258 61.25 74.8914 57.755 76.3187 52.7595L83.9073 26.5903C84.1125 25.8823 83.9728 25.1191 83.5302 24.5298Z" fill="url(#paint0_linear)"/>
<path d="M51.0313 9.53183C41.9849 9.53183 34.6251 16.8917 34.6251 25.9381C34.6251 34.9845 41.9849 42.3443 51.0313 42.3443C60.0777 42.3443 67.4376 34.9845 67.4376 25.9381C67.4376 16.8917 60.0777 9.53183 51.0313 9.53183ZM57.376 25.2517L50.3447 32.2829C49.8872 32.7406 49.2874 32.9693 48.6876 32.9693C48.0877 32.9693 47.4879 32.7406 47.0304 32.2828L44.6866 29.939C43.7713 29.0237 43.7713 27.5398 44.6866 26.6245C45.6018 25.7092 47.0858 25.7092 48.0012 26.6245L48.6877 27.3109L54.0618 21.937C54.9769 21.0217 56.461 21.0217 57.3763 21.937C58.2915 22.8525 58.2915 24.3364 57.376 25.2517Z" fill="#F2F3F5"/>
</g>
<defs>
<filter id="filter0_d" x="0" y="0" width="88" height="88" filterUnits="userSpaceOnUse" color-interpolation-filters="sRGB">
<feFlood flood-opacity="0" result="BackgroundImageFix"/>
<feColorMatrix in="SourceAlpha" type="matrix" values="0 0 0 0 0 0 0 0 0 0 0 0 0 0 0 0 0 0 127 0"/>
<feOffset dy="4"/>
<feGaussianBlur stdDeviation="2"/>
<feColorMatrix type="matrix" values="0 0 0 0 0 0 0 0 0 0 0 0 0 0 0 0 0 0 0.25 0"/>
<feBlend mode="normal" in2="BackgroundImageFix" result="effect1_dropShadow"/>
<feBlend mode="normal" in="SourceGraphic" in2="effect1_dropShadow" result="shape"/>
</filter>
<linearGradient id="paint0_linear" x1="44" y1="80" x2="44" y2="0" gradientUnits="userSpaceOnUse">
<stop stop-color="#21A73F"/>
<stop offset="0.0001" stop-color="#21A73F"/>
<stop offset="1" stop-color="#67CE67"/>
</linearGradient>
<clipPath id="clip0">
<rect width="80" height="90" fill="white" transform="translate(4)"/>
</clipPath>
</defs>
</svg>
