<svg width="105" height="104" viewBox="0 0 105 104" fill="none" xmlns="http://www.w3.org/2000/svg">
<g clip-path="url(#clip0)">
<path d="M104.5 64.1871L80.1249 33.7184H60.4218V16.6559H5.78113V66.9915L0.499878 70.2809V85.5153C0.499878 87.1979 1.86407 88.5621 3.54675 88.5621H101.453C103.136 88.5621 104.5 87.1979 104.5 85.5153V76.3746L99.6249 73.3278L104.5 70.2809V64.1871Z" fill="url(#paint0_linear)"/>
<path d="M28.1254 76.375C23.0852 76.375 18.9847 80.4755 18.9847 85.5156C18.9847 90.5558 23.0852 94.6563 28.1254 94.6563C33.1655 94.6563 37.266 90.5558 37.266 85.5156C37.266 80.4755 33.1655 76.375 28.1254 76.375ZM83.1722 76.375C78.1321 76.375 74.0316 80.4755 74.0316 85.5156C74.0316 90.5558 78.1321 94.6563 83.1722 94.6563C88.2124 94.6563 92.3129 90.5558 92.3129 85.5156C92.3129 80.4755 88.2124 76.375 83.1722 76.375ZM92.3129 73.3281C92.3129 75.0108 93.6771 76.375 95.3597 76.375H104.5V70.2813H95.3597C93.6771 70.2813 92.3129 71.6454 92.3129 73.3281ZM83.1722 33.7188H80.1254V61.1406C80.1254 62.8233 81.4896 64.1875 83.1722 64.1875H104.5V55.0469C104.5 43.2866 94.9326 33.7188 83.1722 33.7188ZM64.891 9.34377H3.54724C1.86455 9.34377 0.500366 10.708 0.500366 12.3906V70.2813H64.891C66.5737 70.2813 67.9379 68.9171 67.9379 67.2344V12.3906C67.9379 10.708 66.5737 9.34377 64.891 9.34377ZM52.5004 39.8125H50.4279L47.8709 52.5976C47.5862 54.0217 46.3355 55.0469 44.8832 55.0469H23.5551C22.1027 55.0469 20.8521 54.0217 20.5675 52.5976L18.0104 39.8125H15.9379C14.2552 39.8125 12.891 38.4483 12.891 36.7656C12.891 35.083 14.2552 33.7188 15.9379 33.7188H22.6995L25.1693 23.8392C25.5774 22.2067 27.2316 21.2142 28.8641 21.6223C30.4966 22.0303 31.4891 23.6846 31.081 25.3171L28.9809 33.7188H39.4575L37.357 25.3171C36.9489 23.6846 37.9414 22.0303 39.5739 21.6223C41.2064 21.2142 42.8607 22.2067 43.2687 23.8392L45.7387 33.7188H52.5004C54.1831 33.7188 55.5472 35.083 55.5472 36.7656C55.5472 38.4483 54.1831 39.8125 52.5004 39.8125Z" fill="#F2F3F5"/>
</g>
<defs>
<linearGradient id="paint0_linear" x1="52.4999" y1="88.5621" x2="52.4999" y2="16.6559" gradientUnits="userSpaceOnUse">
<stop stop-color="#21A73F"/>
<stop offset="1" stop-color="#60CA63"/>
</linearGradient>
<clipPath id="clip0">
<rect width="104" height="104" fill="white" transform="translate(0.499756)"/>
</clipPath>
</defs>
</svg>
