<svg width="11" height="8" viewBox="0 0 11 8" fill="none" xmlns="http://www.w3.org/2000/svg">
<path d="M2.27504 4.3769C2.11068 4.24204 1.8965 4.16888 1.67548 4.17207C1.45445 4.17527 1.24293 4.25459 1.08333 4.39412C0.923732 4.53366 0.82787 4.72309 0.81497 4.92441C0.802071 5.12574 0.873088 5.32407 1.01378 5.47962L2.95822 7.34146C3.03963 7.41937 3.13746 7.48147 3.24582 7.52404C3.35419 7.56661 3.47087 7.58876 3.58885 7.58917C3.70621 7.5898 3.82251 7.5689 3.93084 7.52772C4.03918 7.48654 4.13733 7.42591 4.21948 7.34945L10.1579 1.75594C10.2384 1.68038 10.3019 1.5911 10.3445 1.49319C10.3872 1.39528 10.4084 1.29065 10.4067 1.18529C10.4051 1.07992 10.3808 0.97588 10.3351 0.879104C10.2894 0.782327 10.2232 0.69471 10.1404 0.621255C10.0576 0.5478 9.95972 0.489945 9.8524 0.450995C9.74508 0.412044 9.63039 0.392761 9.5149 0.394245C9.39941 0.395729 9.28537 0.417951 9.17929 0.459644C9.07321 0.501336 8.97718 0.561683 8.89666 0.637236L3.59761 5.63943L2.27504 4.3769Z" fill="#21A73F"/>
</svg>
