<svg width="10" height="11" viewBox="0 0 10 11" fill="none" xmlns="http://www.w3.org/2000/svg">
<path d="M4.8358 0.0848389C2.46617 0.0848389 0.546875 0.352897 0.546875 2.2293V7.59045C0.546875 8.06223 0.75596 8.48577 1.08299 8.78063V9.73491C1.08299 10.0298 1.32424 10.271 1.61911 10.271H2.15522C2.45008 10.271 2.69134 10.0298 2.69134 9.73491V9.1988H6.98026V9.73491C6.98026 10.0298 7.22151 10.271 7.51637 10.271H8.05249C8.34735 10.271 8.5886 10.0298 8.5886 9.73491V8.78063C8.91563 8.48577 9.12472 8.06223 9.12472 7.59045V2.2293C9.12472 0.352897 7.20543 0.0848389 4.8358 0.0848389ZM7.87021 1.68782H1.80138C2.09625 1.40368 2.85753 1.15707 4.8358 1.15707C6.81406 1.15707 7.57535 1.40368 7.87021 1.68782ZM8.05249 2.76005V4.37376H1.61911V2.76005H8.05249ZM7.87021 7.98182L7.71474 8.12657H1.95686L1.80138 7.98182C1.73169 7.92284 1.61911 7.78882 1.61911 7.59045V5.44599H8.05249V7.59045C8.05249 7.78882 7.9399 7.92284 7.87021 7.98182Z" fill="#323232"/>
</svg>
