<svg width="18" height="19" viewBox="0 0 18 19" fill="none" xmlns="http://www.w3.org/2000/svg">
<path d="M17 13.0718C15.76 13.0718 14.55 12.8718 13.43 12.5018C13.33 12.4618 13.22 12.4518 13.12 12.4518C12.86 12.4518 12.61 12.5518 12.41 12.7418L10.21 14.9418C7.38 13.4918 5.06 11.1818 3.62 8.35184L5.82 6.15184C6.1 5.87184 6.18 5.48184 6.07 5.13184C5.7 4.01184 5.5 2.81184 5.5 1.56184C5.5 1.01184 5.05 0.561836 4.5 0.561836H1C0.45 0.561836 0 1.01184 0 1.56184C0 10.9518 7.61 18.5618 17 18.5618C17.55 18.5618 18 18.1118 18 17.5618V14.0718C18 13.5218 17.55 13.0718 17 13.0718ZM2.03 2.56184H3.53C3.6 3.45184 3.75 4.32184 3.99 5.15184L2.79 6.35184C2.38 5.15184 2.12 3.88184 2.03 2.56184ZM16 16.5318C14.68 16.4418 13.41 16.1818 12.2 15.7818L13.39 14.5918C14.24 14.8318 15.11 14.9818 15.99 15.0418V16.5318H16ZM15 6.56184H12.41L17.43 1.54184L16.02 0.131836L11 5.15184V2.56184H9V8.56184H15V6.56184Z" fill="white"/>
</svg>
