<svg width="10" height="12" viewBox="0 0 10 12" fill="none" xmlns="http://www.w3.org/2000/svg">
<path d="M8.05249 2.87359H6.98026C6.98026 1.68877 6.02061 0.729126 4.8358 0.729126C3.65098 0.729126 2.69134 1.68877 2.69134 2.87359H1.61911C1.02938 2.87359 0.546875 3.35609 0.546875 3.94582V10.3792C0.546875 10.9689 1.02938 11.4514 1.61911 11.4514H8.05249C8.64222 11.4514 9.12472 10.9689 9.12472 10.3792V3.94582C9.12472 3.35609 8.64222 2.87359 8.05249 2.87359ZM4.8358 1.80136C5.42552 1.80136 5.90803 2.28386 5.90803 2.87359H3.76357C3.76357 2.28386 4.24607 1.80136 4.8358 1.80136ZM8.05249 10.3792H1.61911V3.94582H2.69134V5.01805C2.69134 5.31291 2.93259 5.55416 3.22745 5.55416C3.52231 5.55416 3.76357 5.31291 3.76357 5.01805V3.94582H5.90803V5.01805C5.90803 5.31291 6.14928 5.55416 6.44414 5.55416C6.73901 5.55416 6.98026 5.31291 6.98026 5.01805V3.94582H8.05249V10.3792Z" fill="#323232"/>
</svg>
