<svg width="17" height="16" viewBox="0 0 17 16" fill="none" xmlns="http://www.w3.org/2000/svg">
<path fill-rule="evenodd" clip-rule="evenodd" d="M13.2464 6.0729C13.2464 6.07287 13.2464 6.07284 13.2464 6.07281C13.3166 5.83884 13.2464 5.66687 12.9124 5.66687H11.8079C11.5432 5.66687 11.4131 5.79877 11.3402 5.9511C11.3313 5.96971 11.3238 5.98806 11.3158 6.00705C11.2316 6.2054 10.699 7.42286 9.96995 8.23762C9.71252 8.49505 9.59553 8.57686 9.45509 8.57686C9.38488 8.57686 9.28326 8.49505 9.28326 8.26105V6.07286C9.28326 5.792 9.20177 5.66687 8.96769 5.66687H7.23203C7.05657 5.66687 6.95101 5.7972 6.95101 5.92075C6.95101 6.18702 7.34879 6.2484 7.38982 6.99725V8.6238C7.38982 8.9804 7.32544 9.0451 7.18501 9.0451C6.81058 9.0451 5.89983 7.66982 5.35957 6.09629C5.25369 5.79042 5.1475 5.66687 4.86522 5.66687H3.76071C3.44513 5.66687 3.38202 5.81543 3.38202 5.97929C3.38202 6.27183 3.75653 7.72284 5.12557 9.64185C6.03837 10.9523 7.32418 11.6628 8.49433 11.6628C9.19648 11.6628 9.28326 11.505 9.28326 11.2332V10.2427C9.28326 9.92713 9.34977 9.86417 9.57202 9.86417C9.73596 9.86417 10.0167 9.94606 10.6721 10.5779C11.421 11.3267 11.5444 11.6628 11.9656 11.6628H13.0702C13.3857 11.6628 13.5435 11.505 13.4525 11.1936C13.3529 10.8832 12.9954 10.4331 12.5209 9.89928C12.2635 9.59499 11.8773 9.26734 11.7604 9.10356C11.6284 8.93395 11.6331 8.84025 11.701 8.71249C11.7374 8.64391 11.7823 8.5814 11.8267 8.51769C12.0993 8.12674 13.1248 6.63037 13.2464 6.07297C13.2464 6.07294 13.2464 6.07292 13.2464 6.0729Z" fill="#2E2E2E"/>
<path d="M2.85797 1.35602H14.002V0.356018H2.85797V1.35602ZM15.502 2.85602V14.0001H16.502V2.85602H15.502ZM14.002 15.5001H2.85797V16.5001H14.002V15.5001ZM1.35797 14.0001V2.85602H0.357971V14.0001H1.35797ZM2.85797 15.5001C2.02954 15.5001 1.35797 14.8285 1.35797 14.0001H0.357971C0.357971 15.3808 1.47726 16.5001 2.85797 16.5001V15.5001ZM15.502 14.0001C15.502 14.8285 14.8304 15.5001 14.002 15.5001V16.5001C15.3827 16.5001 16.502 15.3808 16.502 14.0001H15.502ZM14.002 1.35602C14.8304 1.35602 15.502 2.02759 15.502 2.85602H16.502C16.502 1.47531 15.3827 0.356018 14.002 0.356018V1.35602ZM2.85797 0.356018C1.47726 0.356018 0.357971 1.47531 0.357971 2.85602H1.35797C1.35797 2.02759 2.02954 1.35602 2.85797 1.35602V0.356018Z" fill="#2E2E2E"/>
</svg>
