<svg width="17" height="18" viewBox="0 0 17 18" fill="none" xmlns="http://www.w3.org/2000/svg">
<path d="M14.4498 3.34122C12.941 1.78799 10.8552 0.944809 8.72505 0.944809C4.19851 0.944809 0.559515 4.62818 0.603893 9.11035C0.603893 10.5304 1.00329 11.9062 1.66896 13.1487L0.515137 17.3646L4.8198 16.2552C6.018 16.9209 7.34934 17.2315 8.68068 17.2315C13.1628 17.2315 16.8018 13.5481 16.8018 9.06597C16.8018 6.89145 15.9587 4.85007 14.4498 3.34122ZM8.72505 15.8558C7.52685 15.8558 6.32865 15.5451 5.30795 14.9239L5.04169 14.7907L2.46777 15.4564L3.13343 12.9268L2.95592 12.6606C1.00329 9.50975 1.93523 5.33822 5.13044 3.3856C8.32565 1.43297 12.4528 2.3649 14.4054 5.56011C16.3581 8.75532 15.4261 12.8825 12.2309 14.8351C11.2102 15.5008 9.96764 15.8558 8.72505 15.8558ZM12.6303 10.9298L12.1422 10.708C12.1422 10.708 11.4321 10.3973 10.9883 10.1754C10.944 10.1754 10.8996 10.131 10.8552 10.131C10.7221 10.131 10.6333 10.1754 10.5445 10.2198C10.5445 10.2198 10.5002 10.2642 9.87888 10.9742C9.8345 11.063 9.74575 11.1074 9.65699 11.1074H9.61261C9.56823 11.1074 9.47948 11.063 9.4351 11.0186L9.21321 10.9298C8.72505 10.708 8.28128 10.4417 7.92625 10.0867C7.8375 9.99791 7.70436 9.90915 7.61561 9.82039C7.30496 9.50975 6.99432 9.15473 6.77243 8.75532L6.72805 8.66657C6.68367 8.62219 6.68367 8.57781 6.63929 8.48906C6.63929 8.4003 6.63929 8.31155 6.68367 8.26717C6.68367 8.26717 6.86118 8.04528 6.99432 7.91214C7.08307 7.82339 7.12745 7.69025 7.2162 7.6015C7.30496 7.46836 7.34934 7.29085 7.30496 7.15772C7.26058 6.93583 6.72805 5.73763 6.59491 5.47136C6.50616 5.33822 6.4174 5.29385 6.28427 5.24947H6.15113C6.06238 5.24947 5.92924 5.24947 5.79611 5.24947C5.70735 5.24947 5.6186 5.29385 5.52984 5.29385L5.48547 5.33822C5.39671 5.3826 5.30795 5.47136 5.2192 5.51574C5.13044 5.60449 5.08606 5.69325 4.99731 5.782C4.68666 6.1814 4.50915 6.66956 4.50915 7.15772C4.50915 7.51274 4.59791 7.86777 4.73104 8.17841L4.77542 8.31155C5.17482 9.15473 5.70736 9.90915 6.4174 10.5748L6.59491 10.7523C6.72805 10.8855 6.86118 10.9742 6.94994 11.1074C7.88187 11.9062 8.94694 12.4831 10.1451 12.7937C10.2783 12.8381 10.4558 12.8381 10.5889 12.8825C10.7221 12.8825 10.8996 12.8825 11.0327 12.8825C11.2546 12.8825 11.5209 12.7937 11.6984 12.705C11.8315 12.6162 11.9203 12.6162 12.009 12.5274L12.0978 12.4387C12.1865 12.3499 12.2753 12.3056 12.364 12.2168C12.4528 12.128 12.5416 12.0393 12.5859 11.9505C12.6747 11.773 12.7191 11.5511 12.7634 11.3292C12.7634 11.2405 12.7634 11.1074 12.7634 11.0186C12.7634 11.0186 12.7191 10.9742 12.6303 10.9298Z" fill="white"/>
</svg>
