<svg width="33" height="34" viewBox="0 0 33 34" fill="none" xmlns="http://www.w3.org/2000/svg">
<circle cx="16.3549" cy="16.8717" r="15.6302" stroke="#E7E7E8" stroke-width="1.14683"/>
<mask id="path-2-inside-1" fill="white">
<path fill-rule="evenodd" clip-rule="evenodd" d="M17.1729 8.53836H15.0754V16.0544H7.55859V18.1518H15.0754V25.6678H17.1729V18.1518H24.6881V16.0544H17.1729V8.53836Z"/>
</mask>
<path fill-rule="evenodd" clip-rule="evenodd" d="M17.1729 8.53836H15.0754V16.0544H7.55859V18.1518H15.0754V25.6678H17.1729V18.1518H24.6881V16.0544H17.1729V8.53836Z" fill="#E7E7E8"/>
<path d="M15.0754 8.53836V8.2497H14.7867V8.53836H15.0754ZM17.1729 8.53836H17.4615V8.2497H17.1729V8.53836ZM15.0754 16.0544V16.343H15.3641V16.0544H15.0754ZM7.55859 16.0544V15.7657H7.26994V16.0544H7.55859ZM7.55859 18.1518H7.26994V18.4405H7.55859V18.1518ZM15.0754 18.1518H15.3641V17.8632H15.0754V18.1518ZM15.0754 25.6678H14.7867V25.9565H15.0754V25.6678ZM17.1729 25.6678V25.9565H17.4615V25.6678H17.1729ZM17.1729 18.1518V17.8632H16.8842V18.1518H17.1729ZM24.6881 18.1518V18.4405H24.9767V18.1518H24.6881ZM24.6881 16.0544H24.9767V15.7657H24.6881V16.0544ZM17.1729 16.0544H16.8842V16.343H17.1729V16.0544ZM15.0754 8.82702H17.1729V8.2497H15.0754V8.82702ZM15.3641 16.0544V8.53836H14.7867V16.0544H15.3641ZM7.55859 16.343H15.0754V15.7657H7.55859V16.343ZM7.84725 18.1518V16.0544H7.26994V18.1518H7.84725ZM15.0754 17.8632H7.55859V18.4405H15.0754V17.8632ZM15.3641 25.6678V18.1518H14.7867V25.6678H15.3641ZM17.1729 25.3792H15.0754V25.9565H17.1729V25.3792ZM16.8842 18.1518V25.6678H17.4615V18.1518H16.8842ZM24.6881 17.8632H17.1729V18.4405H24.6881V17.8632ZM24.3994 16.0544V18.1518H24.9767V16.0544H24.3994ZM17.1729 16.343H24.6881V15.7657H17.1729V16.343ZM16.8842 8.53836V16.0544H17.4615V8.53836H16.8842Z" fill="#E7E7E8" mask="url(#path-2-inside-1)"/>
</svg>
