<svg width="36" height="32" viewBox="0 0 36 32" fill="none" xmlns="http://www.w3.org/2000/svg">
<path d="M22.7514 0.20752H8.68415C7.38684 0.20752 6.27709 0.989032 5.80818 2.11441L1.08784 13.1337C0.94717 13.4932 0.869019 13.8684 0.869019 14.2748V17.4008C0.869019 19.1201 2.27574 20.5269 3.99507 20.5269H13.8578L12.3729 27.6699L12.326 28.1701C12.326 28.8109 12.5917 29.4048 13.0137 29.8269L14.6705 31.468L24.9552 21.1677C25.5336 20.605 25.8774 19.8235 25.8774 18.9638V3.33357C25.8774 1.61424 24.4707 0.20752 22.7514 0.20752ZM22.7514 18.9638L15.9678 25.7474L17.7028 17.4008H3.99507V14.2748L8.68415 3.33357H22.7514V18.9638ZM29.0035 0.20752H35.2556V18.9638H29.0035V0.20752Z" fill="#323232"/>
</svg>
