<svg width="15" height="15" viewBox="0 0 15 15" fill="none" xmlns="http://www.w3.org/2000/svg">
<path d="M6.38251 8.701V8.063C6.38251 7.755 6.44118 7.502 6.55851 7.304C6.67585 7.106 6.87751 6.91533 7.16351 6.732C7.47151 6.54867 7.69518 6.37267 7.83451 6.204C7.98118 6.028 8.05451 5.797 8.05451 5.511C8.05451 4.851 7.67318 4.521 6.91051 4.521C6.63185 4.521 6.32385 4.60167 5.98651 4.763L5.56851 3.883C6.00851 3.65567 6.51085 3.542 7.07551 3.542C7.79418 3.542 8.34418 3.718 8.72551 4.07C9.11418 4.41467 9.30851 4.86567 9.30851 5.423C9.30851 5.73833 9.23885 6.028 9.09951 6.292C8.96018 6.54867 8.81718 6.73933 8.67051 6.864C8.52385 6.98867 8.34051 7.12067 8.12051 7.26C7.86385 7.42867 7.68418 7.57533 7.58151 7.7C7.48618 7.81733 7.43851 7.97867 7.43851 8.184V8.701H6.38251ZM7.48251 10.879C7.32851 11.0257 7.14151 11.099 6.92151 11.099C6.70151 11.099 6.51451 11.0257 6.36051 10.879C6.20651 10.725 6.12951 10.538 6.12951 10.318C6.12951 10.1053 6.20651 9.92567 6.36051 9.779C6.51451 9.625 6.70151 9.548 6.92151 9.548C7.14151 9.548 7.32851 9.625 7.48251 9.779C7.63651 9.92567 7.71351 10.1053 7.71351 10.318C7.71351 10.538 7.63651 10.725 7.48251 10.879Z" fill="#EF7F1A"/>
<circle cx="7.5" cy="7.5" r="7" stroke="#EF7F1A"/>
</svg>
