<svg width="23" height="23" viewBox="0 0 23 23" fill="none" xmlns="http://www.w3.org/2000/svg">
<path d="M19.441 0.0175171H3.22564C1.39487 0.0175171 0 1.41239 0 3.24316V19.4585C0 21.2893 1.39487 22.6842 3.22564 22.6842H19.441C21.2718 22.6842 22.6667 21.2893 22.6667 19.4585V3.24316C22.6667 1.41239 21.2718 0.0175171 19.441 0.0175171ZM11.3333 18.1508C15.0821 18.1508 18.1333 15.1867 18.1333 11.6124C18.1333 11.0021 18.0462 10.3047 17.8718 9.78162H19.7897V19.0226C19.7897 19.4585 19.441 19.8944 18.9179 19.8944H3.74872C3.31282 19.8944 2.87693 19.5457 2.87693 19.0226V9.69444H4.88206C4.7077 10.3047 4.62052 10.915 4.62052 11.5252C4.53334 15.1867 7.58461 18.1508 11.3333 18.1508ZM11.3333 15.5355C8.89231 15.5355 6.97436 13.6175 6.97436 11.2637C6.97436 8.90983 8.89231 6.99188 11.3333 6.99188C13.7744 6.99188 15.6923 8.90983 15.6923 11.2637C15.6923 13.7047 13.7744 15.5355 11.3333 15.5355ZM19.7026 6.20726C19.7026 6.73034 19.2667 7.16624 18.7436 7.16624H16.3026C15.7795 7.16624 15.3436 6.73034 15.3436 6.20726V3.85341C15.3436 3.33034 15.7795 2.89444 16.3026 2.89444H18.7436C19.2667 2.89444 19.7026 3.33034 19.7026 3.85341V6.20726Z" fill="#21A73F"/>
</svg>
