<svg width="35" height="32" viewBox="0 0 35 32" fill="none" xmlns="http://www.w3.org/2000/svg">
<path d="M13.0673 31.3419H27.1345C28.4318 31.3419 29.5416 30.5604 30.0105 29.435L34.7308 18.4157C34.8715 18.0562 34.9496 17.6811 34.9496 17.2747V14.1487C34.9496 12.4293 33.5429 11.0226 31.8236 11.0226H21.9609L23.4457 3.87957L23.4926 3.37941C23.4926 2.73856 23.2269 2.14462 22.8049 1.7226L21.1481 0.0814209L10.8478 10.3818C10.2851 10.9445 9.94121 11.726 9.94121 12.5856V28.2159C9.94121 29.9352 11.3479 31.3419 13.0673 31.3419ZM13.0673 12.5856L19.8508 5.8021L17.7563 14.1487H31.8236V17.2747L27.1345 28.2159H13.0673V12.5856ZM0.563049 12.5856H6.81515V31.3419H0.563049V12.5856Z" fill="#323232"/>
</svg>
