<svg width="21" height="22" viewBox="0 0 21 22" fill="none" xmlns="http://www.w3.org/2000/svg">
<path d="M10.4998 0.583313C4.7498 0.583313 0.0831299 5.24998 0.0831299 11C0.0831299 16.75 4.7498 21.4166 10.4998 21.4166C16.2498 21.4166 20.9165 16.75 20.9165 11C20.9165 5.24998 16.2498 0.583313 10.4998 0.583313ZM5.36438 17.5416C5.8123 16.6041 8.54146 15.6875 10.4998 15.6875C12.4581 15.6875 15.1977 16.6041 15.6352 17.5416C14.2185 18.6666 12.4373 19.3333 10.4998 19.3333C8.5623 19.3333 6.78105 18.6666 5.36438 17.5416ZM17.1248 16.0312C15.6352 14.2187 12.0206 13.6041 10.4998 13.6041C8.97896 13.6041 5.36438 14.2187 3.8748 16.0312C2.8123 14.6354 2.16646 12.8958 2.16646 11C2.16646 6.40623 5.90605 2.66665 10.4998 2.66665C15.0935 2.66665 18.8331 6.40623 18.8331 11C18.8331 12.8958 18.1873 14.6354 17.1248 16.0312ZM10.4998 4.74998C8.47896 4.74998 6.85396 6.37498 6.85396 8.39581C6.85396 10.4166 8.47896 12.0416 10.4998 12.0416C12.5206 12.0416 14.1456 10.4166 14.1456 8.39581C14.1456 6.37498 12.5206 4.74998 10.4998 4.74998ZM10.4998 9.95831C9.63521 9.95831 8.9373 9.2604 8.9373 8.39581C8.9373 7.53123 9.63521 6.83331 10.4998 6.83331C11.3644 6.83331 12.0623 7.53123 12.0623 8.39581C12.0623 9.2604 11.3644 9.95831 10.4998 9.95831Z" fill="#2E2E2E"/>
</svg>
