<svg width="21" height="21" viewBox="0 0 21 21" fill="none" xmlns="http://www.w3.org/2000/svg">
<path d="M14.5498 11.5C15.2998 11.5 15.9598 11.09 16.2998 10.47L19.8798 3.98C20.2498 3.32 19.7698 2.5 19.0098 2.5H4.20976L3.26976 0.5H-0.000244141V2.5H1.99976L5.59976 10.09L4.24976 12.53C3.51976 13.87 4.47976 15.5 5.99976 15.5H17.9998V13.5H5.99976L7.09976 11.5H14.5498ZM5.15976 4.5H17.3098L14.5498 9.5H7.52976L5.15976 4.5ZM5.99976 16.5C4.89976 16.5 4.00976 17.4 4.00976 18.5C4.00976 19.6 4.89976 20.5 5.99976 20.5C7.09976 20.5 7.99976 19.6 7.99976 18.5C7.99976 17.4 7.09976 16.5 5.99976 16.5ZM15.9998 16.5C14.8998 16.5 14.0098 17.4 14.0098 18.5C14.0098 19.6 14.8998 20.5 15.9998 20.5C17.0998 20.5 17.9998 19.6 17.9998 18.5C17.9998 17.4 17.0998 16.5 15.9998 16.5Z" fill="#2E2E2E"/>
</svg>
