<svg width="12" height="12" viewBox="0 0 12 12" fill="none" xmlns="http://www.w3.org/2000/svg">
<path d="M5.83138 0.320801C2.87202 0.320801 0.475586 2.7226 0.475586 5.68195C0.475586 8.64131 2.87202 11.0431 5.83138 11.0431C8.7961 11.0431 11.1979 8.64131 11.1979 5.68195C11.1979 2.7226 8.7961 0.320801 5.83138 0.320801ZM5.83674 9.97088C3.46711 9.97088 1.54782 8.05158 1.54782 5.68195C1.54782 3.31232 3.46711 1.39303 5.83674 1.39303C8.20637 1.39303 10.1257 3.31232 10.1257 5.68195C10.1257 8.05158 8.20637 9.97088 5.83674 9.97088ZM6.1048 3.00138H5.30062V6.21807L8.11523 7.90683L8.51732 7.24741L6.1048 5.81598V3.00138Z" fill="#323232"/>
</svg>
