<svg width="25" height="25" viewBox="0 0 25 25" fill="none" xmlns="http://www.w3.org/2000/svg">
<path d="M23.7293 17.4305L18.5698 15.2193C18.3494 15.1253 18.1044 15.1056 17.8718 15.1629C17.6391 15.2202 17.4314 15.3516 17.2799 15.5371L14.995 18.3288C11.409 16.6381 8.52306 13.7522 6.8323 10.1662L9.62397 7.88123C9.80994 7.72998 9.94156 7.52226 9.99891 7.28952C10.0563 7.05677 10.0362 6.81168 9.94184 6.59134L7.73061 1.43181C7.62701 1.19429 7.44378 1.00037 7.21252 0.883473C6.98125 0.766579 6.71645 0.734043 6.46376 0.791477L1.67277 1.89709C1.42915 1.95335 1.21179 2.09052 1.05617 2.28621C0.900555 2.48191 0.815862 2.72458 0.815918 2.9746C0.815918 14.7909 10.3933 24.3498 22.1911 24.3498C22.4412 24.35 22.684 24.2653 22.8798 24.1097C23.0756 23.9541 23.2128 23.7367 23.2691 23.493L24.3747 18.702C24.4318 18.448 24.3985 18.1822 24.2807 17.9501C24.163 17.7181 23.968 17.5343 23.7293 17.4305Z" fill="white"/>
</svg>
