<svg width="47" height="33" viewBox="0 0 47 33" fill="none" xmlns="http://www.w3.org/2000/svg">
<rect x="0.39921" y="1.03031" width="45.9101" height="31.2721" rx="3.6595" fill="white" stroke="#D9D9D9" stroke-width="0.665363"/>
<path d="M22.8219 25.6479C25.3503 23.3191 26.9471 19.9923 26.9471 16.3328C26.9471 12.6068 25.3503 9.27996 22.8219 7.01773C20.5597 5.02164 17.632 3.75745 14.3718 3.75745C7.38545 3.75745 1.72986 9.41304 1.72986 16.3328C1.72986 23.3191 7.38545 28.9747 14.3718 28.9747C17.632 28.9082 20.5597 27.644 22.8219 25.6479Z" fill="#3362AB"/>
<path d="M22.8218 25.6487C25.3502 23.32 26.947 19.9931 26.947 16.3336C26.947 12.6076 25.3502 9.28079 22.8218 7.01855" fill="#3362AB"/>
<path d="M22.8218 25.6487C25.3502 23.32 26.947 19.9931 26.947 16.3336C26.947 12.6076 25.3502 9.28079 22.8218 7.01855" stroke="#3362AB" stroke-width="0.206063"/>
<path d="M31.2722 3.69177C28.012 3.69177 25.0178 4.95596 22.8221 6.95205C22.3564 7.35127 21.9572 7.81702 21.5579 8.28277H24.0863C24.419 8.68199 24.7517 9.14775 25.0178 9.6135H20.5599C20.2937 10.0127 20.0276 10.4785 19.828 10.9442H25.7497C25.9493 11.41 26.1489 11.8092 26.282 12.275H19.2957C19.1626 12.7407 19.0296 13.1399 18.8965 13.6057H26.6147C26.8143 14.4707 26.8808 15.3356 26.8808 16.2671C26.8808 17.6644 26.6812 18.9951 26.2155 20.2593H19.2292C19.3622 20.7251 19.5618 21.1908 19.7614 21.59H25.6832C25.4836 22.0558 25.2174 22.5215 24.9513 22.9208H20.4934C20.7595 23.3865 21.0922 23.8523 21.4249 24.2515H23.9532C23.554 24.7172 23.1548 25.183 22.689 25.5822C24.9513 27.5783 27.8789 28.8425 31.1392 28.8425C38.1255 28.8425 43.7145 23.1869 43.7145 16.2006C43.9141 9.34736 38.2586 3.69177 31.2722 3.69177Z" fill="#C9191B"/>
<path d="M12.7757 19.3941H11.1788L12.1103 14.4704L9.98119 19.3941H8.58393L8.31779 14.5369L7.38626 19.3941H5.98901L7.18666 13.0066H9.64851L9.78157 16.9988L11.5115 13.0066H14.0399L12.7757 19.3941Z" fill="white"/>
<path d="M30.3406 19.3939C29.9414 19.527 29.5422 19.5936 29.2095 19.5936C28.4111 19.5936 27.9453 19.1943 27.9453 18.4624C27.9453 18.3294 27.9453 18.1298 28.0118 17.9967L28.0784 17.4644L28.1449 17.0652L28.8768 13.073H30.4071L30.2075 14.2707H31.006L30.8064 15.5349H30.0079L29.6087 17.7305C29.6087 17.7971 29.6087 17.9302 29.6087 17.9302C29.6087 18.1963 29.8083 18.3294 30.141 18.3294C30.3406 18.3294 30.4737 18.3294 30.5402 18.2628L30.3406 19.3939Z" fill="white"/>
<path d="M34.8647 14.2708C34.7317 14.2042 34.7317 14.2042 34.6651 14.2042C34.5986 14.2042 34.5321 14.2042 34.5321 14.2042C34.4655 14.2042 34.399 14.2042 34.3324 14.2042C33.8001 14.2042 33.4675 14.4038 32.9352 15.0692L33.0682 14.2708H31.8041L30.8726 19.4606H32.4694C33.0017 16.2668 33.2679 15.7346 33.9998 15.7346C34.0663 15.7346 34.1328 15.7346 34.1994 15.7346L34.399 15.8011L34.8647 14.2708Z" fill="white"/>
<path d="M24.0854 15.8685C24.0854 16.5339 24.4846 16.9996 25.2831 17.3323C25.9484 17.5984 26.0149 17.665 26.0149 17.9311C26.0149 18.2638 25.7488 18.3969 25.0834 18.3969C24.6177 18.3969 24.1519 18.3303 23.6862 18.1973L23.4866 19.3949H23.5531L23.8193 19.4615C23.8858 19.4615 24.0854 19.528 24.2185 19.528C24.6177 19.528 24.8838 19.5945 25.0834 19.5945C26.7468 19.5945 27.5453 19.0622 27.5453 17.8646C27.5453 17.1327 27.2126 16.7335 26.4142 16.4008C25.7488 16.1346 25.6823 16.0681 25.6823 15.802C25.6823 15.5358 25.9484 15.4027 26.4807 15.4027C26.8134 15.4027 27.2126 15.4027 27.6118 15.4693L27.8114 14.2716C27.4122 14.2051 26.8134 14.1385 26.4142 14.1385C24.6842 14.1385 24.0854 14.937 24.0854 15.8685Z" fill="white"/>
<path d="M16.7671 17.1327C16.5675 17.1327 16.501 17.1327 16.4344 17.1327C15.5694 17.1327 15.1037 17.3988 15.1037 17.9311C15.1037 18.2638 15.3033 18.4634 15.636 18.4634C16.2348 18.3969 16.7006 17.8646 16.7671 17.1327ZM17.8982 19.3949H16.5675L16.634 18.8626C16.2348 19.2619 15.7025 19.4615 14.9706 19.4615C14.1057 19.4615 13.5734 18.8626 13.5734 18.0642C13.5734 16.8 14.5714 16.0681 16.3014 16.0681C16.501 16.0681 16.7006 16.0681 16.9667 16.1346C17.0333 15.935 17.0332 15.8685 17.0332 15.802C17.0332 15.4693 16.7671 15.3362 16.0352 15.3362C15.5694 15.3362 15.1037 15.4027 14.771 15.4693L14.5714 15.5358L14.4383 15.6023L14.6379 14.4047C15.4364 14.2051 15.9021 14.1385 16.501 14.1385C17.8317 14.1385 18.5636 14.6708 18.5636 15.6689C18.5636 15.935 18.5636 16.1346 18.4305 16.6669L18.0978 18.53L18.0313 18.8626L17.9648 19.1288V19.3284L17.8982 19.3949Z" fill="white"/>
<path d="M22.2231 16.2007C22.2231 16.0676 22.2231 16.0011 22.2231 15.9346C22.2231 15.5353 21.9569 15.2692 21.4912 15.2692C20.9589 15.2692 20.6262 15.6019 20.4931 16.2007H22.2231ZM23.0215 19.3279C22.4892 19.461 21.9569 19.5275 21.4246 19.5275C19.6947 19.5275 18.7632 18.7291 18.7632 17.1987C18.7632 15.4023 19.8943 14.0715 21.4912 14.0715C22.7554 14.0715 23.6203 14.8034 23.6203 15.9346C23.6203 16.3338 23.5538 16.6665 23.4207 17.1987H20.2935C20.2935 17.2653 20.2935 17.3318 20.2935 17.3318C20.2935 17.9306 20.7593 18.2633 21.6908 18.2633C22.2231 18.2633 22.7554 18.1303 23.3542 17.9306L23.0215 19.3279Z" fill="white"/>
<path d="M38.1248 16.4008C38.1248 15.8685 37.9252 15.3362 37.2599 15.3362C36.4614 15.3362 35.9957 16.2677 35.9957 17.1327C35.9957 17.8646 36.3284 18.3303 36.9272 18.3303C37.2599 18.3303 37.9918 17.8646 38.1248 17.0661C38.1248 16.8665 38.1248 16.6004 38.1248 16.4008ZM39.7883 17.0661C39.5221 18.7961 38.3245 19.5945 36.7276 19.5945C34.9311 19.5945 34.2657 18.53 34.2657 17.1992C34.2657 15.3362 35.4634 14.1385 37.3264 14.1385C38.9898 14.1385 39.7883 15.1366 39.7883 16.4673C39.8548 16.7335 39.8548 16.7335 39.7883 17.0661Z" fill="white"/>
</svg>
