<svg width="47" height="33" viewBox="0 0 47 33" fill="none" xmlns="http://www.w3.org/2000/svg">
<rect x="0.96879" y="1.03031" width="45.9101" height="31.2721" rx="3.6595" fill="white" stroke="#D9D9D9" stroke-width="0.665363"/>
<path d="M44.9198 16.6665C44.9198 23.7859 39.1311 29.6411 31.9452 29.6411C24.8258 29.6411 18.9706 23.7859 18.9706 16.6665C18.9706 9.54709 24.7592 3.69189 31.8786 3.69189C39.1311 3.69189 44.9198 9.54709 44.9198 16.6665Z" fill="#F9B50B"/>
<path d="M27.554 16.7328C27.554 15.8013 27.4209 14.8698 27.2879 14.0048H19.3035C19.3701 13.539 19.5031 13.1398 19.6362 12.6075H26.7556C26.6225 12.1418 26.4229 11.676 26.2233 11.2103H20.1685C20.3681 10.7445 20.6342 10.3453 20.9004 9.81299H25.4914C25.2252 9.34724 24.8926 8.88148 24.4933 8.41573H21.965C22.3642 7.94998 22.7634 7.55076 23.2957 7.085C21.0335 4.95584 17.9728 3.69165 14.5794 3.69165C7.52658 3.89126 1.67139 9.54685 1.67139 16.6662C1.67139 23.7856 7.46005 29.6408 14.646 29.6408C18.0393 29.6408 21.0335 28.3101 23.3622 26.2475C23.828 25.8483 24.2272 25.3825 24.693 24.8502H22.0315C21.6988 24.451 21.3661 23.9852 21.1 23.5195H25.6245C25.8906 23.1203 26.1568 22.6545 26.3564 22.1222H20.3016C20.1019 21.723 19.9023 21.2572 19.7693 20.725H26.8887C27.2879 19.5273 27.554 18.1966 27.554 16.7328Z" fill="#C8191C"/>
<path d="M19.2362 19.993L19.4358 18.7954C19.3693 18.7954 19.2362 18.8619 19.1031 18.8619C18.6374 18.8619 18.5708 18.5958 18.6374 18.4627L19.0366 16.0674H19.7685L19.9681 14.7367H19.3027L19.4358 13.9382H18.0385C18.0385 13.9382 17.2401 18.4627 17.2401 18.995C17.2401 19.7934 17.7059 20.1926 18.3712 20.1926C18.7704 20.1926 19.1031 20.0596 19.2362 19.993Z" fill="white"/>
<path d="M19.7024 17.7974C19.7024 19.727 21.0331 20.1927 22.0977 20.1927C23.0957 20.1927 23.5615 19.9931 23.5615 19.9931L23.8276 18.6624C23.8276 18.6624 23.0957 18.9951 22.3638 18.9951C20.8335 18.9951 21.0997 17.8639 21.0997 17.8639H23.8942C23.8942 17.8639 24.0938 16.999 24.0938 16.5997C24.0938 15.7348 23.628 14.6037 22.0977 14.6037C20.767 14.5371 19.7024 16.0675 19.7024 17.7974ZM22.0977 15.8013C22.8296 15.8013 22.6965 16.6663 22.6965 16.7328H21.1662C21.2327 16.6663 21.3658 15.8013 22.0977 15.8013Z" fill="white"/>
<path d="M30.8142 19.9929L31.0803 18.4625C31.0803 18.4625 30.415 18.7952 29.8827 18.7952C28.9512 18.7952 28.4854 18.0633 28.4854 17.1983C28.4854 15.5349 29.2838 14.67 30.2819 14.67C30.9473 14.67 31.5461 15.0692 31.5461 15.0692L31.7457 13.6054C31.7457 13.6054 30.9473 13.2727 30.1488 13.2727C28.5519 13.2727 27.0216 14.67 27.0216 17.2649C27.0216 18.9948 27.82 20.1259 29.4835 20.1259C30.0823 20.1925 30.8142 19.9929 30.8142 19.9929Z" fill="white"/>
<path d="M11.718 14.5375C10.7865 14.5375 10.0546 14.8036 10.0546 14.8036L9.85495 16.0013C9.85495 16.0013 10.4538 15.7351 11.3853 15.7351C11.851 15.7351 12.2503 15.8017 12.2503 16.2009C12.2503 16.467 12.1837 16.5336 12.1837 16.5336H11.5849C10.3872 16.5336 9.12305 16.9993 9.12305 18.5962C9.12305 19.8604 9.92148 20.1265 10.4538 20.1265C11.3853 20.1265 11.851 19.5277 11.9176 19.5277L11.851 20.06H12.9822L13.5144 16.2674C13.5144 14.604 12.1837 14.5375 11.718 14.5375ZM11.9841 17.5981C11.9841 17.7978 11.851 18.9289 11.0526 18.9289C10.6534 18.9289 10.5203 18.5962 10.5203 18.3966C10.5203 18.0639 10.7199 17.5981 11.7845 17.5981C11.9176 17.5981 11.9841 17.5981 11.9841 17.5981Z" fill="white"/>
<path d="M14.845 20.1268C15.1777 20.1268 16.9077 20.1933 16.9077 18.3303C16.9077 16.6004 15.2443 16.933 15.2443 16.2677C15.2443 15.935 15.5104 15.8019 15.9762 15.8019C16.1758 15.8019 16.9077 15.8685 16.9077 15.8685L17.1073 14.6043C17.1073 14.6043 16.6415 14.4712 15.7766 14.4712C14.7785 14.4712 13.7139 14.8704 13.7139 16.2677C13.7139 17.8645 15.4439 17.7315 15.4439 18.3303C15.4439 18.7295 14.9781 18.7961 14.6454 18.7961C14.0466 18.7961 13.3813 18.5964 13.3813 18.5964L13.1816 19.8606C13.3147 19.9937 13.7139 20.1268 14.845 20.1268Z" fill="white"/>
<path d="M42.2585 13.4733L41.9924 15.3363C41.9924 15.3363 41.4601 14.6709 40.6617 14.6709C39.3975 14.6709 38.3329 16.2013 38.3329 17.9977C38.3329 19.1289 38.8652 20.26 40.0628 20.26C40.8613 20.26 41.3936 19.7277 41.3936 19.7277L41.327 20.1934H42.7243L43.7223 13.6063L42.2585 13.4733ZM41.5932 17.0662C41.5932 17.7981 41.2605 18.7962 40.462 18.7962C39.9963 18.7962 39.7302 18.397 39.7302 17.6651C39.7302 16.5339 40.1959 15.8686 40.8613 15.8686C41.327 15.9351 41.5932 16.2678 41.5932 17.0662Z" fill="white"/>
<path d="M4.19889 20.0604L4.99733 15.1367L5.1304 20.0604H6.06191L7.85839 15.1367L7.12649 20.0604H8.59029L9.72141 13.4733H7.45917L6.06191 17.532L5.99537 13.4733H3.99928L2.86816 20.0604H4.19889Z" fill="white"/>
<path d="M25.4904 20.0602C25.8896 17.798 25.9562 15.935 26.9542 16.2676C27.0873 15.4027 27.2869 15.0035 27.42 14.6708H27.1538C26.555 14.6708 26.0227 15.4692 26.0227 15.4692L26.1558 14.7373H24.8251L23.9601 20.0602H25.4904Z" fill="white"/>
<path d="M34.0074 14.5375C33.0759 14.5375 32.344 14.8036 32.344 14.8036L32.1444 16.0013C32.1444 16.0013 32.7432 15.7351 33.6747 15.7351C34.1405 15.7351 34.5397 15.8017 34.5397 16.2009C34.5397 16.467 34.4731 16.5336 34.4731 16.5336H33.8743C32.6767 16.5336 31.4125 16.9993 31.4125 18.5962C31.4125 19.8604 32.2109 20.1265 32.7432 20.1265C33.6747 20.1265 34.1405 19.5277 34.207 19.5277L34.1405 20.06H35.4047L35.9369 16.2674C35.9369 14.604 34.4731 14.5375 34.0074 14.5375ZM34.3401 17.5981C34.3401 17.7978 34.207 18.9289 33.4086 18.9289C33.0093 18.9289 32.8763 18.5962 32.8763 18.3966C32.8763 18.0639 33.0759 17.5981 34.1405 17.5981C34.2735 17.5981 34.2735 17.5981 34.3401 17.5981Z" fill="white"/>
<path d="M37.0021 20.0602C37.4014 17.798 37.4679 15.935 38.4659 16.2676C38.599 15.4027 38.7986 15.0035 38.9317 14.6708H38.6655C38.0667 14.6708 37.5344 15.4692 37.5344 15.4692L37.6675 14.7373H36.3368L35.4718 20.0602H37.0021Z" fill="white"/>
</svg>
