<svg width="47" height="33" viewBox="0 0 47 33" fill="none" xmlns="http://www.w3.org/2000/svg">
<rect x="0.82963" y="1.03031" width="45.9101" height="31.2721" rx="3.6595" fill="white" stroke="#D9D9D9" stroke-width="0.665363"/>
<path d="M41.3826 11.1947H38.7639C37.9722 11.1947 37.3632 11.4383 36.9978 12.23L32.004 23.6183H35.5362C35.5362 23.6183 36.1452 22.0958 36.267 21.7304C36.6324 21.7304 40.1037 21.7304 40.5909 21.7304C40.7127 22.1567 41.0172 23.5574 41.0172 23.5574H44.184L41.3826 11.1947ZM37.2414 19.1726C37.5459 18.4418 38.5812 15.7013 38.5812 15.7013C38.5812 15.7622 38.8857 14.9705 39.0075 14.5442L39.2511 15.6404C39.2511 15.6404 39.921 18.6245 40.0428 19.2335H37.2414V19.1726Z" fill="#3362AB"/>
<path d="M32.248 19.5377C32.248 22.0955 29.9338 23.8007 26.3407 23.8007C24.8182 23.8007 23.3566 23.4962 22.5649 23.1308L23.0521 20.3294L23.4784 20.5121C24.5746 20.9993 25.3054 21.182 26.6452 21.182C27.6196 21.182 28.6549 20.8166 28.6549 19.964C28.6549 19.4159 28.2286 19.0505 26.8888 18.4415C25.6099 17.8325 23.9047 16.8581 23.9047 15.092C23.9047 12.656 26.2798 11.0117 29.6293 11.0117C30.9082 11.0117 32.0044 11.2553 32.6743 11.5598L32.1871 14.2394L31.9435 13.9958C31.3345 13.7522 30.5428 13.5086 29.3857 13.5086C28.1068 13.5695 27.4978 14.1176 27.4978 14.6048C27.4978 15.1529 28.2286 15.5792 29.3857 16.1273C31.3345 17.0408 32.248 18.0761 32.248 19.5377Z" fill="#3362AB"/>
<path d="M2.52856 11.3151L2.58946 11.0715H7.82686C8.55766 11.0715 9.10576 11.3151 9.28846 12.1068L10.4456 17.5878C9.28846 14.6646 6.60886 12.2895 2.52856 11.3151Z" fill="#F9B50B"/>
<path d="M17.8143 11.1943L12.516 23.557H8.92293L5.87793 13.204C8.07033 14.6047 9.89733 16.7971 10.5672 18.3196L10.9326 19.5985L14.2212 11.1334H17.8143V11.1943Z" fill="#3362AB"/>
<path d="M19.2158 11.1334H22.5653L20.4338 23.557H17.0844L19.2158 11.1334Z" fill="#3362AB"/>
</svg>
