<svg width="263" height="79" viewBox="0 0 263 79" fill="none" xmlns="http://www.w3.org/2000/svg">
<g clip-path="url(#clip0)">
<path d="M252.844 0.523682H10.1561C4.79481 0.523682 0.448608 4.86988 0.448608 10.2312V68.4762C0.448608 73.8376 4.79481 78.1838 10.1561 78.1838H252.844C258.205 78.1838 262.551 73.8376 262.551 68.4762V10.2312C262.551 4.86988 258.205 0.523682 252.844 0.523682Z" fill="black"/>
<path d="M252.844 2.07688C255.007 2.07688 257.081 2.936 258.61 4.46522C260.139 5.99445 260.998 8.06853 260.998 10.2312V68.4762C260.998 70.6389 260.139 72.713 258.61 74.2422C257.081 75.7714 255.007 76.6306 252.844 76.6306H10.1561C7.99346 76.6306 5.91938 75.7714 4.39015 74.2422C2.86092 72.713 2.00181 70.6389 2.00181 68.4762V10.2312C2.00181 8.06853 2.86092 5.99445 4.39015 4.46522C5.91938 2.936 7.99346 2.07688 10.1561 2.07688H252.844ZM252.844 0.523682H10.1561C7.58153 0.523682 5.11238 1.54643 3.29187 3.36695C1.47136 5.18746 0.448608 7.6566 0.448608 10.2312V68.4762C0.448608 71.0508 1.47136 73.52 3.29187 75.3405C5.11238 77.161 7.58153 78.1838 10.1561 78.1838H252.844C255.418 78.1838 257.888 77.161 259.708 75.3405C261.529 73.52 262.551 71.0508 262.551 68.4762V10.2312C262.551 7.6566 261.529 5.18746 259.708 3.36695C257.888 1.54643 255.418 0.523682 252.844 0.523682Z" fill="#000"/>
<path d="M132.743 42.7489C131.113 42.7566 129.521 43.2471 128.17 44.1584C126.818 45.0697 125.766 46.3611 125.148 47.8695C124.529 49.3779 124.371 51.0357 124.694 52.6338C125.017 54.2318 125.806 55.6984 126.961 56.8485C128.117 57.9986 129.587 58.7806 131.187 59.0959C132.786 59.4111 134.443 59.2455 135.949 58.6198C137.454 57.9942 138.741 56.9366 139.646 55.5805C140.55 54.2244 141.033 52.6306 141.033 51.0003C141.049 49.9091 140.845 48.8258 140.434 47.815C140.022 46.8042 139.412 45.8865 138.638 45.1166C137.865 44.3467 136.944 43.7403 135.931 43.3336C134.919 42.9268 133.834 42.728 132.743 42.7489ZM132.743 56.0094C131.741 56.0795 130.74 55.8464 129.872 55.3403C129.003 54.8343 128.307 54.0787 127.874 53.1718C127.441 52.2649 127.29 51.2486 127.442 50.2551C127.594 49.2615 128.042 48.3367 128.726 47.6008C129.411 46.8649 130.301 46.352 131.281 46.1287C132.261 45.9053 133.285 45.982 134.221 46.3486C135.157 46.7153 135.961 47.355 136.528 48.1846C137.096 49.0141 137.4 49.9952 137.403 51.0003C137.434 51.6372 137.338 52.2738 137.119 52.8727C136.9 53.4717 136.564 54.0208 136.129 54.4876C135.695 54.9544 135.172 55.3296 134.59 55.591C134.009 55.8523 133.381 55.9946 132.743 56.0094ZM114.668 42.7489C113.037 42.7528 111.443 43.24 110.089 44.149C108.735 45.058 107.68 46.348 107.058 47.8561C106.437 49.3642 106.276 51.0226 106.597 52.622C106.917 54.2213 107.705 55.6897 108.86 56.8418C110.014 57.9938 111.485 58.7777 113.085 59.0945C114.685 59.4114 116.343 59.2468 117.849 58.6217C119.356 57.9966 120.644 56.939 121.549 55.5825C122.455 54.226 122.939 52.6315 122.939 51.0003C122.954 49.9091 122.751 48.8258 122.339 47.815C121.928 46.8042 121.317 45.8865 120.543 45.1166C119.77 44.3467 118.849 43.7403 117.837 43.3336C116.824 42.9268 115.74 42.728 114.648 42.7489H114.668ZM114.668 56.0094C113.665 56.0835 112.663 55.8538 111.792 55.3504C110.921 54.8469 110.222 54.0929 109.786 53.1866C109.349 52.2803 109.196 51.2637 109.346 50.269C109.495 49.2743 109.941 48.3478 110.624 47.6099C111.308 46.872 112.198 46.357 113.178 46.1319C114.158 45.9068 115.184 45.9821 116.121 46.3479C117.058 46.7137 117.863 47.3531 118.431 48.1829C119 49.0127 119.305 49.9945 119.308 51.0003C119.339 51.6372 119.243 52.2738 119.024 52.8727C118.805 53.4717 118.469 54.0208 118.035 54.4876C117.6 54.9544 117.077 55.3296 116.495 55.591C115.914 55.8523 115.286 55.9946 114.648 56.0094H114.668ZM93.1366 45.2923V48.787H101.524C101.392 50.433 100.708 51.9862 99.5824 53.1942C98.7433 54.0489 97.7345 54.7185 96.621 55.1599C95.5076 55.6013 94.314 55.8047 93.1172 55.757C90.6456 55.757 88.2752 54.7752 86.5275 53.0275C84.7798 51.2798 83.798 48.9094 83.798 46.4378C83.798 43.9662 84.7798 41.5958 86.5275 39.8481C88.2752 38.1004 90.6456 37.1186 93.1172 37.1186C95.4815 37.08 97.7647 37.9807 99.4659 39.6231L101.932 37.1574C100.783 35.9945 99.413 35.0739 97.9022 34.4503C96.3915 33.8267 94.7709 33.5126 93.1366 33.5268C91.4106 33.4596 89.6888 33.7416 88.0744 34.3558C86.4599 34.9699 84.9861 35.9037 83.7412 37.1011C82.4963 38.2985 81.5059 39.7349 80.8294 41.3243C80.1529 42.9136 79.8042 44.6231 79.8042 46.3504C79.8042 48.0777 80.1529 49.7873 80.8294 51.3766C81.5059 52.9659 82.4963 54.4023 83.7412 55.5997C84.9861 56.7971 86.4599 57.7309 88.0744 58.3451C89.6888 58.9593 91.4106 59.2412 93.1366 59.174C94.7984 59.2491 96.4571 58.9674 98.0009 58.3479C99.5448 57.7283 100.938 56.7853 102.087 55.5823C104.121 53.3474 105.207 50.4096 105.116 47.3891C105.122 46.6533 105.057 45.9185 104.922 45.1952L93.1366 45.2923ZM181.106 48.0104C180.6 46.5208 179.653 45.22 178.391 44.2805C177.129 43.3409 175.611 42.8068 174.039 42.7489C172.977 42.7469 171.926 42.9626 170.951 43.3829C169.975 43.8032 169.096 44.419 168.369 45.1924C167.641 45.9657 167.079 46.8802 166.719 47.8791C166.358 48.8781 166.207 49.9404 166.273 51.0003C166.249 52.0854 166.445 53.1642 166.847 54.1721C167.25 55.1801 167.852 56.0965 168.616 56.8667C169.381 57.6369 170.293 58.2451 171.298 58.6548C172.304 59.0646 173.381 59.2676 174.466 59.2517C175.824 59.259 177.163 58.9294 178.362 58.2924C179.562 57.6554 180.585 56.7309 181.339 55.6017L178.524 53.6602C178.104 54.3606 177.509 54.94 176.798 55.3416C176.086 55.7432 175.283 55.9532 174.466 55.9511C173.625 55.9832 172.794 55.7615 172.081 55.3148C171.367 54.8681 170.805 54.2172 170.467 53.4466L181.514 48.8841L181.106 48.0104ZM169.845 50.7673C169.806 50.1668 169.887 49.5645 170.083 48.9956C170.28 48.4267 170.587 47.9027 170.989 47.4543C171.39 47.0059 171.877 46.6421 172.421 46.3842C172.965 46.1263 173.554 45.9795 174.155 45.9524C174.782 45.9111 175.406 46.0548 175.952 46.3654C176.497 46.676 176.939 47.14 177.223 47.6998L169.845 50.7673ZM160.876 58.7663H164.506V34.4975H160.876V58.7663ZM154.935 44.5934H154.799C154.252 43.9816 153.581 43.4924 152.832 43.1578C152.082 42.8232 151.271 42.6508 150.45 42.6519C148.328 42.7547 146.327 43.67 144.862 45.208C143.397 46.746 142.58 48.7888 142.58 50.913C142.58 53.0372 143.397 55.0799 144.862 56.6179C146.327 58.1559 148.328 59.0712 150.45 59.174C151.272 59.1879 152.088 59.0212 152.84 58.6858C153.591 58.3503 154.26 57.8543 154.799 57.2325H154.915V58.4169C154.915 61.5815 153.226 63.2706 150.508 63.2706C149.603 63.2494 148.724 62.9593 147.984 62.4373C147.244 61.9152 146.677 61.1848 146.353 60.3389L143.189 61.6592C143.784 63.1082 144.799 64.3463 146.103 65.2145C147.408 66.0828 148.941 66.5417 150.508 66.5323C154.76 66.5323 158.274 64.0278 158.274 57.9315V43.2343H154.935V44.5934ZM150.78 56.0094C149.527 55.899 148.362 55.3235 147.513 54.3963C146.664 53.4692 146.193 52.2575 146.193 51.0003C146.193 49.7431 146.664 48.5315 147.513 47.6043C148.362 46.6771 149.527 46.1016 150.78 45.9912C151.401 46.0231 152.009 46.1789 152.569 46.4495C153.129 46.7201 153.629 47.1 154.039 47.5668C154.45 48.0336 154.763 48.5778 154.96 49.1675C155.157 49.7572 155.234 50.3804 155.187 51.0003C155.24 51.6229 155.166 52.2498 154.97 52.8431C154.774 53.4364 154.459 53.9837 154.045 54.4519C153.632 54.9201 153.127 55.2996 152.562 55.5673C151.998 55.835 151.385 55.9854 150.76 56.0094H150.78ZM198.114 34.4975H189.435V58.7663H193.066V49.5636H198.133C199.168 49.6379 200.207 49.4983 201.185 49.1534C202.163 48.8085 203.06 48.2658 203.82 47.559C204.579 46.8522 205.185 45.9966 205.599 45.0454C206.013 44.0943 206.227 43.068 206.227 42.0306C206.227 40.9932 206.013 39.9669 205.599 39.0157C205.185 38.0646 204.579 37.2089 203.82 36.5022C203.06 35.7954 202.163 35.2526 201.185 34.9077C200.207 34.5628 199.168 34.4232 198.133 34.4975H198.114ZM198.114 46.1466H193.046V37.8758H198.191C199.296 37.8758 200.355 38.3145 201.136 39.0955C201.917 39.8765 202.356 40.9358 202.356 42.0403C202.356 43.1448 201.917 44.204 201.136 44.985C200.355 45.766 199.296 46.2048 198.191 46.2048L198.114 46.1466ZM220.499 42.6519C219.177 42.5729 217.861 42.8817 216.713 43.5405C215.564 44.1993 214.633 45.1793 214.034 46.3601L217.257 47.6998C217.575 47.1141 218.056 46.6335 218.642 46.3163C219.228 45.9992 219.893 45.8593 220.557 45.9136C221.018 45.8598 221.485 45.8982 221.931 46.0268C222.377 46.1554 222.793 46.3715 223.154 46.6624C223.516 46.9534 223.816 47.3134 224.036 47.7216C224.257 48.1297 224.395 48.5777 224.44 49.0394V49.2918C223.274 48.6744 221.974 48.3543 220.654 48.3599C217.179 48.3599 213.665 50.3014 213.665 53.8155C213.699 54.5648 213.884 55.2996 214.207 55.9765C214.53 56.6534 214.986 57.2586 215.547 57.7564C216.108 58.2541 216.763 58.6343 217.474 58.8745C218.184 59.1147 218.936 59.2099 219.684 59.1546C220.598 59.2203 221.513 59.0386 222.333 58.6287C223.153 58.2187 223.847 57.5957 224.343 56.8248H224.46V58.7663H227.955V49.4277C227.955 45.1758 224.732 42.7101 220.596 42.7101L220.499 42.6519ZM220.053 55.9511C218.868 55.9511 217.218 55.3493 217.218 53.8932C217.218 51.9517 219.276 51.311 221.101 51.311C222.254 51.2825 223.394 51.5641 224.402 52.1264C224.28 53.1775 223.783 54.1494 223.002 54.8629C222.22 55.5764 221.207 55.9836 220.15 56.0094L220.053 55.9511ZM240.691 43.2343L236.536 53.7572H236.419L232.109 43.2343H228.226L234.692 57.9509L231.003 66.1246H234.789L244.729 43.2343H240.691ZM208.054 58.7663H211.685V34.4975H208.054V58.7663Z" fill="white"/>
<path d="M82.2062 28.2283H80.7695V24.3452H81.9926C82.5503 23.7542 82.9715 23.048 83.2265 22.2764C83.4814 21.5049 83.5639 20.6867 83.4682 19.8798V14.1135H91.2342V24.3258H92.535V28.2088H91.0983V25.7625H82.2062V28.2283ZM84.9049 19.938C84.9955 21.5041 84.6096 23.0609 83.7982 24.4035H89.6227V15.5502H84.9049V19.938ZM104.145 24.2482C103.01 25.3769 101.475 26.0104 99.8738 26.0104C98.2732 26.0104 96.7376 25.3769 95.6025 24.2482C94.4993 23.0804 93.8847 21.5348 93.8847 19.9283C93.8847 18.3219 94.4993 16.7763 95.6025 15.6085C96.162 15.045 96.8274 14.5977 97.5605 14.2925C98.2936 13.9873 99.0798 13.8301 99.8738 13.8301C100.668 13.8301 101.454 13.9873 102.187 14.2925C102.92 14.5977 103.586 15.045 104.145 15.6085C105.253 16.774 105.87 18.3205 105.87 19.9283C105.87 21.5362 105.253 23.0826 104.145 24.2482ZM96.7092 23.2774C97.5497 24.1144 98.6876 24.5844 99.8738 24.5844C101.06 24.5844 102.198 24.1144 103.038 23.2774C103.868 22.363 104.327 21.1726 104.327 19.938C104.327 18.7035 103.868 17.5131 103.038 16.5987C102.198 15.7616 101.06 15.2917 99.8738 15.2917C98.6876 15.2917 97.5497 15.7616 96.7092 16.5987C95.8797 17.5131 95.4202 18.7035 95.4202 19.938C95.4202 21.1726 95.8797 22.363 96.7092 23.2774ZM113.406 26.0149C112.605 26.0309 111.808 25.8844 111.065 25.5844C110.321 25.2844 109.646 24.8371 109.08 24.2693C108.514 23.7015 108.069 23.0251 107.772 22.2807C107.474 21.5364 107.33 20.7395 107.349 19.938C107.33 19.1366 107.474 18.3397 107.772 17.5953C108.069 16.851 108.514 16.1745 109.08 15.6068C109.646 15.039 110.321 14.5917 111.065 14.2916C111.808 13.9916 112.605 13.8452 113.406 13.8611C114.218 13.841 115.025 14.0053 115.765 14.3415C116.504 14.6778 117.158 15.1773 117.677 15.8026L116.629 16.8122C116.246 16.3254 115.751 15.9374 115.187 15.6807C114.623 15.424 114.006 15.306 113.387 15.3367C112.791 15.3212 112.198 15.4268 111.644 15.647C111.09 15.8673 110.586 16.1976 110.164 16.6181C109.322 17.538 108.855 18.7397 108.855 19.9866C108.855 21.2335 109.322 22.4352 110.164 23.3551C110.586 23.7755 111.09 24.1059 111.644 24.3261C112.198 24.5464 112.791 24.652 113.387 24.6365C114.07 24.6304 114.744 24.4721 115.358 24.1732C115.973 23.8744 116.513 23.4423 116.94 22.9085L117.988 23.9569C117.46 24.5979 116.797 25.1149 116.047 25.4713C115.218 25.8467 114.316 26.0324 113.406 26.0149ZM124.084 25.7625H122.589V15.5502H119.328V14.1135H127.327V15.5502H124.084V25.7625ZM137.617 14.1135L133.209 23.9375C133.033 24.5187 132.681 25.0307 132.201 25.4028C131.721 25.7749 131.137 25.9888 130.53 26.0149C130.129 26.0098 129.733 25.924 129.365 25.7625L129.754 24.3841C129.989 24.5215 130.257 24.5951 130.53 24.5976C130.816 24.6191 131.101 24.5513 131.346 24.4035C131.579 24.2055 131.76 23.9518 131.87 23.6657L132.297 22.7338L128.414 14.1329H130.181L133.054 20.8117L135.85 14.1135H137.617ZM139.306 25.7625V14.1135H147.732V25.7625H146.237V15.5502H140.801V25.7625H139.306ZM150.392 25.7625V14.1135H151.887V19.1032H157.711V14.1135H159.206V25.7625H157.711V20.5011H151.887V25.7625H150.392ZM171.418 24.2482C170.283 25.3769 168.748 26.0104 167.147 26.0104C165.546 26.0104 164.011 25.3769 162.876 24.2482C161.772 23.0804 161.158 21.5348 161.158 19.9283C161.158 18.3219 161.772 16.7763 162.876 15.6085C163.435 15.045 164.1 14.5977 164.834 14.2925C165.567 13.9873 166.353 13.8301 167.147 13.8301C167.941 13.8301 168.727 13.9873 169.46 14.2925C170.193 14.5977 170.859 15.045 171.418 15.6085C172.526 16.774 173.143 18.3205 173.143 19.9283C173.143 21.5362 172.526 23.0826 171.418 24.2482ZM163.982 23.2774C164.823 24.1144 165.961 24.5844 167.147 24.5844C168.333 24.5844 169.471 24.1144 170.312 23.2774C171.141 22.363 171.601 21.1726 171.601 19.938C171.601 18.7035 171.141 17.5131 170.312 16.5987C169.471 15.7616 168.333 15.2917 167.147 15.2917C165.961 15.2917 164.823 15.7616 163.982 16.5987C163.153 17.5131 162.693 18.7035 162.693 19.938C162.693 21.1726 163.153 22.363 163.982 23.2774ZM179.242 25.7625V14.1135H183.456C184.33 14.097 185.178 14.4167 185.824 15.0066C186.149 15.2882 186.407 15.6376 186.582 16.0301C186.756 16.4226 186.842 16.8487 186.834 17.2782C186.843 17.7957 186.694 18.3037 186.407 18.7343C186.122 19.1526 185.725 19.4822 185.261 19.6856C185.824 19.8721 186.318 20.2239 186.678 20.6952C187.052 21.1709 187.25 21.7603 187.241 22.3649C187.251 22.8125 187.163 23.2568 186.981 23.6661C186.8 24.0755 186.531 24.44 186.193 24.7335C185.517 25.3571 184.628 25.6976 183.708 25.6849L179.242 25.7625ZM180.737 19.1032H183.456C183.709 19.1138 183.962 19.0689 184.197 18.9717C184.432 18.8744 184.643 18.7272 184.815 18.5402C184.986 18.3843 185.125 18.1954 185.223 17.9847C185.32 17.7741 185.374 17.546 185.381 17.3141C185.388 17.0822 185.349 16.8511 185.265 16.6348C185.181 16.4185 185.054 16.2213 184.892 16.055C184.73 15.8715 184.529 15.7259 184.305 15.6286C184.08 15.5313 183.836 15.4847 183.591 15.492H180.815L180.737 19.1032ZM180.737 24.3258H183.747C184.01 24.3347 184.271 24.2853 184.513 24.1812C184.755 24.0772 184.97 23.921 185.145 23.724C185.487 23.3689 185.681 22.8969 185.688 22.4037C185.688 21.8888 185.484 21.395 185.12 21.0309C184.755 20.6668 184.262 20.4622 183.747 20.4622H180.796L180.737 24.3258Z" fill="white"/>
<path fill-rule="evenodd" clip-rule="evenodd" d="M99.8738 14.0243C99.1054 14.0243 98.3445 14.1764 97.6351 14.4717C96.9264 14.7668 96.2831 15.199 95.742 15.7436C94.6739 16.8751 94.0789 18.3722 94.0789 19.9283C94.0789 21.4842 94.6737 22.9812 95.7416 24.1126C96.84 25.2038 98.3255 25.8163 99.8738 25.8163C101.422 25.8163 102.908 25.2037 104.006 24.1125C105.078 22.9832 105.676 21.4855 105.676 19.9283C105.676 18.371 105.078 16.873 104.006 15.7438C103.465 15.1991 102.821 14.7668 102.113 14.4717C101.403 14.1764 100.642 14.0243 99.8738 14.0243ZM97.4859 14.1132C98.2426 13.7982 99.0542 13.636 99.8738 13.636C100.694 13.636 101.505 13.7982 102.262 14.1132C103.019 14.4283 103.705 14.89 104.283 15.4717L104.286 15.4747C105.428 16.6763 106.064 18.2707 106.064 19.9283C106.064 21.586 105.428 23.1803 104.286 24.3819L104.282 24.3859C103.111 25.5508 101.526 26.2046 99.8738 26.2046C98.2219 26.2046 96.637 25.5507 95.4656 24.3858L95.4613 24.3816C94.3241 23.1778 93.6906 21.5844 93.6906 19.9283C93.6906 18.2723 94.3241 16.679 95.4614 15.4752L95.4647 15.4717C96.0422 14.89 96.7291 14.4283 97.4859 14.1132ZM167.147 14.0243C166.378 14.0243 165.618 14.1764 164.908 14.4717C164.2 14.7668 163.556 15.199 163.015 15.7435C161.947 16.875 161.352 18.3722 161.352 19.9283C161.352 21.4842 161.947 22.9812 163.015 24.1127C164.113 25.2038 165.599 25.8163 167.147 25.8163C168.695 25.8163 170.181 25.2037 171.279 24.1123C172.351 22.9831 172.949 21.4855 172.949 19.9283C172.949 18.371 172.351 16.8731 171.279 15.7438C170.738 15.1991 170.094 14.7668 169.386 14.4717C168.676 14.1764 167.915 14.0243 167.147 14.0243ZM164.759 14.1132C165.516 13.7982 166.327 13.636 167.147 13.636C167.967 13.636 168.778 13.7982 169.535 14.1132C170.292 14.4283 170.978 14.89 171.556 15.4717L171.559 15.4747C172.701 16.6764 173.338 18.2707 173.338 19.9283C173.338 21.586 172.701 23.1803 171.559 24.3819L171.555 24.3859C170.384 25.5508 168.799 26.2046 167.147 26.2046C165.495 26.2046 163.91 25.5507 162.739 24.3858L162.734 24.3816C161.597 23.1778 160.964 21.5844 160.964 19.9283C160.964 18.2723 161.597 16.679 162.734 15.4752L162.738 15.4717C163.315 14.89 164.002 14.4283 164.759 14.1132ZM115.684 14.5183C114.971 14.1942 114.194 14.0358 113.411 14.0552L113.402 14.0554C112.627 14.04 111.857 14.1815 111.137 14.4717C110.418 14.7619 109.765 15.1946 109.218 15.7438C108.67 16.293 108.24 16.9474 107.952 17.6674C107.664 18.3874 107.525 19.1583 107.543 19.9336L107.543 19.9425C107.525 20.7178 107.664 21.4886 107.952 22.2087C108.24 22.9287 108.67 23.583 109.218 24.1322C109.765 24.6815 110.418 25.1142 111.137 25.4044C111.857 25.6946 112.627 25.8362 113.402 25.8208L113.406 26.0149L113.41 25.8208C114.29 25.8377 115.163 25.6581 115.965 25.2952C116.636 24.9762 117.234 24.5243 117.724 23.9675L116.952 23.1958C116.532 23.676 116.019 24.0679 115.443 24.3478C114.803 24.6591 114.102 24.824 113.39 24.8306C112.768 24.8465 112.15 24.7363 111.572 24.5066C110.994 24.2766 110.468 23.9317 110.027 23.4927L110.02 23.4863C109.146 22.5306 108.661 21.282 108.661 19.9866C108.661 18.6912 109.146 17.4427 110.021 16.487L110.027 16.4803C110.468 16.0413 110.994 15.6966 111.572 15.4666C112.148 15.2375 112.765 15.1273 113.384 15.1424C114.032 15.1115 114.677 15.2355 115.267 15.504C115.795 15.7439 116.264 16.0931 116.645 16.5275L117.411 15.7901C116.931 15.251 116.343 14.8175 115.684 14.5183ZM113.406 26.2091C112.58 26.225 111.759 26.0738 110.992 25.7645C110.224 25.4547 109.527 24.9927 108.943 24.4064C108.358 23.8201 107.899 23.1215 107.591 22.3528C107.285 21.5855 107.136 20.7642 107.154 19.938C107.136 19.1119 107.285 18.2906 107.591 17.5233C107.899 16.7546 108.358 16.056 108.943 15.4697C109.527 14.8834 110.224 14.4214 110.992 14.1116C111.758 13.8023 112.579 13.6511 113.406 13.6669C114.246 13.6468 115.08 13.817 115.845 14.1648C116.611 14.5132 117.289 15.0308 117.827 15.6786L117.942 15.8174L116.609 17.1008L116.476 16.9324C116.112 16.4699 115.642 16.1013 115.107 15.8574C114.571 15.6136 113.984 15.5015 113.396 15.5306L113.382 15.5313C112.812 15.5165 112.245 15.6169 111.716 15.8274C111.187 16.0374 110.707 16.3521 110.304 16.7525C109.497 17.6362 109.049 18.7897 109.049 19.9866C109.049 21.1834 109.497 22.337 110.304 23.2207C110.707 23.6211 111.187 23.9357 111.716 24.1457C112.245 24.3563 112.812 24.4572 113.382 24.4424L113.385 24.4423C114.04 24.4365 114.685 24.2849 115.273 23.9986C115.862 23.7124 116.379 23.2986 116.788 22.7873L116.923 22.6178L118.25 23.9444L118.138 24.0805C117.591 24.7433 116.906 25.278 116.13 25.6467L116.127 25.6482C115.273 26.035 114.343 26.2265 113.406 26.2091ZM185.693 15.15C185.084 14.5936 184.284 14.2921 183.459 14.3076L183.456 14.3077H179.437V25.565L183.705 25.4908L183.711 25.4908C184.581 25.5028 185.422 25.1807 186.061 24.5908L186.066 24.5869C186.382 24.312 186.634 23.9709 186.804 23.5876C186.973 23.2043 187.057 22.7883 187.047 22.3692L187.047 22.362C187.056 21.8019 186.872 21.2558 186.526 20.8151L186.524 20.8131C186.188 20.3728 185.726 20.0441 185.2 19.87L184.72 19.7111L185.183 19.5079C185.613 19.3192 185.981 19.0136 186.246 18.6259C186.511 18.2283 186.648 17.7594 186.64 17.2816V17.2744C186.647 16.8733 186.567 16.4755 186.404 16.109C186.241 15.7424 186 15.4162 185.697 15.1533L185.693 15.15ZM185.953 14.8617C185.271 14.2396 184.377 13.9024 183.454 13.9194H179.048V25.9601L183.705 25.879L183.708 25.8791C184.676 25.8917 185.611 25.5336 186.323 24.8782C186.681 24.5662 186.967 24.1793 187.159 23.7447C187.351 23.3104 187.446 22.8391 187.436 22.3643L187.436 22.3678L187.241 22.3649L187.436 22.3606L187.436 22.3643C187.444 21.7168 187.231 21.0858 186.832 20.5763C186.535 20.1881 186.153 19.8761 185.717 19.6628C186.053 19.4518 186.342 19.1734 186.567 18.8436L186.568 18.842C186.877 18.3796 187.037 17.8341 187.028 17.2783L187.028 17.282L186.834 17.2782L187.028 17.2748L187.028 17.2783C187.036 16.8216 186.945 16.3687 186.759 15.9512C186.573 15.5335 186.298 15.1616 185.953 14.8617ZM83.274 13.9194H91.4283V24.1317H92.7291V28.403H90.9041V25.9567H82.4003V28.4224H80.5753V24.1511H81.908C82.4182 23.5934 82.8048 22.9338 83.0421 22.2155C83.2882 21.4709 83.3678 20.6814 83.2754 19.9027L83.274 19.8913V13.9194ZM83.6623 14.3077V19.8684C83.7593 20.6998 83.6735 21.5425 83.4108 22.3374C83.147 23.1359 82.711 23.8668 82.1338 24.4785L82.0764 24.5394H80.9636V28.0341H82.012V25.5684H91.2924V28.0147H92.3408V24.52H91.04V14.3077H83.6623ZM119.134 13.9194H127.521V15.7444H124.279V25.9567H122.395V15.7444H119.134V13.9194ZM119.522 14.3077V15.3561H122.784V25.5684H123.89V15.3561H127.133V14.3077H119.522ZM135.721 13.9194H137.917L133.392 24.0059C133.202 24.6206 132.828 25.162 132.32 25.5562C131.808 25.953 131.185 26.1811 130.539 26.2089L130.528 26.2094C130.1 26.2039 129.678 26.1122 129.287 25.9403L129.133 25.8724L129.635 24.0902L129.851 24.2163C130.058 24.3367 130.293 24.4013 130.532 24.4035L130.545 24.4036C130.785 24.4217 131.025 24.3666 131.232 24.2451C131.435 24.0697 131.592 23.8467 131.689 23.596L131.693 23.5847L132.084 22.7332L128.113 13.9388H130.309L133.051 20.3142L135.721 13.9194ZM135.979 14.3077L133.057 21.3093L130.053 14.3271H128.715L132.51 22.7344L132.049 23.7413C131.927 24.0553 131.728 24.334 131.471 24.5517L131.459 24.5617L131.446 24.5697C131.168 24.7373 130.845 24.8148 130.522 24.7917C130.3 24.7888 130.081 24.7442 129.877 24.6609L129.599 25.6478C129.896 25.7575 130.21 25.8161 130.527 25.8207C131.092 25.7953 131.635 25.5958 132.082 25.2494C132.53 24.9019 132.859 24.4238 133.024 23.8811L133.027 23.8693L137.317 14.3077H135.979ZM139.112 13.9194H147.926V25.9567H146.043V15.7444H140.995V25.9567H139.112V13.9194ZM139.5 14.3077V25.5684H140.607V15.3561H146.431V25.5684H147.538V14.3077H139.5ZM150.198 13.9194H152.081V18.909H157.517V13.9194H159.4V25.9567H157.517V20.6952H152.081V25.9567H150.198V13.9194ZM150.586 14.3077V25.5684H151.693V20.3069H157.905V25.5684H159.012V14.3077H157.905V19.2973H151.693V14.3077H150.586ZM96.5722 16.4611C97.4491 15.5878 98.6363 15.0975 99.8738 15.0975C101.111 15.0975 102.299 15.5878 103.175 16.4611L103.182 16.468C104.044 17.4182 104.522 18.6552 104.522 19.938C104.522 21.2208 104.044 22.4577 103.182 23.4079L103.176 23.4152C102.299 24.2884 101.111 24.7785 99.8738 24.7785C98.6363 24.7785 97.4491 24.2883 96.5722 23.415L96.7092 23.2774L96.5654 23.4079C95.7035 22.4577 95.2261 21.2208 95.2261 19.938C95.2261 18.6552 95.7035 17.4183 96.5654 16.4682L96.5722 16.4611ZM96.8497 23.1433C97.6535 23.9419 98.7406 24.3902 99.8738 24.3902C101.007 24.3902 102.094 23.9419 102.898 23.1433C103.693 22.2651 104.133 21.1227 104.133 19.938C104.133 18.7533 103.693 17.611 102.898 16.7328C102.094 15.9341 101.007 15.4858 99.8738 15.4858C98.7406 15.4858 97.6535 15.9341 96.8497 16.7328C96.0547 17.611 95.6144 18.7533 95.6144 19.938C95.6144 21.1227 96.0547 22.2651 96.8497 23.1433ZM163.845 16.4611C164.722 15.5878 165.909 15.0975 167.147 15.0975C168.384 15.0975 169.572 15.5878 170.449 16.4611L170.456 16.468C171.317 17.4182 171.795 18.6552 171.795 19.938C171.795 21.2208 171.317 22.4577 170.455 23.4079L170.449 23.4152C169.572 24.2884 168.384 24.7785 167.147 24.7785C165.909 24.7785 164.722 24.2883 163.845 23.415L163.982 23.2774L163.838 23.4079C162.977 22.4577 162.499 21.2208 162.499 19.938C162.499 18.6552 162.977 17.4183 163.838 16.4682L163.845 16.4611ZM164.123 23.1433C164.927 23.9419 166.014 24.3902 167.147 24.3902C168.28 24.3902 169.367 23.9419 170.171 23.1433C170.966 22.2651 171.406 21.1228 171.406 19.938C171.406 18.7533 170.966 17.6109 170.171 16.7327C169.367 15.9341 168.28 15.4858 167.147 15.4858C166.014 15.4858 164.927 15.9341 164.123 16.7327C163.328 17.6109 162.887 18.7533 162.887 19.938C162.887 21.1228 163.328 22.2651 164.123 23.1433ZM183.589 15.2978C183.861 15.2901 184.132 15.3422 184.382 15.4505C184.631 15.5585 184.854 15.7198 185.035 15.9231C185.213 16.1073 185.353 16.3254 185.446 16.5646C185.539 16.8052 185.583 17.0622 185.575 17.3201C185.567 17.5781 185.507 17.8318 185.399 18.0662C185.292 18.2978 185.14 18.5058 184.951 18.6781C184.761 18.8828 184.53 19.0441 184.271 19.151C184.012 19.2585 183.732 19.3085 183.452 19.2973H180.539L180.625 15.2978H183.589ZM184.227 15.8068C184.029 15.7208 183.814 15.6796 183.597 15.6861L183.591 15.6861H181.005L180.936 18.909H183.464C183.689 18.9185 183.914 18.8787 184.123 18.7923C184.332 18.7059 184.519 18.575 184.672 18.4087L184.678 18.4023L184.684 18.3963C184.837 18.258 184.96 18.0903 185.046 17.9033C185.133 17.7163 185.18 17.5139 185.187 17.308C185.193 17.1022 185.158 16.8971 185.084 16.7051C185.009 16.5131 184.897 16.338 184.753 16.1904L184.747 16.1838C184.603 16.0216 184.426 15.8928 184.227 15.8068ZM84.7107 15.3561H89.8169V24.5976H83.454L83.6321 24.3031C84.4232 22.9941 84.7994 21.4762 84.711 19.9492L84.7104 19.938L84.7107 15.3561ZM85.099 15.7444V19.9325C85.1841 21.4225 84.8486 22.9042 84.1339 24.2093H89.4286V15.7444H85.099ZM180.604 20.2681H183.747C184.313 20.2681 184.856 20.4931 185.257 20.8936C185.657 21.2941 185.882 21.8373 185.882 22.4037L185.882 22.4065C185.875 22.9476 185.662 23.4656 185.287 23.8558C185.094 24.0728 184.856 24.2448 184.59 24.3596C184.323 24.4745 184.034 24.5292 183.744 24.52H180.54L180.604 20.2681ZM180.987 20.6564L180.935 24.1317H183.753C183.988 24.1395 184.221 24.0956 184.436 24.0029C184.652 23.9102 184.844 23.771 184.999 23.5953L185.005 23.5891C185.312 23.2699 185.488 22.8457 185.494 22.4023C185.494 21.9394 185.31 21.4955 184.982 21.1682C184.655 20.8405 184.21 20.6564 183.747 20.6564H180.987Z" fill="white"/>
<path d="M20.7189 15.1618C20.0861 15.9211 19.7667 16.8932 19.8258 17.8799V60.8259C19.7667 61.8126 20.0861 62.7847 20.7189 63.544L20.8548 63.6799L44.91 39.6441V39.0811L20.8548 15.0259L20.7189 15.1618Z" fill="url(#paint0_linear)"/>
<path d="M52.8702 47.6641L44.91 39.6457V39.0826L52.8702 31.0448L53.0449 31.1419L62.5777 36.5587C65.2958 38.0925 65.2958 40.6164 62.5777 42.1696L53.0838 47.567L52.8702 47.6641Z" fill="url(#paint1_linear)"/>
<path d="M53.1031 47.5453L44.91 39.3522L20.7189 63.5433C21.2729 64.0303 21.9797 64.3085 22.717 64.3298C23.4544 64.351 24.176 64.1141 24.7572 63.6598L53.1225 47.5453" fill="url(#paint2_linear)"/>
<path d="M53.1025 31.1609L24.7372 15.0464C24.156 14.5922 23.4344 14.3552 22.697 14.3764C21.9596 14.3977 21.2529 14.6759 20.6989 15.1629L44.9094 39.354L53.1025 31.1609Z" fill="url(#paint3_linear)"/>
<path opacity="0.2" d="M52.8701 47.3723L24.7378 63.3897C24.1772 63.8088 23.4962 64.0352 22.7963 64.0352C22.0964 64.0352 21.4153 63.8088 20.8548 63.3897L20.7189 63.5256L20.8548 63.6615C21.414 64.0836 22.0956 64.3119 22.7963 64.3119C23.4969 64.3119 24.1785 64.0836 24.7378 63.6615L53.1031 47.547L52.8701 47.3723Z" fill="black"/>
<path opacity="0.12" d="M20.7189 63.2715C20.0861 62.5121 19.7667 61.5401 19.8258 60.5534V60.8446C19.7667 61.8313 20.0861 62.8034 20.7189 63.5627L20.8548 63.4268L20.7189 63.2715ZM62.5777 41.8761L52.8702 47.3706L53.0449 47.5453L62.5777 42.1479C63.1186 41.8938 63.5829 41.5016 63.9238 41.0107C64.2647 40.5199 64.47 39.9478 64.5192 39.3522C64.41 39.8933 64.1782 40.4022 63.8417 40.8397C63.5051 41.2772 63.0727 41.6318 62.5777 41.8761Z" fill="black"/>
<path opacity="0.25" d="M24.7376 15.3207L62.5774 36.8325C63.0724 37.0768 63.5048 37.4314 63.8414 37.8689C64.178 38.3065 64.4098 38.8154 64.5189 39.3565C64.4698 38.7609 64.2644 38.1888 63.9235 37.6979C63.5827 37.2071 63.1183 36.8148 62.5774 36.5607L24.7376 15.0489C22.0195 13.5151 19.8062 14.7965 19.8062 17.9029V18.1941C19.8644 15.0683 22.0389 13.7869 24.7376 15.3207Z" fill="white"/>
</g>
<defs>
<linearGradient id="paint0_linear" x1="42.7744" y1="17.4333" x2="10.1959" y2="50.0117" gradientUnits="userSpaceOnUse">
<stop stop-color="#00A0FF"/>
<stop offset="0.01" stop-color="#00A1FF"/>
<stop offset="0.26" stop-color="#00BEFF"/>
<stop offset="0.51" stop-color="#00D2FF"/>
<stop offset="0.76" stop-color="#00DFFF"/>
<stop offset="1" stop-color="#00E3FF"/>
</linearGradient>
<linearGradient id="paint1_linear" x1="66.1306" y1="39.3544" x2="19.1657" y2="39.3544" gradientUnits="userSpaceOnUse">
<stop stop-color="#FFE000"/>
<stop offset="0.41" stop-color="#FFBD00"/>
<stop offset="0.78" stop-color="#FFA500"/>
<stop offset="1" stop-color="#FF9C00"/>
</linearGradient>
<linearGradient id="paint2_linear" x1="48.6571" y1="43.8176" x2="4.4685" y2="87.9868" gradientUnits="userSpaceOnUse">
<stop stop-color="#FF3A44"/>
<stop offset="1" stop-color="#C31162"/>
</linearGradient>
<linearGradient id="paint3_linear" x1="14.622" y1="0.873475" x2="34.3476" y2="20.5991" gradientUnits="userSpaceOnUse">
<stop stop-color="#32A071"/>
<stop offset="0.07" stop-color="#2DA771"/>
<stop offset="0.48" stop-color="#15CF74"/>
<stop offset="0.8" stop-color="#06E775"/>
<stop offset="1" stop-color="#00F076"/>
</linearGradient>
<clipPath id="clip0">
<rect width="262.103" height="77.6601" fill="white" transform="translate(0.448608 0.523682)"/>
</clipPath>
</defs>
</svg>
